<svg xmlns:xlink="http://www.w3.org/1999/xlink" xmlns="http://www.w3.org/2000/svg" width="114" height="13" viewBox="0 0 114 13" fill="none">
<path d="M97.0534 0C96.946 0 96.8446 0.050058 96.7787 0.135643L94.5561 3.0204C94.5117 3.07809 94.5524 3.16216 94.6248 3.16216H94.9728C95.0802 3.16216 95.1816 3.1121 95.2475 3.02652L97.47 0.141765C97.5145 0.0840681 97.4737 0 97.4013 0H97.0534Z" fill="#FB008F"></path>
<path d="M107.674 2.52557C107.695 2.71547 107.855 2.86347 108.05 2.86347H110.7L110.742 2.86124C110.931 2.84064 111.078 2.67962 111.078 2.48428V1.60461L111.076 1.56329C111.055 1.3733 110.895 1.22543 110.7 1.22543L109.485 1.22551L109.484 0.730535L109.482 0.689216C109.462 0.499219 109.301 0.351348 109.107 0.351348H108.05L108.009 0.353573C107.819 0.374158 107.672 0.53506 107.672 0.730535L107.672 2.48428L107.674 2.52557Z" fill="#FB008F"></path>
<path d="M8.35129 10.202C8.35129 11.6553 7.09025 12.9503 5.65077 12.9986L5.56754 13H2.77964C1.24256 13 0.0409666 11.8216 0.00101167 10.2907L0 10.202V7.05429C0 6.86535 0.125438 6.72573 0.305496 6.70675L0.347986 6.70455H1.3919C1.57994 6.70455 1.71879 6.83067 1.73767 7.0116L1.73986 7.05429L1.73627 10.196C1.73627 10.7585 2.17094 11.2174 2.71903 11.2495L2.78038 11.2513H5.56754C6.02489 11.2513 6.57088 10.7189 6.6093 10.2534L6.61144 10.202H5.21956C5.03133 10.202 4.89264 10.0761 4.87379 9.89502L4.8716 9.85227V8.78218C4.8716 8.59305 4.99684 8.45359 5.17704 8.43464L5.21956 8.43243H10.0781C10.6547 8.43243 11.1222 7.96052 11.1222 7.37838V5.27027C11.1222 5.07622 11.278 4.91892 11.4702 4.91892H12.5143C12.7066 4.91892 12.8624 5.07622 12.8624 5.27027V7.37838C12.8624 7.75113 12.7905 8.10693 12.66 8.43243H13.9015C14.4781 8.43243 14.9456 7.96052 14.9456 7.37838V5.27027C14.9456 5.07622 15.1014 4.91892 15.2936 4.91892H16.3377C16.5299 4.91892 16.6858 5.07622 16.6858 5.27027V7.37838C16.6858 7.75113 16.6139 8.10693 16.4834 8.43243H16.6908C17.2675 8.43243 17.7349 7.96052 17.7349 7.37838V5.27027C17.7349 5.07622 17.8907 4.91892 18.083 4.91892H19.1271C19.3193 4.91892 19.4751 5.07622 19.4751 5.27027V7.37838C19.4751 8.93075 18.2285 10.1892 16.6908 10.1892H16.3561C16.2419 10.1892 16.135 10.1326 16.07 10.0378L15.7112 9.51458C15.2245 9.93516 14.5924 10.1892 13.9015 10.1892H12.5227C12.4085 10.1892 12.3015 10.1326 12.2365 10.0378L11.8814 9.52003C11.3956 9.93736 10.766 10.1892 10.0781 10.1892H8.34874L8.35129 10.202Z" fill="#FB008F"></path>
<path d="M14.2972 2.86347C14.1027 2.86347 13.9426 2.71547 13.9221 2.52557L13.9199 2.48428L13.92 0.730535C13.92 0.53506 14.0671 0.374158 14.2562 0.353573L14.2973 0.351348H15.3544C15.5491 0.351348 15.7092 0.499219 15.7297 0.689216L15.7319 0.730535L15.7323 1.22551L16.948 1.22543C17.1425 1.22543 17.3026 1.3733 17.3231 1.56329L17.3253 1.60461V2.48428C17.3253 2.67962 17.1782 2.84064 16.9891 2.86124L16.948 2.86347H14.2972Z" fill="#FB008F"></path>
<path d="M82.2628 3.46918C82.2439 3.28811 82.1052 3.16216 81.917 3.16216H79.1332L79.0907 3.16437C78.9105 3.18332 78.7853 3.32278 78.7853 3.51191V4.56115L78.7875 4.6039C78.8063 4.78501 78.945 4.9109 79.1332 4.9109H81.917L81.9595 4.9087C82.1397 4.88975 82.265 4.75035 82.265 4.56115V3.51191L82.2628 3.46918Z" fill="#FB008F"></path>
<path d="M54.0741 11.1999C54.2623 11.1999 54.401 11.3259 54.4198 11.507L54.422 11.5497V12.5989C54.422 12.7881 54.2968 12.9275 54.1166 12.9465L54.0741 12.9487H51.2903C51.1021 12.9487 50.9634 12.8228 50.9445 12.6417L50.9423 12.5989V11.5497C50.9423 11.3606 51.0676 11.2211 51.2478 11.2021L51.2903 11.1999H54.0741Z" fill="#FB008F"></path>
<path d="M49.2 1.71242C49.1811 1.53135 49.0423 1.40541 48.8542 1.40541H47.8099L47.7674 1.40761C47.5873 1.42657 47.462 1.56602 47.462 1.75515V2.8044L47.4642 2.84714C47.483 3.02826 47.6218 3.15414 47.8099 3.15414H48.8542L48.8967 3.15194C49.0768 3.13299 49.2021 2.99359 49.2021 2.8044V1.75515L49.2 1.71242Z" fill="#FB008F"></path>
<path d="M67.4738 1.40541C67.6619 1.40541 67.8007 1.53135 67.8195 1.71242L67.8217 1.75515V2.8044C67.8217 2.99359 67.6964 3.13299 67.5163 3.15194L67.4738 3.15414H66.2559C66.0677 3.15414 65.929 3.02826 65.9101 2.84714L65.9079 2.8044V1.75515C65.9079 1.56602 66.0332 1.42657 66.2134 1.40761L66.2559 1.40541H67.4738Z" fill="#FB008F"></path>
<path d="M30.7971 0.658367C30.7782 0.477297 30.6395 0.351351 30.4513 0.351351H29.2334L29.1909 0.353555C29.0108 0.372512 28.8855 0.511967 28.8855 0.701099V1.75034L28.8877 1.79309C28.9065 1.9742 29.0453 2.10009 29.2334 2.10009H30.4513L30.4938 2.09789C30.674 2.07894 30.7993 1.93954 30.7993 1.75034V0.701099L30.7971 0.658367Z" fill="#FB008F"></path>
<path d="M92.1844 0.351351C92.3725 0.351351 92.5113 0.477297 92.5302 0.658367L92.5323 0.701099V1.75034C92.5323 1.93954 92.407 2.07894 92.2269 2.09789L92.1844 2.10009H90.9665C90.7783 2.10009 90.6395 1.9742 90.6207 1.79309L90.6185 1.75034V0.701099C90.6185 0.511967 90.7438 0.372512 90.924 0.353555L90.9665 0.351351H92.1844Z" fill="#FB008F"></path>
<path d="M58.8427 0.135643C58.9086 0.050058 59.01 0 59.1174 0H59.4653C59.5378 0 59.5785 0.0840681 59.534 0.141765L57.3115 3.02652C57.2456 3.1121 57.1442 3.16216 57.0368 3.16216H56.6888C56.6164 3.16216 56.5757 3.07809 56.6201 3.0204L58.8427 0.135643Z" fill="#FB008F"></path>
<path fill-rule="evenodd" clip-rule="evenodd" d="M94.2445 8.43243H99.3178C100.314 8.43243 101.058 7.68121 101.058 6.67568V6.32432C101.058 5.31879 100.314 4.56757 99.3178 4.56757H95.3162C95.003 4.56757 94.9427 4.28422 95.1422 4.04054L98.0728 0.261638C98.2085 0.095948 98.4104 0 98.6233 0H99.9601C100.229 0 100.376 0.316216 100.205 0.525443L98.4479 2.81081H99.3178C101.313 2.81081 102.798 4.30956 102.798 6.32432V6.67568C102.798 7.32605 102.643 7.92266 102.366 8.43243H104.179C104.755 8.43243 105.223 7.96052 105.223 7.37838V5.27027C105.223 5.07622 105.378 4.91892 105.571 4.91892H106.615C106.807 4.91892 106.963 5.07622 106.963 5.27027V7.37838C106.963 7.75113 106.891 8.10693 106.76 8.43243H108.002C108.579 8.43243 109.046 7.96052 109.046 7.37838V5.27027C109.046 5.07622 109.202 4.91892 109.394 4.91892H110.438C110.63 4.91892 110.786 5.07622 110.786 5.27027V7.37838C110.786 7.75113 110.714 8.10693 110.584 8.43243H110.791C111.368 8.43243 111.835 7.96052 111.835 7.37838V5.27027C111.835 5.07622 111.991 4.91892 112.183 4.91892H113.228C113.42 4.91892 113.576 5.07622 113.576 5.27027V7.37838C113.576 8.93075 112.329 10.1892 110.791 10.1892H110.457C110.342 10.1892 110.235 10.1326 110.17 10.0378L109.812 9.5146C109.325 9.93517 108.693 10.1892 108.002 10.1892H106.623C106.509 10.1892 106.402 10.1326 106.337 10.0378L105.982 9.52003C105.496 9.93736 104.866 10.1892 104.179 10.1892H102.099C101.984 10.1892 101.878 10.1326 101.813 10.0378L101.445 9.50254C100.867 9.9378 100.135 10.1892 99.3178 10.1892H86.437C86.3228 10.1892 86.2159 10.1326 86.1509 10.0378L85.7957 9.51999C85.3099 9.93734 84.6803 10.1892 83.9923 10.1892H77.0451C75.5074 10.1892 74.2608 8.93075 74.2608 7.37838V5.27027C74.2608 5.07622 74.4166 4.91892 74.6088 4.91892H75.6529C75.8452 4.91892 76.001 5.07622 76.001 5.27027V7.37838C76.001 7.96052 76.4684 8.43243 77.0451 8.43243H83.9923C84.569 8.43243 85.0365 7.96052 85.0365 7.37838V5.27027C85.0365 5.07622 85.1923 4.91892 85.3845 4.91892H86.4286C86.6208 4.91892 86.7766 5.07622 86.7766 5.27027V7.37838C86.7766 7.75113 86.7048 8.10693 86.5743 8.43243H89.0807C88.9502 8.10693 88.8783 7.75113 88.8783 7.37838V6.32432C88.8783 4.77196 90.1249 3.51351 91.6626 3.51351C93.2003 3.51351 94.4469 4.77196 94.4469 6.32432V7.37838C94.4469 7.75113 94.375 8.10693 94.2445 8.43243ZM92.7067 6.32432V7.37838C92.7067 7.96052 92.2393 8.43243 91.6626 8.43243C91.086 8.43243 90.6185 7.96052 90.6185 7.37838V6.32432C90.6185 5.74219 91.086 5.27027 91.6626 5.27027C92.2393 5.27027 92.7067 5.74219 92.7067 6.32432Z" fill="#FB008F"></path>
<path fill-rule="evenodd" clip-rule="evenodd" d="M32.5115 8.43243C32.642 8.10693 32.7139 7.75113 32.7139 7.37838V6.32432C32.7139 4.77196 31.4673 3.51351 29.9296 3.51351C28.3918 3.51351 27.1453 4.77196 27.1453 6.32432V7.37838C27.1453 7.75113 27.2171 8.10693 27.3477 8.43243H26.4492C25.8726 8.43243 25.4051 7.96052 25.4051 7.37838V5.27027L25.4051 5.26888V1.40541C25.4051 1.21136 25.2493 1.05405 25.0571 1.05405H24.0129C23.8207 1.05405 23.6649 1.21136 23.6649 1.40541V7.02703L23.6649 7.02841V7.37838C23.6649 8.93075 24.9115 10.1892 26.4492 10.1892H34.4407C35.1286 10.1892 35.7582 9.93736 36.244 9.52003L36.5991 10.0378C36.6641 10.1326 36.771 10.1892 36.8853 10.1892H38.264C38.9549 10.1892 39.587 9.93516 40.0737 9.51458L40.4326 10.0378C40.4976 10.1326 40.6045 10.1892 40.7187 10.1892H41.0534C42.5911 10.1892 43.8377 8.93075 43.8377 7.37838V5.27027C43.8377 5.07622 43.6819 4.91892 43.4896 4.91892H42.4455C42.2533 4.91892 42.0975 5.07622 42.0975 5.27027V7.37838C42.0975 7.96052 41.63 8.43243 41.0534 8.43243H40.8459C40.9765 8.10693 41.0483 7.75113 41.0483 7.37838V5.27027C41.0483 5.07622 40.8925 4.91892 40.7003 4.91892H39.6562C39.464 4.91892 39.3082 5.07622 39.3082 5.27027V7.37838C39.3082 7.96052 38.8407 8.43243 38.264 8.43243H37.0226C37.1531 8.10693 37.225 7.75113 37.225 7.37838V5.27027C37.225 5.07622 37.0691 4.91892 36.8769 4.91892H35.8328C35.6406 4.91892 35.4848 5.07622 35.4848 5.27027V7.37838C35.4848 7.96052 35.0173 8.43243 34.4407 8.43243H32.5115ZM30.9737 7.37838V6.32432C30.9737 5.74219 30.5062 5.27027 29.9296 5.27027C29.3529 5.27027 28.8855 5.74219 28.8855 6.32432V7.37838C28.8855 7.96052 29.3529 8.43243 29.9296 8.43243C30.5062 8.43243 30.9737 7.96052 30.9737 7.37838Z" fill="#FB008F"></path>
<path d="M64.4303 8.43243C64.7069 7.92266 64.8616 7.32605 64.8616 6.67568V6.32432C64.8616 4.30956 63.3772 2.81081 61.3819 2.81081H60.5119L62.269 0.525443C62.4403 0.316216 62.293 0 62.024 0H60.6873C60.4744 0 60.2725 0.095948 60.1368 0.261638L57.2062 4.04054C57.0067 4.28422 57.067 4.56757 57.3802 4.56757H61.3819C62.3777 4.56757 63.1217 5.31879 63.1217 6.32432V6.67568C63.1217 7.68121 62.3777 8.43243 61.3819 8.43243H55.5991C55.7296 8.10693 55.8015 7.75113 55.8015 7.37838V5.27027C55.8015 5.07622 55.6456 4.91892 55.4534 4.91892H54.4093C54.2171 4.91892 54.0613 5.07622 54.0613 5.27027V7.37838C54.0613 7.96052 53.5938 8.43243 53.0172 8.43243H49.2247V5.27027C49.2247 5.07622 49.0689 4.91892 48.8767 4.91892H47.8326C47.6404 4.91892 47.4846 5.07622 47.4846 5.27027V9.48649C47.4846 10.492 46.741 11.2432 45.7451 11.2432H44.2709C43.9577 11.2432 43.8973 11.5266 44.0969 11.7703L44.8415 12.7305C44.9735 12.9006 45.1756 13 45.3896 13H45.7451C47.7404 13 49.2248 11.5013 49.2248 9.48649L49.2247 9.48041L49.607 10.0378C49.672 10.1326 49.779 10.1892 49.8932 10.1892H53.0172C53.7153 10.1892 54.3534 9.9298 54.8421 9.50128L55.3756 10.1892H61.3819C62.4176 10.1892 63.3156 9.78537 63.9399 9.11518L64.5726 10.0378C64.6376 10.1326 64.7445 10.1892 64.8587 10.1892H67.2867C68.8244 10.1892 70.071 8.93075 70.071 7.37838V5.27027C70.071 5.07622 69.9151 4.91892 69.7229 4.91892H68.6788C68.4866 4.91892 68.3308 5.07622 68.3308 5.27027V7.37838C68.3308 7.96052 67.8633 8.43243 67.2867 8.43243H64.4303Z" fill="#FB008F"></path>
<path d="M17.4928 11.7703L18.2375 12.7305C18.3694 12.9006 18.5716 13 18.7856 13H19.1411C21.1364 13 22.6208 11.5013 22.6208 9.48649V5.27027C22.6208 5.07622 22.465 4.91892 22.2728 4.91892H21.2287C21.0364 4.91892 20.8806 5.07622 20.8806 5.27027V9.48649C20.8806 10.492 20.137 11.2432 19.1411 11.2432H17.6668C17.3537 11.2432 17.2933 11.5266 17.4928 11.7703Z" fill="#FB008F"></path>
<path d="M71.1285 1.40541C71.1285 1.21136 71.2843 1.05405 71.4765 1.05405H72.5206C72.7128 1.05405 72.8686 1.21136 72.8686 1.40541V9.83784C72.8686 10.0319 72.7128 10.1892 72.5206 10.1892H71.4765C71.2843 10.1892 71.1285 10.0319 71.1285 9.83784V1.40541Z" fill="#FB008F"></path>
</svg>