<svg xmlns:xlink="http://www.w3.org/1999/xlink" xmlns="http://www.w3.org/2000/svg" style="width: 18px; height: 18px; fill: var(--color-delivery-jet-expansion);" width="24" height="24"><defs><symbol id="deliveryToday" xmlns="http://www.w3.org/2000/svg" viewBox="0 0 24 24"><path d="M22 5h-2v2h2V5z"></path><path fill-rule="evenodd" d="M15 15h6v-2h-6a1 1 0 110-2h5V9h-6a1 1 0 110-2h4V5H7a7 7 0 000 14h11v-2h-3a1 1 0 110-2zm-3-3a5 5 0 10-10 0 5 5 0 0010 0z" clip-rule="evenodd"></path><path d="M21.5 9H24v2h-2.5V9zM21.5 17H19v2h2.5v-2z"></path><path fill-rule="evenodd" d="M7 12V9.75H5.5v3c0 .414.336.75.75.75h3V12H7z" clip-rule="evenodd"></path></symbol></defs><g fill="#1028FF"><path d="M22 5h-2v2h2V5z"></path><path fill-rule="evenodd" d="M15 15h6v-2h-6a1 1 0 110-2h5V9h-6a1 1 0 110-2h4V5H7a7 7 0 000 14h11v-2h-3a1 1 0 110-2zm-3-3a5 5 0 10-10 0 5 5 0 0010 0z" clip-rule="evenodd"></path><path d="M21.5 9H24v2h-2.5V9zM21.5 17H19v2h2.5v-2z"></path><path fill-rule="evenodd" d="M7 12V9.75H5.5v3c0 .414.336.75.75.75h3V12H7z" clip-rule="evenodd"></path></g></svg>