<svg xmlns:xlink="http://www.w3.org/1999/xlink" xmlns="http://www.w3.org/2000/svg" style="width: 18px; height: 18px; fill: var(--color-icon-low-emphasis);" width="18" height="18"><defs><symbol id="giftCard" xmlns="http://www.w3.org/2000/svg" viewBox="0 0 18 18"><path d="M11.25 10.5H15V12h-3.75v-1.5z"></path><path fill-rule="evenodd" d="M3 3h12a2.25 2.25 0 012.25 2.25v7.5A2.25 2.25 0 0115 15H3a2.25 2.25 0 01-2.25-2.25v-7.5A2.25 2.25 0 013 3zm0 1.5a.75.75 0 00-.75.75v7.5c0 .414.336.75.75.75h3v-2.69l-.97.97-1.06-1.06.988-.989A2.25 2.25 0 116 5.378V4.5H3zm3 3.75V7.5a.75.75 0 10-.75.75H6zm1.5-2.872V4.5H15a.75.75 0 01.75.75v7.5a.75.75 0 01-.75.75H7.5v-2.69l.97.97 1.06-1.06-.988-.989A2.25 2.25 0 107.5 5.378zm0 2.872h.75a.75.75 0 10-.75-.75v.75z" clip-rule="evenodd"></path></symbol></defs><g fill="#A1A3A8"><path d="M11.25 10.5H15V12h-3.75v-1.5z"></path><path fill-rule="evenodd" d="M3 3h12a2.25 2.25 0 012.25 2.25v7.5A2.25 2.25 0 0115 15H3a2.25 2.25 0 01-2.25-2.25v-7.5A2.25 2.25 0 013 3zm0 1.5a.75.75 0 00-.75.75v7.5c0 .414.336.75.75.75h3v-2.69l-.97.97-1.06-1.06.988-.989A2.25 2.25 0 116 5.378V4.5H3zm3 3.75V7.5a.75.75 0 10-.75.75H6zm1.5-2.872V4.5H15a.75.75 0 01.75.75v7.5a.75.75 0 01-.75.75H7.5v-2.69l.97.97 1.06-1.06-.988-.989A2.25 2.25 0 107.5 5.378zm0 2.872h.75a.75.75 0 10-.75-.75v.75z" clip-rule="evenodd"></path></g></svg>