<svg xmlns:xlink="http://www.w3.org/1999/xlink" xmlns="http://www.w3.org/2000/svg" style="width: 24px; height: 24px; fill: var(--color-icon-white);" width="24" height="24"><defs><symbol id="support" xmlns="http://www.w3.org/2000/svg" viewBox="0 0 24 24"><path fill-rule="evenodd" d="M18 17a4.001 4.001 0 01-3.14 3.907A3 3 0 1012 23h2a6 6 0 006-6v-.256a4.502 4.502 0 000-8.488V7a6 6 0 00-6-6h-4a6 6 0 00-6 6v1.256A4.502 4.502 0 005.5 17H7a1 1 0 001-1V9a1 1 0 00-1-1H6V7a4 4 0 014-4h4a4 4 0 014 4v1h-1a1 1 0 00-1 1v7a1 1 0 001 1h1zm.5-2H18v-5h.5a2.5 2.5 0 010 5zM6 10h-.5a2.5 2.5 0 000 5H6v-5zm7 10a1 1 0 11-2 0 1 1 0 012 0z" clip-rule="evenodd"></path></symbol></defs><g fill="#FFFFFF"><path fill-rule="evenodd" d="M18 17a4.001 4.001 0 01-3.14 3.907A3 3 0 1012 23h2a6 6 0 006-6v-.256a4.502 4.502 0 000-8.488V7a6 6 0 00-6-6h-4a6 6 0 00-6 6v1.256A4.502 4.502 0 005.5 17H7a1 1 0 001-1V9a1 1 0 00-1-1H6V7a4 4 0 014-4h4a4 4 0 014 4v1h-1a1 1 0 00-1 1v7a1 1 0 001 1h1zm.5-2H18v-5h.5a2.5 2.5 0 010 5zM6 10h-.5a2.5 2.5 0 000 5H6v-5zm7 10a1 1 0 11-2 0 1 1 0 012 0z" clip-rule="evenodd"></path></g></svg>