<svg xmlns:xlink="http://www.w3.org/1999/xlink" xmlns="http://www.w3.org/2000/svg" style="width: 18px; height: 18px; fill: var(--color-icon-high-emphasis);" width="24" height="25"><defs><symbol id="catHomeElectronic" xmlns="http://www.w3.org/2000/svg" viewBox="0 0 24 25"><path d="M5.738 5.989v2.99h-1.5V5.99h1.5zM5.738 12.968v2.991h-1.5v-2.991h1.5zM18.806 20.793a.877.877 0 11-1.754 0 .877.877 0 011.754 0z"></path><path fill-rule="evenodd" d="M15.571 7.711V1.95a.95.95 0 00-.95-.95H1.95a.95.95 0 00-.95.95V24h22v-3.414c0-.926-.42-1.753-1.078-2.304l.89-10.57h-3.72v-1h-2.5v1h-1.02zM3 3v7.253h7.13V9.71a2 2 0 012-2h1.441V3H3zm9.684 19v-1.414c0-1.001.49-1.888 1.243-2.433l-.212-2.516h-1.584a2 2 0 01-2-2v-1.884H3V22h9.684zm.532-12.291H12.13v3.928h1.416l-.331-3.928zm2.468 9.877H20a1 1 0 011 1V22h-6.316v-1.414a1 1 0 011-1zm-.46-9.875l.662 7.867h1.294v-.869h-.69v-1.5h2.875v1.5h-.685v.869h1.294l.663-7.867h-5.414z" clip-rule="evenodd"></path></symbol></defs><g fill="#424750"><path d="M5.738 5.989v2.99h-1.5V5.99h1.5zM5.738 12.968v2.991h-1.5v-2.991h1.5zM18.806 20.793a.877.877 0 11-1.754 0 .877.877 0 011.754 0z"></path><path fill-rule="evenodd" d="M15.571 7.711V1.95a.95.95 0 00-.95-.95H1.95a.95.95 0 00-.95.95V24h22v-3.414c0-.926-.42-1.753-1.078-2.304l.89-10.57h-3.72v-1h-2.5v1h-1.02zM3 3v7.253h7.13V9.71a2 2 0 012-2h1.441V3H3zm9.684 19v-1.414c0-1.001.49-1.888 1.243-2.433l-.212-2.516h-1.584a2 2 0 01-2-2v-1.884H3V22h9.684zm.532-12.291H12.13v3.928h1.416l-.331-3.928zm2.468 9.877H20a1 1 0 011 1V22h-6.316v-1.414a1 1 0 011-1zm-.46-9.875l.662 7.867h1.294v-.869h-.69v-1.5h2.875v1.5h-.685v.869h1.294l.663-7.867h-5.414z" clip-rule="evenodd"></path></g></svg>