<svg xmlns:xlink="http://www.w3.org/1999/xlink" xmlns="http://www.w3.org/2000/svg" style="width: 18px; height: 18px; fill: var(--color-icon-high-emphasis);" width="24" height="24"><defs><symbol id="beauty" xmlns="http://www.w3.org/2000/svg" viewBox="0 0 24 24"><path fill-rule="evenodd" d="M16.05 3.25c3.277 0 5.95 2.568 5.95 5.757a5.622 5.622 0 01-1.32 3.616c-.63.755-3.262 3.505-7.964 8.325a1 1 0 01-1.434-.002c-4.639-4.784-7.247-7.506-7.87-8.215A5.627 5.627 0 012 9.007C2 5.818 4.673 3.25 7.95 3.25c1.53 0 2.967.564 4.05 1.539a6.048 6.048 0 014.05-1.539zm3.095 8.091c.552-.66.855-1.475.855-2.334 0-2.066-1.76-3.757-3.95-3.757-1.312 0-2.51.611-3.243 1.612a1 1 0 01-1.614 0C10.46 5.861 9.261 5.25 7.95 5.25 5.76 5.25 4 6.941 4 9.007c0 .891.326 1.733.916 2.405.557.635 2.932 3.117 7.086 7.403 4.194-4.304 6.594-6.817 7.143-7.474zm-10.352.452a1 1 0 011.414 0L12 13.586l4.793-4.793a1 1 0 111.414 1.414l-5.5 5.5a1 1 0 01-1.414 0l-2.5-2.5a1 1 0 010-1.414z" clip-rule="evenodd"></path></symbol></defs><g fill="#424750"><path fill-rule="evenodd" d="M16.05 3.25c3.277 0 5.95 2.568 5.95 5.757a5.622 5.622 0 01-1.32 3.616c-.63.755-3.262 3.505-7.964 8.325a1 1 0 01-1.434-.002c-4.639-4.784-7.247-7.506-7.87-8.215A5.627 5.627 0 012 9.007C2 5.818 4.673 3.25 7.95 3.25c1.53 0 2.967.564 4.05 1.539a6.048 6.048 0 014.05-1.539zm3.095 8.091c.552-.66.855-1.475.855-2.334 0-2.066-1.76-3.757-3.95-3.757-1.312 0-2.51.611-3.243 1.612a1 1 0 01-1.614 0C10.46 5.861 9.261 5.25 7.95 5.25 5.76 5.25 4 6.941 4 9.007c0 .891.326 1.733.916 2.405.557.635 2.932 3.117 7.086 7.403 4.194-4.304 6.594-6.817 7.143-7.474zm-10.352.452a1 1 0 011.414 0L12 13.586l4.793-4.793a1 1 0 111.414 1.414l-5.5 5.5a1 1 0 01-1.414 0l-2.5-2.5a1 1 0 010-1.414z" clip-rule="evenodd"></path></g></svg>