<svg xmlns:xlink="http://www.w3.org/1999/xlink" xmlns="http://www.w3.org/2000/svg" style="width: 18px; height: 18px; fill: var(--color-icon-high-emphasis);" width="18" height="18"><defs><symbol id="vehicles" xmlns="http://www.w3.org/2000/svg" viewBox="0 0 18 18"><g clip-path="url(#clip0_966_244914)"><path d="M3.179 9.91c.073-.393.497-.638.91-.493.8.282 1.827.728 2.27 1.006.407.256.4.372.387.64l-.003.05c-.003.075-.072.137-.156.137H3.382c-.236 0-.415-.191-.377-.401l.174-.938zM13.912 9.417c.412-.145.837.1.91.494l.173.938c.039.21-.14.401-.377.401h-3.205c-.084 0-.152-.062-.156-.138l-.002-.049c-.014-.268-.02-.384.386-.64.443-.278 1.47-.724 2.271-1.006z"></path><path fill-rule="evenodd" d="M3.043 4.116A2.25 2.25 0 014.987 3h8.027c.8 0 1.54.425 1.943 1.116l1.475 2.529.54-.216a.75.75 0 01.557 1.392l-.484.194c.136.47.205.958.205 1.452V15a.75.75 0 01-.75.75h-.75A.75.75 0 0115 15v-1.51c-3.96.825-8.044.828-12 .011V15a.75.75 0 01-.75.75H1.5A.75.75 0 01.75 15v-2.625c0-.027.001-.052.003-.076a.945.945 0 01-.003-.072v-2.76c0-.494.07-.982.205-1.452L.472 7.82a.75.75 0 11.557-1.392l.54.216 1.474-2.529zm-.435 4.509h13.046c.064.275.096.557.096.842v2.316l-.275.065a28.06 28.06 0 01-13.225-.055V9.467c0-.285.033-.567.096-.842h.262zM4.987 4.5a.75.75 0 00-.648.372L3.025 7.125h11.95l-1.313-2.253a.75.75 0 00-.648-.372H4.987z" clip-rule="evenodd"></path></g><defs><clipPath id="clip0_966_244914"><path d="M0 0h18v18H0z"></path></clipPath></defs></symbol></defs><g fill="#424750"><g clip-path="url(#clip0_966_244914)"><path d="M3.179 9.91c.073-.393.497-.638.91-.493.8.282 1.827.728 2.27 1.006.407.256.4.372.387.64l-.003.05c-.003.075-.072.137-.156.137H3.382c-.236 0-.415-.191-.377-.401l.174-.938zM13.912 9.417c.412-.145.837.1.91.494l.173.938c.039.21-.14.401-.377.401h-3.205c-.084 0-.152-.062-.156-.138l-.002-.049c-.014-.268-.02-.384.386-.64.443-.278 1.47-.724 2.271-1.006z"></path><path fill-rule="evenodd" d="M3.043 4.116A2.25 2.25 0 014.987 3h8.027c.8 0 1.54.425 1.943 1.116l1.475 2.529.54-.216a.75.75 0 01.557 1.392l-.484.194c.136.47.205.958.205 1.452V15a.75.75 0 01-.75.75h-.75A.75.75 0 0115 15v-1.51c-3.96.825-8.044.828-12 .011V15a.75.75 0 01-.75.75H1.5A.75.75 0 01.75 15v-2.625c0-.027.001-.052.003-.076a.945.945 0 01-.003-.072v-2.76c0-.494.07-.982.205-1.452L.472 7.82a.75.75 0 11.557-1.392l.54.216 1.474-2.529zm-.435 4.509h13.046c.064.275.096.557.096.842v2.316l-.275.065a28.06 28.06 0 01-13.225-.055V9.467c0-.285.033-.567.096-.842h.262zM4.987 4.5a.75.75 0 00-.648.372L3.025 7.125h11.95l-1.313-2.253a.75.75 0 00-.648-.372H4.987z" clip-rule="evenodd"></path></g><defs><clippath id="clip0_966_244914"><path d="M0 0h18v18H0z"></path></clippath></defs></g></svg>