<svg xmlns:xlink="http://www.w3.org/1999/xlink" xmlns="http://www.w3.org/2000/svg" style="width: 18px; height: 18px; fill: var(--color-icon-high-emphasis);" width="24" height="24"><defs><symbol id="electronic" xmlns="http://www.w3.org/2000/svg" viewBox="0 0 24 24"><path fill-rule="evenodd" d="M4 5a1 1 0 011-1h14a1 1 0 011 1v8.723l2.858 4.762A1 1 0 0122 20H2a1 1 0 01-.857-1.515L4 13.723V5zm2 8h12V6H6v7zm-.434 2l-1.8 3h16.468l-1.8-3H5.566z" clip-rule="evenodd"></path></symbol></defs><g fill="#424750"><path fill-rule="evenodd" d="M4 5a1 1 0 011-1h14a1 1 0 011 1v8.723l2.858 4.762A1 1 0 0122 20H2a1 1 0 01-.857-1.515L4 13.723V5zm2 8h12V6H6v7zm-.434 2l-1.8 3h16.468l-1.8-3H5.566z" clip-rule="evenodd"></path></g></svg>