<svg xmlns:xlink="http://www.w3.org/1999/xlink" xmlns="http://www.w3.org/2000/svg" style="width: 18px; height: 18px; fill: var(--color-icon-high-emphasis);" width="24" height="24"><defs><symbol id="fashion" xmlns="http://www.w3.org/2000/svg" viewBox="0 0 24 24"><path fill-rule="evenodd" d="M4.317 12.449L6 11.887V20a1 1 0 001 1h10a1 1 0 001-1v-8.113l1.684.562a1 1 0 001.23-.543l2-4.5a1 1 0 00-.542-1.334l-5-2A1 1 0 0017 4h-2a1 1 0 00-.993.883l-.011.273C13.93 6.234 13.196 7 12 7c-1.253 0-2-.84-2-2a1 1 0 00-1-1H7a1 1 0 00-.371.072l-5 2a1 1 0 00-.543 1.334l2 4.5a1 1 0 001.23.543zm-.981-4.906L7.193 6h.92l.05.19C8.622 7.821 10.038 9 12 9c2.037 0 3.485-1.271 3.887-3h.92l3.858 1.543-1.21 2.721-2.138-.713A1 1 0 0016 10.5V19H8v-8.5a1 1 0 00-1.316-.949l-2.139.713-1.21-2.721z" clip-rule="evenodd"></path></symbol></defs><g fill="#424750"><path fill-rule="evenodd" d="M4.317 12.449L6 11.887V20a1 1 0 001 1h10a1 1 0 001-1v-8.113l1.684.562a1 1 0 001.23-.543l2-4.5a1 1 0 00-.542-1.334l-5-2A1 1 0 0017 4h-2a1 1 0 00-.993.883l-.011.273C13.93 6.234 13.196 7 12 7c-1.253 0-2-.84-2-2a1 1 0 00-1-1H7a1 1 0 00-.371.072l-5 2a1 1 0 00-.543 1.334l2 4.5a1 1 0 001.23.543zm-.981-4.906L7.193 6h.92l.05.19C8.622 7.821 10.038 9 12 9c2.037 0 3.485-1.271 3.887-3h.92l3.858 1.543-1.21 2.721-2.138-.713A1 1 0 0016 10.5V19H8v-8.5a1 1 0 00-1.316-.949l-2.139.713-1.21-2.721z" clip-rule="evenodd"></path></g></svg>