<svg xmlns:xlink="http://www.w3.org/1999/xlink" xmlns="http://www.w3.org/2000/svg" style="width: 18px; height: 18px; fill: var(--color-icon-high-emphasis);" width="24" height="24"><defs><symbol id="catJewelry" xmlns="http://www.w3.org/2000/svg" viewBox="0 0 24 24"><path d="M15.785 0c.557 0 1.009.448 1.009 1v3l4.411 3.33c.552.417.85 1.086.787 1.772l-.232 2.523c-.423 4.614-3.123 8.721-7.21 10.971l-2.068 1.139a1 1 0 01-.964 0L9.45 22.596a13.995 13.995 0 01-7.21-10.971l-.232-2.523a1.99 1.99 0 01.787-1.772L7.206 4V1c0-.552.452-1 1.009-1zm2.697 7.788a7.062 7.062 0 01-5.323 4.118l1.768 2.559c.294.426.294.987 0 1.413l-1.886 2.729a1.268 1.268 0 01-2.082 0l-1.886-2.729a1.242 1.242 0 010-1.413l1.768-2.559a7.06 7.06 0 01-5.323-4.118l-1.5 1.133.232 2.523a11.996 11.996 0 006.18 9.404l1.088.599a1 1 0 00.964 0l1.088-.599a11.996 11.996 0 006.18-9.404l.231-2.523zM12 13.77l-.969 1.402.969 1.401.969-1.401L12 13.77zM14.775 2H9.224v2.493a1 1 0 01-.398.798L7.191 6.525C7.841 8.541 9.749 10 11.999 10s4.157-1.459 4.808-3.475l-1.635-1.234a1.002 1.002 0 01-.398-.798V2z"></path></symbol></defs><g fill="#424750"><path d="M15.785 0c.557 0 1.009.448 1.009 1v3l4.411 3.33c.552.417.85 1.086.787 1.772l-.232 2.523c-.423 4.614-3.123 8.721-7.21 10.971l-2.068 1.139a1 1 0 01-.964 0L9.45 22.596a13.995 13.995 0 01-7.21-10.971l-.232-2.523a1.99 1.99 0 01.787-1.772L7.206 4V1c0-.552.452-1 1.009-1zm2.697 7.788a7.062 7.062 0 01-5.323 4.118l1.768 2.559c.294.426.294.987 0 1.413l-1.886 2.729a1.268 1.268 0 01-2.082 0l-1.886-2.729a1.242 1.242 0 010-1.413l1.768-2.559a7.06 7.06 0 01-5.323-4.118l-1.5 1.133.232 2.523a11.996 11.996 0 006.18 9.404l1.088.599a1 1 0 00.964 0l1.088-.599a11.996 11.996 0 006.18-9.404l.231-2.523zM12 13.77l-.969 1.402.969 1.401.969-1.401L12 13.77zM14.775 2H9.224v2.493a1 1 0 01-.398.798L7.191 6.525C7.841 8.541 9.749 10 11.999 10s4.157-1.459 4.808-3.475l-1.635-1.234a1.002 1.002 0 01-.398-.798V2z"></path></g></svg>