<svg xmlns:xlink="http://www.w3.org/1999/xlink" xmlns="http://www.w3.org/2000/svg" style="width: 18px; height: 18px; fill: var(--color-icon-high-emphasis);" width="24" height="24"><defs><symbol id="catHealth" xmlns="http://www.w3.org/2000/svg" viewBox="0 0 24 24"><path d="M20.999 4.017a2 2 0 012 2v14.984a2 2 0 01-2 2H3.001a2 2 0 01-2-2V9.273a2 2 0 012-2H9.84V6.017a2 2 0 012-2h9.159zm-9.408 5.256h-8.59v11.728h8.59V9.273zm9.408-3.256H11.84v1.271a2 2 0 011.751 1.985v3.229h1.932v-2.25h1.5v2.25h2.25v1.5h-2.25v2.25h-1.5v-2.25h-1.932v7h7.408V6.018zm-10.66 12.219v1.5H4.252v-1.5h6.087zm-1.044-7.93c.69 0 1.25.56 1.25 1.25v4.264c0 .69-.56 1.25-1.25 1.25H5.297c-.69 0-1.25-.56-1.25-1.25v-4.264c0-.69.56-1.25 1.25-1.25zm-.25 1.5H5.547v3.764h3.498v-3.764zM20.919.999v2h-9v-2h9z"></path></symbol></defs><g fill="#424750"><path d="M20.999 4.017a2 2 0 012 2v14.984a2 2 0 01-2 2H3.001a2 2 0 01-2-2V9.273a2 2 0 012-2H9.84V6.017a2 2 0 012-2h9.159zm-9.408 5.256h-8.59v11.728h8.59V9.273zm9.408-3.256H11.84v1.271a2 2 0 011.751 1.985v3.229h1.932v-2.25h1.5v2.25h2.25v1.5h-2.25v2.25h-1.5v-2.25h-1.932v7h7.408V6.018zm-10.66 12.219v1.5H4.252v-1.5h6.087zm-1.044-7.93c.69 0 1.25.56 1.25 1.25v4.264c0 .69-.56 1.25-1.25 1.25H5.297c-.69 0-1.25-.56-1.25-1.25v-4.264c0-.69.56-1.25 1.25-1.25zm-.25 1.5H5.547v3.764h3.498v-3.764zM20.919.999v2h-9v-2h9z"></path></g></svg>