<svg xmlns:xlink="http://www.w3.org/1999/xlink" xmlns="http://www.w3.org/2000/svg" style="width: 18px; height: 18px; fill: var(--color-icon-high-emphasis);" width="24" height="24"><defs><symbol id="homeKitchen" xmlns="http://www.w3.org/2000/svg" viewBox="0 0 24 24"><path fill-rule="evenodd" d="M7 3h10c1.56 0 2.898 1.066 2.994 2.5l.006.167v2.869a3.5 3.5 0 011.001 6.627L21 18a2 2 0 01-2 2v1h-2v-1H7v1H5v-1a2 2 0 01-2-2v-2.837a3.5 3.5 0 011-6.628V5.667c0-1.461 1.28-2.581 2.821-2.662L7 3zm1 11h8v-2l.005-.192A3.501 3.501 0 0118 8.837v-3.17c0-.3-.35-.614-.867-.661L17 5H7c-.543 0-.936.292-.993.592L6 5.667l.001 3.17A3.5 3.5 0 018 12v2zm-5-2a1.5 1.5 0 013 0v3a1 1 0 001 1h10a1 1 0 001-1v-3l.007-.145A1.5 1.5 0 0121 12l-.007.145A1.5 1.5 0 0119.5 13.5H19V18H5v-4.5h-.5A1.5 1.5 0 013 12z" clip-rule="evenodd"></path></symbol></defs><g fill="#424750"><path fill-rule="evenodd" d="M7 3h10c1.56 0 2.898 1.066 2.994 2.5l.006.167v2.869a3.5 3.5 0 011.001 6.627L21 18a2 2 0 01-2 2v1h-2v-1H7v1H5v-1a2 2 0 01-2-2v-2.837a3.5 3.5 0 011-6.628V5.667c0-1.461 1.28-2.581 2.821-2.662L7 3zm1 11h8v-2l.005-.192A3.501 3.501 0 0118 8.837v-3.17c0-.3-.35-.614-.867-.661L17 5H7c-.543 0-.936.292-.993.592L6 5.667l.001 3.17A3.5 3.5 0 018 12v2zm-5-2a1.5 1.5 0 013 0v3a1 1 0 001 1h10a1 1 0 001-1v-3l.007-.145A1.5 1.5 0 0121 12l-.007.145A1.5 1.5 0 0119.5 13.5H19V18H5v-4.5h-.5A1.5 1.5 0 013 12z" clip-rule="evenodd"></path></g></svg>