<svg xmlns:xlink="http://www.w3.org/1999/xlink" xmlns="http://www.w3.org/2000/svg" style="width: 18px; height: 18px; fill: var(--color-icon-high-emphasis);" width="24" height="24"><defs><symbol id="mobile" xmlns="http://www.w3.org/2000/svg" viewBox="0 0 24 24"><path fill-rule="evenodd" d="M7 1h10a3 3 0 013 3v16a3 3 0 01-3 3H7a3 3 0 01-3-3V4a3 3 0 013-3zm0 2a1 1 0 00-1 1v16a1 1 0 001 1h10a1 1 0 001-1V4a1 1 0 00-1-1H7zm5 17a2 2 0 100-4 2 2 0 000 4z" clip-rule="evenodd"></path></symbol></defs><g fill="#424750"><path fill-rule="evenodd" d="M7 1h10a3 3 0 013 3v16a3 3 0 01-3 3H7a3 3 0 01-3-3V4a3 3 0 013-3zm0 2a1 1 0 00-1 1v16a1 1 0 001 1h10a1 1 0 001-1V4a1 1 0 00-1-1H7zm5 17a2 2 0 100-4 2 2 0 000 4z" clip-rule="evenodd"></path></g></svg>