<svg xmlns:xlink="http://www.w3.org/1999/xlink" xmlns="http://www.w3.org/2000/svg" style="width: 18px; height: 18px; fill: var(--color-icon-high-emphasis);" width="24" height="24"><defs><symbol id="nativeBusiness" xmlns="http://www.w3.org/2000/svg" viewBox="0 0 24 24"><path d="M15.5 1v3l-3 3V4l3-3zM11.5 9v2.984L8.5 9v3l3 3v8.005L7 23l-.5-1C8 22 9 21.395 9 20c0-1.6-1.12-2.72-2.464-4.064C4.52 13.92 2 11.4 2 6h6.5l3 3zM12.5 9v2.984L15.5 9v3l-3 3v8.005L17 23l.5-1C16 22 15 20.895 15 19.5c0-1.6 1.12-2.64 2.464-3.888C19.48 13.74 22 11.4 22 6h-6.5l-3 3zM8.5 4V1l3 3v3l-3-3z"></path></symbol></defs><g fill="#424750"><path d="M15.5 1v3l-3 3V4l3-3zM11.5 9v2.984L8.5 9v3l3 3v8.005L7 23l-.5-1C8 22 9 21.395 9 20c0-1.6-1.12-2.72-2.464-4.064C4.52 13.92 2 11.4 2 6h6.5l3 3zM12.5 9v2.984L15.5 9v3l-3 3v8.005L17 23l.5-1C16 22 15 20.895 15 19.5c0-1.6 1.12-2.64 2.464-3.888C19.48 13.74 22 11.4 22 6h-6.5l-3 3zM8.5 4V1l3 3v3l-3-3z"></path></g></svg>