<svg xmlns:xlink="http://www.w3.org/1999/xlink" xmlns="http://www.w3.org/2000/svg" style="width: 18px; height: 18px; fill: var(--color-icon-high-emphasis);" width="24" height="24"><defs><symbol id="sportOutdoor" xmlns="http://www.w3.org/2000/svg" viewBox="0 0 24 24"><path fill-rule="evenodd" d="M12 5.197l1.168-1.752a1 1 0 111.664 1.11L13.202 7l7.63 11.445c.022.034.042.068.06.103.628.148 1.255.311 1.883.49a1 1 0 11-.55 1.924C18.814 19.986 15.406 19.5 12 19.5c-3.406 0-6.814.487-10.225 1.462a1 1 0 01-.55-1.924c.628-.179 1.255-.342 1.883-.49.018-.035.038-.07.06-.103L10.798 7l-1.63-2.445a1 1 0 111.664-1.11L12 5.197zm-6.13 12.8c.897-.145 1.794-.259 2.69-.34.024-.064.054-.127.092-.187l2.5-4a1 1 0 011.696 0l2.5 4c.038.06.068.123.091.187.898.081 1.794.195 2.691.34L12 8.804l-6.13 9.195zm7.147-.483L12 15.887l-1.017 1.627a37.471 37.471 0 012.034 0z" clip-rule="evenodd"></path></symbol></defs><g fill="#424750"><path fill-rule="evenodd" d="M12 5.197l1.168-1.752a1 1 0 111.664 1.11L13.202 7l7.63 11.445c.022.034.042.068.06.103.628.148 1.255.311 1.883.49a1 1 0 11-.55 1.924C18.814 19.986 15.406 19.5 12 19.5c-3.406 0-6.814.487-10.225 1.462a1 1 0 01-.55-1.924c.628-.179 1.255-.342 1.883-.49.018-.035.038-.07.06-.103L10.798 7l-1.63-2.445a1 1 0 111.664-1.11L12 5.197zm-6.13 12.8c.897-.145 1.794-.259 2.69-.34.024-.064.054-.127.092-.187l2.5-4a1 1 0 011.696 0l2.5 4c.038.06.068.123.091.187.898.081 1.794.195 2.691.34L12 8.804l-6.13 9.195zm7.147-.483L12 15.887l-1.017 1.627a37.471 37.471 0 012.034 0z" clip-rule="evenodd"></path></g></svg>