<svg xmlns:xlink="http://www.w3.org/1999/xlink" xmlns="http://www.w3.org/2000/svg" style="width: 18px; height: 18px; fill: var(--color-icon-high-emphasis);" width="24" height="24"><defs><symbol id="bookStationary" xmlns="http://www.w3.org/2000/svg" viewBox="0 0 24 24"><path fill-rule="evenodd" d="M6.293 6.793L5 8.086 3.414 6.5 6.5 3.414 11.086 8 8 11.086 6.414 9.5l1.293-1.293a1 1 0 00-1.414-1.414zm-5 .414L6.586 12.5l-3.28 3.28a.994.994 0 00-.275.474l-1.496 5.483a1 1 0 001.228 1.228l5.483-1.496a.993.993 0 00.474-.274l3.28-3.28 5.293 5.292a1 1 0 001.414 0l4.5-4.5a1 1 0 000-1.414L17.914 12l3.879-3.879a3 3 0 000-4.242L20.62 2.707a3 3 0 00-4.242 0L12.5 6.586 7.207 1.293a1 1 0 00-1.414 0l-4.5 4.5a1 1 0 000 1.414zM6.074 19.99l-1.563-1.563-.586 2.149 2.15-.586zM15.5 6.414L18.086 9 8 19.086 5.414 16.5 15.5 6.414zm4 1.172L16.914 5l.879-.879a1 1 0 011.414 0l1.172 1.172a1 1 0 010 1.414l-.879.879zm-4.5 10.5L13.414 16.5l3.086-3.086L21.086 18 18 21.086 16.414 19.5l1.293-1.293a1 1 0 00-1.414-1.414L15 18.086z" clip-rule="evenodd"></path></symbol></defs><g fill="#424750"><path fill-rule="evenodd" d="M6.293 6.793L5 8.086 3.414 6.5 6.5 3.414 11.086 8 8 11.086 6.414 9.5l1.293-1.293a1 1 0 00-1.414-1.414zm-5 .414L6.586 12.5l-3.28 3.28a.994.994 0 00-.275.474l-1.496 5.483a1 1 0 001.228 1.228l5.483-1.496a.993.993 0 00.474-.274l3.28-3.28 5.293 5.292a1 1 0 001.414 0l4.5-4.5a1 1 0 000-1.414L17.914 12l3.879-3.879a3 3 0 000-4.242L20.62 2.707a3 3 0 00-4.242 0L12.5 6.586 7.207 1.293a1 1 0 00-1.414 0l-4.5 4.5a1 1 0 000 1.414zM6.074 19.99l-1.563-1.563-.586 2.149 2.15-.586zM15.5 6.414L18.086 9 8 19.086 5.414 16.5 15.5 6.414zm4 1.172L16.914 5l.879-.879a1 1 0 011.414 0l1.172 1.172a1 1 0 010 1.414l-.879.879zm-4.5 10.5L13.414 16.5l3.086-3.086L21.086 18 18 21.086 16.414 19.5l1.293-1.293a1 1 0 00-1.414-1.414L15 18.086z" clip-rule="evenodd"></path></g></svg>