<svg xmlns:xlink="http://www.w3.org/1999/xlink" xmlns="http://www.w3.org/2000/svg" style="width: 18px; height: 18px; fill: var(--color-icon-high-emphasis);" width="24" height="24"><defs><symbol id="tools" xmlns="http://www.w3.org/2000/svg" viewBox="0 0 24 24"><path fill-rule="evenodd" d="M21.207 16.793l-6.833-6.834A6.502 6.502 0 004.975 2.42 1 1 0 004.755 4l3.036 3.036a.5.5 0 11-.707.707L4.05 4.708a1 1 0 00-1.58.219 6.502 6.502 0 007.464 9.42l6.86 6.86a3.121 3.121 0 104.414-4.414zm-11.38-4.52A4.5 4.5 0 013.73 7.217l1.94 1.94a2.5 2.5 0 003.536-3.536l-1.94-1.94a4.503 4.503 0 015.032 6.152 1 1 0 00.215 1.093l7.28 7.28a1.121 1.121 0 01-1.586 1.586l-7.3-7.3a1 1 0 00-1.08-.22z" clip-rule="evenodd"></path></symbol></defs><g fill="#424750"><path fill-rule="evenodd" d="M21.207 16.793l-6.833-6.834A6.502 6.502 0 004.975 2.42 1 1 0 004.755 4l3.036 3.036a.5.5 0 11-.707.707L4.05 4.708a1 1 0 00-1.58.219 6.502 6.502 0 007.464 9.42l6.86 6.86a3.121 3.121 0 104.414-4.414zm-11.38-4.52A4.5 4.5 0 013.73 7.217l1.94 1.94a2.5 2.5 0 003.536-3.536l-1.94-1.94a4.503 4.503 0 015.032 6.152 1 1 0 00.215 1.093l7.28 7.28a1.121 1.121 0 01-1.586 1.586l-7.3-7.3a1 1 0 00-1.08-.22z" clip-rule="evenodd"></path></g></svg>