<svg xmlns:xlink="http://www.w3.org/1999/xlink" xmlns="http://www.w3.org/2000/svg" style="width: 18px; height: 18px; fill: var(--color-icon-high-emphasis);" width="24" height="24"><defs><symbol id="kidsToy" xmlns="http://www.w3.org/2000/svg" viewBox="0 0 24 24"><path fill-rule="evenodd" d="M11.817 4.5a3.5 3.5 0 103.5-3.5 1 1 0 100 2 1.5 1.5 0 11-1.5 1.5 1 1 0 10-2 0zM1 14.5A3.5 3.5 0 004.5 18h.015A8.993 8.993 0 0012 22a8.993 8.993 0 007.485-4h.015a3.5 3.5 0 001.332-6.738 8.954 8.954 0 00-1.4-3.339 1 1 0 10-1.65 1.13 6.955 6.955 0 011.168 3.105 1 1 0 00.817.866 1.5 1.5 0 11-.59 2.941 1 1 0 00-1.084.484A6.996 6.996 0 0112 20a6.996 6.996 0 01-6.093-3.551 1 1 0 00-1.084-.484 1.5 1.5 0 11-.59-2.942 1 1 0 00.817-.865A7.008 7.008 0 019.807 6.35a1 1 0 00-.626-1.9 9.012 9.012 0 00-6.013 6.812A3.502 3.502 0 001 14.5zm10-4a1.5 1.5 0 11-3 0 1.5 1.5 0 013 0zm3.5 1.5a1.5 1.5 0 100-3 1.5 1.5 0 000 3zM12 18a4.997 4.997 0 01-4.307-2.459 1 1 0 011.722-1.017A2.997 2.997 0 0012 16a2.998 2.998 0 002.59-1.485 1 1 0 011.725 1.012A4.997 4.997 0 0112 18z" clip-rule="evenodd"></path></symbol></defs><g fill="#424750"><path fill-rule="evenodd" d="M11.817 4.5a3.5 3.5 0 103.5-3.5 1 1 0 100 2 1.5 1.5 0 11-1.5 1.5 1 1 0 10-2 0zM1 14.5A3.5 3.5 0 004.5 18h.015A8.993 8.993 0 0012 22a8.993 8.993 0 007.485-4h.015a3.5 3.5 0 001.332-6.738 8.954 8.954 0 00-1.4-3.339 1 1 0 10-1.65 1.13 6.955 6.955 0 011.168 3.105 1 1 0 00.817.866 1.5 1.5 0 11-.59 2.941 1 1 0 00-1.084.484A6.996 6.996 0 0112 20a6.996 6.996 0 01-6.093-3.551 1 1 0 00-1.084-.484 1.5 1.5 0 11-.59-2.942 1 1 0 00.817-.865A7.008 7.008 0 019.807 6.35a1 1 0 00-.626-1.9 9.012 9.012 0 00-6.013 6.812A3.502 3.502 0 001 14.5zm10-4a1.5 1.5 0 11-3 0 1.5 1.5 0 013 0zm3.5 1.5a1.5 1.5 0 100-3 1.5 1.5 0 000 3zM12 18a4.997 4.997 0 01-4.307-2.459 1 1 0 011.722-1.017A2.997 2.997 0 0012 16a2.998 2.998 0 002.59-1.485 1 1 0 011.725 1.012A4.997 4.997 0 0112 18z" clip-rule="evenodd"></path></g></svg>