<svg xmlns:xlink="http://www.w3.org/1999/xlink" xmlns="http://www.w3.org/2000/svg" style="width: 24px; height: 24px; fill: var(--color-ad);" width="24" height="24"><defs><symbol id="specialAmazing" xmlns="http://www.w3.org/2000/svg" viewBox="0 0 22 22"><path d="M16 1.5a1.5 1.5 0 11-3 0 1.5 1.5 0 013 0zM22 7.5a1.5 1.5 0 11-3 0 1.5 1.5 0 013 0zM15.207 8.207l6.5-6.5L20.293.293l-6.5 6.5 1.414 1.414z"></path><path fill-rule="evenodd" d="M5.793 2.293a1 1 0 011.414 0l12.5 12.5a1 1 0 01-1.414 1.414l-.553-.552-1.829.653c.058.263.089.536.089.816C16 19.304 14.169 21 12 21c-1.502 0-2.841-.813-3.524-2.037l-2.665.952a1 1 0 01-1.518 1.292l-3.5-3.5a1 1 0 011.292-1.518l4.26-11.93-.552-.552a1 1 0 010-1.414zm4.625 15.977c.359.438.922.73 1.582.73 1.145 0 2-.88 2-1.876 0-.044-.002-.088-.005-.132l-3.577 1.278zm-6.158.075l-.605-.605L7.91 5.824l8.265 8.266L4.26 18.345z" clip-rule="evenodd"></path></symbol></defs><g fill="#FF009C"><path d="M16 1.5a1.5 1.5 0 11-3 0 1.5 1.5 0 013 0zM22 7.5a1.5 1.5 0 11-3 0 1.5 1.5 0 013 0zM15.207 8.207l6.5-6.5L20.293.293l-6.5 6.5 1.414 1.414z"></path><path fill-rule="evenodd" d="M5.793 2.293a1 1 0 011.414 0l12.5 12.5a1 1 0 01-1.414 1.414l-.553-.552-1.829.653c.058.263.089.536.089.816C16 19.304 14.169 21 12 21c-1.502 0-2.841-.813-3.524-2.037l-2.665.952a1 1 0 01-1.518 1.292l-3.5-3.5a1 1 0 011.292-1.518l4.26-11.93-.552-.552a1 1 0 010-1.414zm4.625 15.977c.359.438.922.73 1.582.73 1.145 0 2-.88 2-1.876 0-.044-.002-.088-.005-.132l-3.577 1.278zm-6.158.075l-.605-.605L7.91 5.824l8.265 8.266L4.26 18.345z" clip-rule="evenodd"></path></g></svg>