
<svg width="984" height="136" viewBox="0 0 984 136" fill="none" xmlns="http://www.w3.org/2000/svg">
<g opacity="0.2">
<mask id="mask0_8612_40346" style="mask-type:alpha" maskUnits="userSpaceOnUse" x="0" y="0" width="983" height="136">
<rect width="983" height="136" fill="#B90025"/>
</mask>
<g mask="url(#mask0_8612_40346)">
<path d="M12.6301 3.6292C12.6301 2.67976 11.859 1.9101 10.9078 1.9101C9.95662 1.9101 9.18553 2.67976 9.18553 3.6292V7.0674C9.18553 8.01683 9.95662 8.7865 10.9078 8.7865C11.859 8.7865 12.6301 8.01683 12.6301 7.0674V3.6292Z" fill="white"/>
<path d="M12.6301 14.7078C12.6301 13.7584 11.859 12.9887 10.9078 12.9887C9.95662 12.9887 9.18553 13.7584 9.18553 14.7078V18.146C9.18553 19.0955 9.95662 19.8651 10.9078 19.8651C11.859 19.8651 12.6301 19.0955 12.6301 18.146V14.7078Z" fill="white"/>
<path d="M13.0128 10.8876C13.0128 9.93819 13.7839 9.16852 14.7351 9.16852H18.1797C19.1309 9.16852 19.902 9.93819 19.902 10.8876C19.902 11.8371 19.1309 12.6067 18.1797 12.6067H14.7351C13.7839 12.6067 13.0128 11.8371 13.0128 10.8876Z" fill="white"/>
<path d="M3.63594 9.16852C2.68474 9.16852 1.91365 9.93819 1.91365 10.8876C1.91365 11.8371 2.68474 12.6067 3.63594 12.6067H7.08051C8.0317 12.6067 8.8028 11.8371 8.8028 10.8876C8.8028 9.93819 8.0317 9.16852 7.08051 9.16852H3.63594Z" fill="white"/>
<path d="M280.541 80.0337C280.541 79.0842 279.77 78.3146 278.819 78.3146C277.868 78.3146 277.097 79.0842 277.097 80.0337V83.4719C277.097 84.4213 277.868 85.191 278.819 85.191C279.77 85.191 280.541 84.4213 280.541 83.4719V80.0337Z" fill="white"/>
<path d="M280.541 91.1123C280.541 90.1629 279.77 89.3932 278.819 89.3932C277.868 89.3932 277.097 90.1629 277.097 91.1123V94.5505C277.097 95.5 277.868 96.2696 278.819 96.2696C279.77 96.2696 280.541 95.5 280.541 94.5505V91.1123Z" fill="white"/>
<path d="M280.924 87.2921C280.924 86.3427 281.695 85.573 282.646 85.573H286.091C287.042 85.573 287.813 86.3427 287.813 87.2921C287.813 88.2415 287.042 89.0112 286.091 89.0112H282.646C281.695 89.0112 280.924 88.2415 280.924 87.2921Z" fill="white"/>
<path d="M271.547 85.573C270.596 85.573 269.825 86.3427 269.825 87.2921C269.825 88.2415 270.596 89.0112 271.547 89.0112H274.992C275.943 89.0112 276.714 88.2415 276.714 87.2921C276.714 86.3427 275.943 85.573 274.992 85.573H271.547Z" fill="white"/>
<path d="M39.0385 87.1011C39.0385 86.2571 39.7239 85.573 40.5694 85.573H42.1003C42.9459 85.573 43.6313 86.2571 43.6313 87.1011C43.6313 87.945 42.9459 88.6292 42.1003 88.6292H40.5694C39.7239 88.6292 39.0385 87.945 39.0385 87.1011Z" fill="white"/>
<path d="M44.3967 87.1011C44.3967 86.2571 45.0821 85.573 45.9277 85.573H47.4586C48.3041 85.573 48.9895 86.2571 48.9895 87.1011C48.9895 87.945 48.3041 88.6292 47.4586 88.6292H45.9277C45.0821 88.6292 44.3967 87.945 44.3967 87.1011Z" fill="white"/>
<path d="M51.2859 85.573C50.4404 85.573 49.755 86.2571 49.755 87.1011C49.755 87.945 50.4404 88.6292 51.2859 88.6292H57.0268C57.8723 88.6292 58.5578 87.945 58.5578 87.1011C58.5578 86.2571 57.8723 85.573 57.0268 85.573H51.2859Z" fill="white"/>
<path fill-rule="evenodd" clip-rule="evenodd" d="M46.0175 42.1145C46.6008 41.5035 47.5698 41.4801 48.1819 42.0623L57.0604 50.5066C59.0611 52.4095 57.7118 55.7753 54.9482 55.7753H43.2547C40.5495 55.7753 39.1734 52.5301 41.0566 50.5916L44.6623 46.8801C45.2509 46.2742 46.2201 46.2594 46.8271 46.8469C47.4341 47.4344 47.449 48.4018 46.8604 49.0076L43.2547 52.7192L54.9482 52.7192L46.0698 44.2749C45.4576 43.6927 45.4342 42.7254 46.0175 42.1145Z" fill="white"/>
<path d="M9.88532 124.605C9.28746 125.202 9.28746 126.169 9.88532 126.766C10.4832 127.363 11.4525 127.363 12.0504 126.766L12.5916 126.226C13.1895 125.629 13.1895 124.661 12.5916 124.065C11.9938 123.468 11.0244 123.468 10.4266 124.065L9.88532 124.605Z" fill="white"/>
<path d="M201.251 9.99809C200.653 10.5948 200.653 11.5624 201.251 12.1591C201.848 12.7559 202.818 12.7559 203.416 12.1591L203.957 11.6189C204.555 11.0221 204.555 10.0546 203.957 9.45783C203.359 8.86107 202.39 8.86107 201.792 9.45783L201.251 9.99809Z" fill="white"/>
<path d="M307.715 48.8989C307.715 48.0549 308.401 47.3708 309.246 47.3708H310.777C311.623 47.3708 312.308 48.0549 312.308 48.8989C312.308 49.7428 311.623 50.427 310.777 50.427H309.246C308.401 50.427 307.715 49.7428 307.715 48.8989Z" fill="white"/>
<path d="M313.074 48.8989C313.074 48.0549 313.759 47.3708 314.604 47.3708H316.135C316.981 47.3708 317.666 48.0549 317.666 48.8989C317.666 49.7428 316.981 50.427 316.135 50.427H314.604C313.759 50.427 313.074 49.7428 313.074 48.8989Z" fill="white"/>
<path d="M319.963 47.3708C319.117 47.3708 318.432 48.0549 318.432 48.8989C318.432 49.7428 319.117 50.427 319.963 50.427H325.704C326.549 50.427 327.235 49.7428 327.235 48.8989C327.235 48.0549 326.549 47.3708 325.704 47.3708H319.963Z" fill="white"/>
<path d="M307.715 125.303C307.715 124.459 308.401 123.775 309.246 123.775H310.777C311.623 123.775 312.308 124.459 312.308 125.303C312.308 126.147 311.623 126.831 310.777 126.831H309.246C308.401 126.831 307.715 126.147 307.715 125.303Z" fill="white"/>
<path d="M313.074 125.303C313.074 124.459 313.759 123.775 314.604 123.775H316.135C316.981 123.775 317.666 124.459 317.666 125.303C317.666 126.147 316.981 126.831 316.135 126.831H314.604C313.759 126.831 313.074 126.147 313.074 125.303Z" fill="white"/>
<path d="M319.963 123.775C319.117 123.775 318.432 124.459 318.432 125.303C318.432 126.147 319.117 126.831 319.963 126.831H325.704C326.549 126.831 327.235 126.147 327.235 125.303C327.235 124.459 326.549 123.775 325.704 123.775H319.963Z" fill="white"/>
<path fill-rule="evenodd" clip-rule="evenodd" d="M117.988 3.19298C118.443 2.7268 119.123 2.55754 119.745 2.75577L132.87 6.9428C133.538 7.15565 134.009 7.75068 134.063 8.4478C134.117 9.14492 133.743 9.80523 133.116 10.1179L127.693 12.8249L125.241 17.9636C124.941 18.5932 124.289 18.9794 123.591 18.941C122.894 18.9026 122.288 18.4474 122.059 17.7886L117.594 4.95738C117.38 4.34224 117.532 3.65917 117.988 3.19298ZM121.978 7.07765L123.936 12.7027L124.837 10.8126C125.002 10.4666 125.279 10.1855 125.622 10.0141L127.791 8.93186L121.978 7.07765Z" fill="white"/>
<path d="M82.9868 93.6611C82.389 94.2578 81.4196 94.2578 80.8218 93.6611C80.2239 93.0643 80.2239 92.0968 80.8218 91.5L81.363 90.9597C81.9609 90.363 82.9302 90.363 83.5281 90.9597C84.126 91.5565 84.126 92.524 83.5281 93.1208L82.9868 93.6611Z" fill="white"/>
<path d="M86.505 90.1494C85.9072 90.7461 84.9378 90.7461 84.34 90.1494C83.7421 89.5526 83.7421 88.5851 84.34 87.9883L84.8812 87.448C85.4791 86.8513 86.4484 86.8513 87.0463 87.448C87.6442 88.0448 87.6442 89.0123 87.0463 89.6091L86.505 90.1494Z" fill="white"/>
<path d="M87.8582 86.6377C88.4561 87.2344 89.4254 87.2344 90.0232 86.6377L90.5645 86.0974C91.1624 85.5006 91.1624 84.5331 90.5645 83.9363C89.9666 83.3396 88.9973 83.3396 88.3995 83.9363L87.8582 84.4766C87.2603 85.0734 87.2603 86.0409 87.8582 86.6377Z" fill="white"/>
<path d="M93.5415 83.126C92.9436 83.7227 91.9743 83.7227 91.3764 83.126C90.7785 82.5292 90.7785 81.5617 91.3764 80.9649L91.9177 80.4246C92.5155 79.8279 93.4849 79.8279 94.0827 80.4246C94.6806 81.0214 94.6806 81.9889 94.0827 82.5857L93.5415 83.126Z" fill="white"/>
<path d="M204.378 83.2809C205.224 83.2809 205.909 83.965 205.909 84.809C205.909 85.6529 205.224 86.3371 204.378 86.3371H194.81C193.964 86.3371 193.279 85.6529 193.279 84.809C193.279 83.965 193.964 83.2809 194.81 83.2809H204.378Z" fill="white"/>
<path d="M210.119 88.2472C210.965 88.2472 211.65 88.9313 211.65 89.7753C211.65 90.6192 210.965 91.3034 210.119 91.3034H197.872C197.026 91.3034 196.341 90.6192 196.341 89.7753C196.341 88.9313 197.026 88.2472 197.872 88.2472H210.119Z" fill="white"/>
<path fill-rule="evenodd" clip-rule="evenodd" d="M158.394 54.6859C158.425 54.6914 158.457 54.6969 158.49 54.7024C159.121 54.8081 160.006 54.9069 161.011 54.8801C163.034 54.8262 165.409 54.2723 167.284 52.4013C169.17 50.5183 169.828 48.024 169.979 45.8669C169.993 45.6573 170.003 45.4525 170.008 45.2536L165.066 50.1873C164.468 50.7841 163.498 50.7841 162.901 50.1873C162.303 49.5905 162.303 48.623 162.901 48.0263L167.843 43.0926C167.644 43.0982 167.439 43.1078 167.229 43.1224C165.068 43.2728 162.569 43.9292 160.682 45.8122C158.808 47.6832 158.253 50.0536 158.199 52.0733C158.172 53.0768 158.271 53.9596 158.377 54.5895C158.383 54.6224 158.388 54.6545 158.394 54.6859ZM171.272 41.8315L171.604 40.3397C172.184 40.4683 172.638 40.9209 172.766 41.5004L171.272 41.8315ZM171.272 41.8315C171.604 40.3397 171.602 40.3394 171.602 40.3394L171.601 40.3392L171.598 40.3385L171.59 40.3367L171.565 40.3315C171.546 40.3274 171.519 40.322 171.486 40.3154C171.42 40.3024 171.327 40.2851 171.211 40.2654C170.978 40.226 170.649 40.1769 170.243 40.1338C169.433 40.0479 168.303 39.9841 167.016 40.0737C164.466 40.2511 161.129 41.0448 158.517 43.6512C155.894 46.2697 155.204 49.5166 155.138 51.9918C155.105 53.2358 155.227 54.3199 155.357 55.095C155.423 55.484 155.491 55.799 155.544 56.0221C155.571 56.1337 155.594 56.2226 155.611 56.2866C155.62 56.3185 155.627 56.3443 155.632 56.3636L155.639 56.3876L155.642 56.3959L155.643 56.3991L155.643 56.4005C155.643 56.4005 155.643 56.4017 157.111 55.9663L155.643 56.4017C155.791 56.8967 156.179 57.2839 156.675 57.4311L157.111 55.9663C156.675 57.4311 156.676 57.4314 156.676 57.4314L156.677 57.4318L156.68 57.4328L156.689 57.4352L156.713 57.4421C156.732 57.4476 156.758 57.4547 156.79 57.4633C156.854 57.4806 156.943 57.5035 157.055 57.5302C157.278 57.5833 157.594 57.6513 157.984 57.7165C158.76 57.8465 159.846 57.9684 161.093 57.9352C163.573 57.8692 166.825 57.1809 169.449 54.5624C172.06 51.956 172.855 48.625 173.033 46.0794C173.123 44.7946 173.059 43.6672 172.973 42.859C172.93 42.4535 172.88 42.1248 172.841 41.8925C172.821 41.7763 172.804 41.6839 172.791 41.6178C172.784 41.5847 172.779 41.5582 172.775 41.5386L172.769 41.5142L172.768 41.506L172.767 41.5029L172.767 41.5016C172.767 41.5016 172.766 41.5004 171.272 41.8315Z" fill="white"/>
<g clip-path="url(#clip0_8612_40346)">
<path fill-rule="evenodd" clip-rule="evenodd" d="M115.585 123.393C115.585 122.549 116.27 121.865 117.116 121.865H124.77C125.616 121.865 126.301 122.549 126.301 123.393C126.301 124.237 125.616 124.921 124.77 124.921H117.116C116.27 124.921 115.585 124.237 115.585 123.393Z" fill="white"/>
<path fill-rule="evenodd" clip-rule="evenodd" d="M127.832 123.393C127.832 122.549 128.517 121.865 129.363 121.865H132.807C133.653 121.865 134.338 122.549 134.338 123.393C134.338 124.237 133.653 124.921 132.807 124.921H129.363C128.517 124.921 127.832 124.237 127.832 123.393Z" fill="white"/>
<path d="M119.412 126.831C118.566 126.831 117.881 127.516 117.881 128.36C117.881 129.203 118.566 129.888 119.412 129.888H120.177C121.023 129.888 121.708 129.203 121.708 128.36C121.708 127.516 121.023 126.831 120.177 126.831H119.412Z" fill="white"/>
<path d="M124.387 126.831C123.542 126.831 122.856 127.516 122.856 128.36C122.856 129.203 123.542 129.888 124.387 129.888H125.153C125.998 129.888 126.684 129.203 126.684 128.36C126.684 127.516 125.998 126.831 125.153 126.831H124.387Z" fill="white"/>
<path d="M127.832 128.36C127.832 127.516 128.517 126.831 129.363 126.831H130.128C130.974 126.831 131.659 127.516 131.659 128.36C131.659 129.203 130.974 129.888 130.128 129.888H129.363C128.517 129.888 127.832 129.203 127.832 128.36Z" fill="white"/>
<path d="M134.338 126.831C133.493 126.831 132.807 127.516 132.807 128.36C132.807 129.203 133.493 129.888 134.338 129.888H135.104C135.949 129.888 136.635 129.203 136.635 128.36C136.635 127.516 135.949 126.831 135.104 126.831H134.338Z" fill="white"/>
</g>
<path d="M283.669 17.2565C284.267 17.8533 285.236 17.8533 285.834 17.2565C286.432 16.6598 286.432 15.6922 285.834 15.0955L285.293 14.5552C284.695 13.9585 283.726 13.9585 283.128 14.5552C282.53 15.152 282.53 16.1195 283.128 16.7163L283.669 17.2565Z" fill="white"/>
<path d="M280.151 13.7448C280.749 14.3416 281.718 14.3416 282.316 13.7448C282.914 13.1481 282.914 12.1805 282.316 11.5838L281.775 11.0435C281.177 10.4468 280.207 10.4468 279.609 11.0435C279.012 11.6403 279.012 12.6078 279.609 13.2046L280.151 13.7448Z" fill="white"/>
<path d="M278.798 10.2331C278.2 10.8299 277.23 10.8299 276.633 10.2331L276.091 9.69286C275.493 9.0961 275.493 8.12857 276.091 7.53181C276.689 6.93505 277.658 6.93505 278.256 7.53181L278.798 8.07207C279.395 8.66883 279.395 9.63636 278.798 10.2331Z" fill="white"/>
<path d="M273.114 6.72142C273.712 7.31817 274.682 7.31817 275.279 6.72142C275.877 6.12466 275.877 5.15713 275.279 4.56037L274.738 4.02011C274.14 3.42336 273.171 3.42336 272.573 4.02011C271.975 4.61687 271.975 5.5844 272.573 6.18116L273.114 6.72142Z" fill="white"/>
<path d="M239.524 48.2004C238.926 48.7971 238.926 49.7647 239.524 50.3614C240.121 50.9582 241.091 50.9582 241.689 50.3614L242.23 49.8211C242.828 49.2244 242.828 48.2569 242.23 47.6601C241.632 47.0633 240.663 47.0633 240.065 47.6601L239.524 48.2004Z" fill="white"/>
<path fill-rule="evenodd" clip-rule="evenodd" d="M202.656 119.191C199.168 119.191 196.341 122.013 196.341 125.494C196.341 128.976 199.168 131.798 202.656 131.798C203.539 131.798 204.375 131.618 205.134 131.294C205.912 130.963 206.812 131.323 207.144 132.099C207.476 132.875 207.115 133.773 206.337 134.105C205.205 134.587 203.96 134.854 202.656 134.854C197.477 134.854 193.279 130.664 193.279 125.494C193.279 120.325 197.477 116.135 202.656 116.135C207.835 116.135 212.033 120.325 212.033 125.494C212.033 126.823 211.755 128.09 211.252 129.239C210.913 130.012 210.011 130.365 209.236 130.027C208.461 129.689 208.108 128.789 208.446 128.015C208.783 127.245 208.971 126.394 208.971 125.494C208.971 122.013 206.143 119.191 202.656 119.191Z" fill="white"/>
<path d="M340.63 3.6292C340.63 2.67976 339.859 1.9101 338.908 1.9101C337.957 1.9101 337.186 2.67976 337.186 3.6292V7.0674C337.186 8.01683 337.957 8.7865 338.908 8.7865C339.859 8.7865 340.63 8.01683 340.63 7.0674V3.6292Z" fill="white"/>
<path d="M340.63 14.7078C340.63 13.7584 339.859 12.9887 338.908 12.9887C337.957 12.9887 337.186 13.7584 337.186 14.7078V18.146C337.186 19.0955 337.957 19.8651 338.908 19.8651C339.859 19.8651 340.63 19.0955 340.63 18.146V14.7078Z" fill="white"/>
<path d="M341.013 10.8876C341.013 9.93819 341.784 9.16852 342.735 9.16852H346.18C347.131 9.16852 347.902 9.93819 347.902 10.8876C347.902 11.8371 347.131 12.6067 346.18 12.6067H342.735C341.784 12.6067 341.013 11.8371 341.013 10.8876Z" fill="white"/>
<path d="M331.636 9.16852C330.685 9.16852 329.914 9.93819 329.914 10.8876C329.914 11.8371 330.685 12.6067 331.636 12.6067H335.081C336.032 12.6067 336.803 11.8371 336.803 10.8876C336.803 9.93819 336.032 9.16852 335.081 9.16852H331.636Z" fill="white"/>
<path d="M608.541 80.0337C608.541 79.0842 607.77 78.3146 606.819 78.3146C605.868 78.3146 605.097 79.0842 605.097 80.0337V83.4719C605.097 84.4213 605.868 85.191 606.819 85.191C607.77 85.191 608.541 84.4213 608.541 83.4719V80.0337Z" fill="white"/>
<path d="M608.541 91.1123C608.541 90.1629 607.77 89.3932 606.819 89.3932C605.868 89.3932 605.097 90.1629 605.097 91.1123V94.5505C605.097 95.5 605.868 96.2696 606.819 96.2696C607.77 96.2696 608.541 95.5 608.541 94.5505V91.1123Z" fill="white"/>
<path d="M608.924 87.2921C608.924 86.3427 609.695 85.573 610.646 85.573H614.091C615.042 85.573 615.813 86.3427 615.813 87.2921C615.813 88.2415 615.042 89.0112 614.091 89.0112H610.646C609.695 89.0112 608.924 88.2415 608.924 87.2921Z" fill="white"/>
<path d="M599.547 85.573C598.596 85.573 597.825 86.3427 597.825 87.2921C597.825 88.2415 598.596 89.0112 599.547 89.0112H602.992C603.943 89.0112 604.714 88.2415 604.714 87.2921C604.714 86.3427 603.943 85.573 602.992 85.573H599.547Z" fill="white"/>
<path d="M367.039 87.1011C367.039 86.2571 367.724 85.573 368.569 85.573H370.1C370.946 85.573 371.631 86.2571 371.631 87.1011C371.631 87.945 370.946 88.6292 370.1 88.6292H368.569C367.724 88.6292 367.039 87.945 367.039 87.1011Z" fill="white"/>
<path d="M372.397 87.1011C372.397 86.2571 373.082 85.573 373.928 85.573H375.459C376.304 85.573 376.99 86.2571 376.99 87.1011C376.99 87.945 376.304 88.6292 375.459 88.6292H373.928C373.082 88.6292 372.397 87.945 372.397 87.1011Z" fill="white"/>
<path d="M379.286 85.573C378.44 85.573 377.755 86.2571 377.755 87.1011C377.755 87.945 378.44 88.6292 379.286 88.6292H385.027C385.872 88.6292 386.558 87.945 386.558 87.1011C386.558 86.2571 385.872 85.573 385.027 85.573H379.286Z" fill="white"/>
<path fill-rule="evenodd" clip-rule="evenodd" d="M374.018 42.1145C374.601 41.5035 375.57 41.4801 376.182 42.0623L385.06 50.5066C387.061 52.4095 385.712 55.7753 382.948 55.7753H371.255C368.55 55.7753 367.173 52.5301 369.057 50.5916L372.662 46.8801C373.251 46.2742 374.22 46.2594 374.827 46.8469C375.434 47.4344 375.449 48.4018 374.86 49.0076L371.255 52.7192L382.948 52.7192L374.07 44.2749C373.458 43.6927 373.434 42.7254 374.018 42.1145Z" fill="white"/>
<path d="M337.885 124.605C337.288 125.202 337.288 126.169 337.885 126.766C338.483 127.363 339.453 127.363 340.05 126.766L340.592 126.226C341.19 125.629 341.19 124.661 340.592 124.065C339.994 123.468 339.024 123.468 338.427 124.065L337.885 124.605Z" fill="white"/>
<path d="M529.251 9.99809C528.653 10.5948 528.653 11.5624 529.251 12.1591C529.848 12.7559 530.818 12.7559 531.416 12.1591L531.957 11.6189C532.555 11.0221 532.555 10.0546 531.957 9.45783C531.359 8.86107 530.39 8.86107 529.792 9.45783L529.251 9.99809Z" fill="white"/>
<path d="M635.715 48.8989C635.715 48.0549 636.401 47.3708 637.246 47.3708H638.777C639.623 47.3708 640.308 48.0549 640.308 48.8989C640.308 49.7428 639.623 50.427 638.777 50.427H637.246C636.401 50.427 635.715 49.7428 635.715 48.8989Z" fill="white"/>
<path d="M641.073 48.8989C641.073 48.0549 641.759 47.3708 642.604 47.3708H644.135C644.981 47.3708 645.666 48.0549 645.666 48.8989C645.666 49.7428 644.981 50.427 644.135 50.427H642.604C641.759 50.427 641.073 49.7428 641.073 48.8989Z" fill="white"/>
<path d="M647.963 47.3708C647.117 47.3708 646.432 48.0549 646.432 48.8989C646.432 49.7428 647.117 50.427 647.963 50.427H653.704C654.549 50.427 655.235 49.7428 655.235 48.8989C655.235 48.0549 654.549 47.3708 653.704 47.3708H647.963Z" fill="white"/>
<path d="M635.715 125.303C635.715 124.459 636.401 123.775 637.246 123.775H638.777C639.623 123.775 640.308 124.459 640.308 125.303C640.308 126.147 639.623 126.831 638.777 126.831H637.246C636.401 126.831 635.715 126.147 635.715 125.303Z" fill="white"/>
<path d="M641.073 125.303C641.073 124.459 641.759 123.775 642.604 123.775H644.135C644.981 123.775 645.666 124.459 645.666 125.303C645.666 126.147 644.981 126.831 644.135 126.831H642.604C641.759 126.831 641.073 126.147 641.073 125.303Z" fill="white"/>
<path d="M647.963 123.775C647.117 123.775 646.432 124.459 646.432 125.303C646.432 126.147 647.117 126.831 647.963 126.831H653.704C654.549 126.831 655.235 126.147 655.235 125.303C655.235 124.459 654.549 123.775 653.704 123.775H647.963Z" fill="white"/>
<path fill-rule="evenodd" clip-rule="evenodd" d="M445.988 3.19298C446.443 2.7268 447.123 2.55754 447.745 2.75577L460.871 6.9428C461.538 7.15565 462.009 7.75068 462.063 8.4478C462.117 9.14492 461.743 9.80523 461.116 10.1179L455.693 12.8249L453.241 17.9636C452.941 18.5932 452.289 18.9794 451.591 18.941C450.894 18.9026 450.288 18.4474 450.059 17.7886L445.594 4.95738C445.38 4.34224 445.532 3.65917 445.988 3.19298ZM449.978 7.07765L451.936 12.7027L452.837 10.8126C453.002 10.4666 453.279 10.1855 453.622 10.0141L455.791 8.93186L449.978 7.07765Z" fill="white"/>
<path d="M410.987 93.6611C410.389 94.2578 409.42 94.2578 408.822 93.6611C408.224 93.0643 408.224 92.0968 408.822 91.5L409.363 90.9597C409.961 90.363 410.93 90.363 411.528 90.9597C412.126 91.5565 412.126 92.524 411.528 93.1208L410.987 93.6611Z" fill="white"/>
<path d="M414.505 90.1494C413.907 90.7461 412.938 90.7461 412.34 90.1494C411.742 89.5526 411.742 88.5851 412.34 87.9883L412.881 87.448C413.479 86.8513 414.448 86.8513 415.046 87.448C415.644 88.0448 415.644 89.0123 415.046 89.6091L414.505 90.1494Z" fill="white"/>
<path d="M415.858 86.6377C416.456 87.2344 417.425 87.2344 418.023 86.6377L418.565 86.0974C419.162 85.5006 419.162 84.5331 418.565 83.9363C417.967 83.3396 416.997 83.3396 416.399 83.9363L415.858 84.4766C415.26 85.0734 415.26 86.0409 415.858 86.6377Z" fill="white"/>
<path d="M421.541 83.126C420.944 83.7227 419.974 83.7227 419.376 83.126C418.779 82.5292 418.779 81.5617 419.376 80.9649L419.918 80.4246C420.516 79.8279 421.485 79.8279 422.083 80.4246C422.681 81.0214 422.681 81.9889 422.083 82.5857L421.541 83.126Z" fill="white"/>
<path d="M532.378 83.2809C533.224 83.2809 533.909 83.965 533.909 84.809C533.909 85.6529 533.224 86.3371 532.378 86.3371H522.81C521.964 86.3371 521.279 85.6529 521.279 84.809C521.279 83.965 521.964 83.2809 522.81 83.2809H532.378Z" fill="white"/>
<path d="M538.119 88.2472C538.965 88.2472 539.65 88.9313 539.65 89.7753C539.65 90.6192 538.965 91.3034 538.119 91.3034H525.872C525.026 91.3034 524.341 90.6192 524.341 89.7753C524.341 88.9313 525.026 88.2472 525.872 88.2472H538.119Z" fill="white"/>
<path fill-rule="evenodd" clip-rule="evenodd" d="M486.394 54.6859C486.425 54.6914 486.457 54.6969 486.49 54.7024C487.121 54.8081 488.006 54.9069 489.011 54.8801C491.035 54.8262 493.409 54.2723 495.284 52.4013C497.17 50.5183 497.828 48.024 497.979 45.8669C497.993 45.6573 498.003 45.4525 498.009 45.2536L493.066 50.1873C492.468 50.7841 491.498 50.7841 490.901 50.1873C490.303 49.5905 490.303 48.623 490.901 48.0263L495.843 43.0926C495.644 43.0982 495.439 43.1078 495.229 43.1224C493.068 43.2728 490.569 43.9292 488.682 45.8122C486.808 47.6832 486.253 50.0536 486.199 52.0733C486.172 53.0768 486.271 53.9596 486.377 54.5895C486.383 54.6224 486.388 54.6545 486.394 54.6859ZM499.272 41.8315L499.604 40.3397C500.184 40.4683 500.638 40.9209 500.766 41.5004L499.272 41.8315ZM499.272 41.8315C499.604 40.3397 499.602 40.3394 499.602 40.3394L499.601 40.3392L499.598 40.3385L499.59 40.3367L499.565 40.3315C499.546 40.3274 499.519 40.322 499.486 40.3154C499.42 40.3024 499.327 40.2851 499.211 40.2654C498.978 40.226 498.649 40.1769 498.243 40.1338C497.433 40.0479 496.303 39.9841 495.016 40.0737C492.466 40.2511 489.129 41.0448 486.517 43.6512C483.894 46.2697 483.205 49.5166 483.138 51.9918C483.105 53.2358 483.227 54.3199 483.357 55.095C483.423 55.484 483.491 55.799 483.544 56.0221C483.571 56.1337 483.594 56.2226 483.611 56.2866C483.62 56.3185 483.627 56.3443 483.632 56.3636L483.639 56.3876L483.642 56.3959L483.643 56.3991L483.643 56.4005C483.643 56.4005 483.643 56.4017 485.111 55.9663L483.643 56.4017C483.791 56.8967 484.179 57.2839 484.675 57.4311L485.111 55.9663C484.675 57.4311 484.676 57.4314 484.676 57.4314L484.677 57.4318L484.68 57.4328L484.689 57.4352L484.713 57.4421C484.732 57.4476 484.758 57.4547 484.79 57.4633C484.854 57.4806 484.943 57.5035 485.055 57.5302C485.279 57.5833 485.594 57.6513 485.984 57.7165C486.76 57.8465 487.846 57.9684 489.093 57.9352C491.573 57.8692 494.825 57.1809 497.449 54.5624C500.06 51.956 500.855 48.625 501.033 46.0794C501.123 44.7946 501.059 43.6672 500.973 42.859C500.93 42.4535 500.88 42.1248 500.841 41.8925C500.821 41.7763 500.804 41.6839 500.791 41.6178C500.784 41.5847 500.779 41.5582 500.775 41.5386L500.769 41.5142L500.768 41.506L500.767 41.5029L500.767 41.5016C500.767 41.5016 500.766 41.5004 499.272 41.8315Z" fill="white"/>
<g clip-path="url(#clip1_8612_40346)">
<path fill-rule="evenodd" clip-rule="evenodd" d="M443.585 123.393C443.585 122.549 444.27 121.865 445.116 121.865H452.77C453.616 121.865 454.301 122.549 454.301 123.393C454.301 124.237 453.616 124.921 452.77 124.921H445.116C444.27 124.921 443.585 124.237 443.585 123.393Z" fill="white"/>
<path fill-rule="evenodd" clip-rule="evenodd" d="M455.832 123.393C455.832 122.549 456.517 121.865 457.363 121.865H460.807C461.653 121.865 462.338 122.549 462.338 123.393C462.338 124.237 461.653 124.921 460.807 124.921H457.363C456.517 124.921 455.832 124.237 455.832 123.393Z" fill="white"/>
<path d="M447.412 126.831C446.566 126.831 445.881 127.516 445.881 128.36C445.881 129.203 446.566 129.888 447.412 129.888H448.177C449.023 129.888 449.708 129.203 449.708 128.36C449.708 127.516 449.023 126.831 448.177 126.831H447.412Z" fill="white"/>
<path d="M452.387 126.831C451.542 126.831 450.856 127.516 450.856 128.36C450.856 129.203 451.542 129.888 452.387 129.888H453.153C453.998 129.888 454.684 129.203 454.684 128.36C454.684 127.516 453.998 126.831 453.153 126.831H452.387Z" fill="white"/>
<path d="M455.832 128.36C455.832 127.516 456.517 126.831 457.363 126.831H458.128C458.974 126.831 459.659 127.516 459.659 128.36C459.659 129.203 458.974 129.888 458.128 129.888H457.363C456.517 129.888 455.832 129.203 455.832 128.36Z" fill="white"/>
<path d="M462.338 126.831C461.493 126.831 460.807 127.516 460.807 128.36C460.807 129.203 461.493 129.888 462.338 129.888H463.104C463.949 129.888 464.635 129.203 464.635 128.36C464.635 127.516 463.949 126.831 463.104 126.831H462.338Z" fill="white"/>
</g>
<path d="M611.669 17.2565C612.267 17.8533 613.236 17.8533 613.834 17.2565C614.432 16.6598 614.432 15.6922 613.834 15.0955L613.293 14.5552C612.695 13.9585 611.726 13.9585 611.128 14.5552C610.53 15.152 610.53 16.1195 611.128 16.7163L611.669 17.2565Z" fill="white"/>
<path d="M608.151 13.7448C608.749 14.3416 609.718 14.3416 610.316 13.7448C610.914 13.1481 610.914 12.1805 610.316 11.5838L609.775 11.0435C609.177 10.4468 608.207 10.4468 607.609 11.0435C607.012 11.6403 607.012 12.6078 607.609 13.2046L608.151 13.7448Z" fill="white"/>
<path d="M606.798 10.2331C606.2 10.8299 605.23 10.8299 604.633 10.2331L604.091 9.69286C603.493 9.0961 603.493 8.12857 604.091 7.53181C604.689 6.93505 605.658 6.93505 606.256 7.53181L606.798 8.07207C607.395 8.66883 607.395 9.63636 606.798 10.2331Z" fill="white"/>
<path d="M601.114 6.72142C601.712 7.31818 602.682 7.31817 603.279 6.72142C603.877 6.12466 603.877 5.15713 603.279 4.56037L602.738 4.02011C602.14 3.42336 601.171 3.42336 600.573 4.02011C599.975 4.61687 599.975 5.5844 600.573 6.18116L601.114 6.72142Z" fill="white"/>
<path d="M567.524 48.2004C566.926 48.7971 566.926 49.7647 567.524 50.3614C568.121 50.9582 569.091 50.9582 569.689 50.3614L570.23 49.8211C570.828 49.2244 570.828 48.2569 570.23 47.6601C569.632 47.0633 568.663 47.0633 568.065 47.6601L567.524 48.2004Z" fill="white"/>
<path fill-rule="evenodd" clip-rule="evenodd" d="M530.656 119.191C527.168 119.191 524.341 122.013 524.341 125.494C524.341 128.976 527.168 131.798 530.656 131.798C531.539 131.798 532.375 131.618 533.134 131.294C533.912 130.963 534.811 131.323 535.144 132.099C535.476 132.875 535.115 133.773 534.337 134.105C533.205 134.587 531.96 134.854 530.656 134.854C525.477 134.854 521.279 130.664 521.279 125.494C521.279 120.325 525.477 116.135 530.656 116.135C535.834 116.135 540.033 120.325 540.033 125.494C540.033 126.823 539.755 128.09 539.252 129.239C538.913 130.012 538.011 130.365 537.236 130.027C536.461 129.689 536.108 128.789 536.446 128.015C536.783 127.245 536.971 126.394 536.971 125.494C536.971 122.013 534.143 119.191 530.656 119.191Z" fill="white"/>
<path d="M668.63 3.6292C668.63 2.67976 667.859 1.9101 666.908 1.9101C665.957 1.9101 665.186 2.67976 665.186 3.6292V7.0674C665.186 8.01683 665.957 8.7865 666.908 8.7865C667.859 8.7865 668.63 8.01683 668.63 7.0674V3.6292Z" fill="white"/>
<path d="M668.63 14.7078C668.63 13.7584 667.859 12.9887 666.908 12.9887C665.957 12.9887 665.186 13.7584 665.186 14.7078V18.146C665.186 19.0955 665.957 19.8651 666.908 19.8651C667.859 19.8651 668.63 19.0955 668.63 18.146V14.7078Z" fill="white"/>
<path d="M669.013 10.8876C669.013 9.93819 669.784 9.16852 670.735 9.16852H674.18C675.131 9.16852 675.902 9.93819 675.902 10.8876C675.902 11.8371 675.131 12.6067 674.18 12.6067H670.735C669.784 12.6067 669.013 11.8371 669.013 10.8876Z" fill="white"/>
<path d="M659.636 9.16852C658.685 9.16852 657.914 9.93819 657.914 10.8876C657.914 11.8371 658.685 12.6067 659.636 12.6067H663.081C664.032 12.6067 664.803 11.8371 664.803 10.8876C664.803 9.93819 664.032 9.16852 663.081 9.16852H659.636Z" fill="white"/>
<path d="M936.542 80.0337C936.542 79.0842 935.77 78.3146 934.819 78.3146C933.868 78.3146 933.097 79.0842 933.097 80.0337V83.4719C933.097 84.4213 933.868 85.191 934.819 85.191C935.77 85.191 936.542 84.4213 936.542 83.4719V80.0337Z" fill="white"/>
<path d="M936.542 91.1123C936.542 90.1629 935.77 89.3932 934.819 89.3932C933.868 89.3932 933.097 90.1629 933.097 91.1123V94.5505C933.097 95.5 933.868 96.2696 934.819 96.2696C935.77 96.2696 936.542 95.5 936.542 94.5505V91.1123Z" fill="white"/>
<path d="M936.924 87.2921C936.924 86.3427 937.695 85.573 938.647 85.573H942.091C943.042 85.573 943.813 86.3427 943.813 87.2921C943.813 88.2415 943.042 89.0112 942.091 89.0112H938.647C937.695 89.0112 936.924 88.2415 936.924 87.2921Z" fill="white"/>
<path d="M927.547 85.573C926.596 85.573 925.825 86.3427 925.825 87.2921C925.825 88.2415 926.596 89.0112 927.547 89.0112H930.992C931.943 89.0112 932.714 88.2415 932.714 87.2921C932.714 86.3427 931.943 85.573 930.992 85.573H927.547Z" fill="white"/>
<path d="M695.038 87.1011C695.038 86.2571 695.724 85.573 696.569 85.573H698.1C698.946 85.573 699.631 86.2571 699.631 87.1011C699.631 87.945 698.946 88.6292 698.1 88.6292H696.569C695.724 88.6292 695.038 87.945 695.038 87.1011Z" fill="white"/>
<path d="M700.397 87.1011C700.397 86.2571 701.082 85.573 701.928 85.573H703.459C704.304 85.573 704.989 86.2571 704.989 87.1011C704.989 87.945 704.304 88.6292 703.459 88.6292H701.928C701.082 88.6292 700.397 87.945 700.397 87.1011Z" fill="white"/>
<path d="M707.286 85.573C706.44 85.573 705.755 86.2571 705.755 87.1011C705.755 87.945 706.44 88.6292 707.286 88.6292H713.027C713.872 88.6292 714.558 87.945 714.558 87.1011C714.558 86.2571 713.872 85.573 713.027 85.573H707.286Z" fill="white"/>
<path fill-rule="evenodd" clip-rule="evenodd" d="M702.017 42.1145C702.601 41.5035 703.57 41.4801 704.182 42.0623L713.06 50.5066C715.061 52.4095 713.712 55.7753 710.948 55.7753H699.255C696.549 55.7753 695.173 52.5301 697.057 50.5916L700.662 46.8801C701.251 46.2742 702.22 46.2594 702.827 46.8469C703.434 47.4344 703.449 48.4018 702.86 49.0076L699.255 52.7192L710.948 52.7192L702.07 44.2749C701.458 43.6927 701.434 42.7254 702.017 42.1145Z" fill="white"/>
<path d="M665.885 124.605C665.288 125.202 665.288 126.169 665.885 126.766C666.483 127.363 667.453 127.363 668.05 126.766L668.592 126.226C669.19 125.629 669.19 124.661 668.592 124.065C667.994 123.468 667.025 123.468 666.427 124.065L665.885 124.605Z" fill="white"/>
<path d="M857.251 9.99809C856.653 10.5948 856.653 11.5624 857.251 12.1591C857.848 12.7559 858.818 12.7559 859.416 12.1591L859.957 11.6189C860.555 11.0221 860.555 10.0546 859.957 9.45783C859.359 8.86107 858.39 8.86107 857.792 9.45783L857.251 9.99809Z" fill="white"/>
<g clip-path="url(#clip2_8612_40346)">
<path d="M963.715 48.8989C963.715 48.0549 964.401 47.3708 965.246 47.3708H966.777C967.623 47.3708 968.308 48.0549 968.308 48.8989C968.308 49.7428 967.623 50.427 966.777 50.427H965.246C964.401 50.427 963.715 49.7428 963.715 48.8989Z" fill="white"/>
<path d="M969.074 48.8989C969.074 48.0549 969.759 47.3708 970.604 47.3708H972.135C972.981 47.3708 973.666 48.0549 973.666 48.8989C973.666 49.7428 972.981 50.427 972.135 50.427H970.604C969.759 50.427 969.074 49.7428 969.074 48.8989Z" fill="white"/>
<path d="M975.963 47.3708C975.117 47.3708 974.432 48.0549 974.432 48.8989C974.432 49.7428 975.117 50.427 975.963 50.427H981.704C982.549 50.427 983.234 49.7428 983.234 48.8989C983.234 48.0549 982.549 47.3708 981.704 47.3708H975.963Z" fill="white"/>
</g>
<g clip-path="url(#clip3_8612_40346)">
<path d="M963.715 125.303C963.715 124.459 964.401 123.775 965.246 123.775H966.777C967.623 123.775 968.308 124.459 968.308 125.303C968.308 126.147 967.623 126.831 966.777 126.831H965.246C964.401 126.831 963.715 126.147 963.715 125.303Z" fill="white"/>
<path d="M969.074 125.303C969.074 124.459 969.759 123.775 970.604 123.775H972.135C972.981 123.775 973.666 124.459 973.666 125.303C973.666 126.147 972.981 126.831 972.135 126.831H970.604C969.759 126.831 969.074 126.147 969.074 125.303Z" fill="white"/>
<path d="M975.963 123.775C975.117 123.775 974.432 124.459 974.432 125.303C974.432 126.147 975.117 126.831 975.963 126.831H981.704C982.549 126.831 983.234 126.147 983.234 125.303C983.234 124.459 982.549 123.775 981.704 123.775H975.963Z" fill="white"/>
</g>
<path fill-rule="evenodd" clip-rule="evenodd" d="M773.988 3.19298C774.443 2.7268 775.123 2.55754 775.745 2.75577L788.87 6.9428C789.538 7.15565 790.009 7.75068 790.063 8.4478C790.117 9.14492 789.743 9.80523 789.116 10.1179L783.693 12.8249L781.241 17.9636C780.941 18.5932 780.289 18.9794 779.591 18.941C778.894 18.9026 778.288 18.4474 778.059 17.7886L773.594 4.95738C773.38 4.34224 773.532 3.65917 773.988 3.19298ZM777.978 7.07765L779.936 12.7027L780.837 10.8126C781.002 10.4666 781.279 10.1855 781.622 10.0141L783.791 8.93186L777.978 7.07765Z" fill="white"/>
<path d="M738.987 93.6611C738.389 94.2578 737.42 94.2578 736.822 93.6611C736.224 93.0643 736.224 92.0968 736.822 91.5L737.363 90.9597C737.961 90.363 738.93 90.363 739.528 90.9597C740.126 91.5565 740.126 92.524 739.528 93.1208L738.987 93.6611Z" fill="white"/>
<path d="M742.505 90.1494C741.907 90.7461 740.938 90.7461 740.34 90.1494C739.742 89.5526 739.742 88.5851 740.34 87.9883L740.881 87.448C741.479 86.8513 742.448 86.8513 743.046 87.448C743.644 88.0448 743.644 89.0123 743.046 89.6091L742.505 90.1494Z" fill="white"/>
<path d="M743.858 86.6377C744.456 87.2344 745.425 87.2344 746.023 86.6377L746.565 86.0974C747.162 85.5006 747.162 84.5331 746.565 83.9363C745.967 83.3396 744.997 83.3396 744.399 83.9363L743.858 84.4766C743.26 85.0734 743.26 86.0409 743.858 86.6377Z" fill="white"/>
<path d="M749.541 83.126C748.944 83.7227 747.974 83.7227 747.376 83.126C746.779 82.5292 746.779 81.5617 747.376 80.9649L747.918 80.4246C748.516 79.8279 749.485 79.8279 750.083 80.4246C750.681 81.0214 750.681 81.9889 750.083 82.5857L749.541 83.126Z" fill="white"/>
<path d="M860.378 83.2809C861.224 83.2809 861.909 83.965 861.909 84.809C861.909 85.6529 861.224 86.3371 860.378 86.3371H850.81C849.964 86.3371 849.279 85.6529 849.279 84.809C849.279 83.965 849.964 83.2809 850.81 83.2809H860.378Z" fill="white"/>
<path d="M866.119 88.2472C866.964 88.2472 867.65 88.9313 867.65 89.7753C867.65 90.6192 866.964 91.3034 866.119 91.3034H853.872C853.026 91.3034 852.341 90.6192 852.341 89.7753C852.341 88.9313 853.026 88.2472 853.872 88.2472H866.119Z" fill="white"/>
<path fill-rule="evenodd" clip-rule="evenodd" d="M814.394 54.6859C814.425 54.6914 814.457 54.6969 814.49 54.7024C815.121 54.8081 816.006 54.9069 817.011 54.8801C819.035 54.8262 821.409 54.2723 823.284 52.4013C825.17 50.5183 825.828 48.024 825.979 45.8669C825.993 45.6573 826.003 45.4525 826.009 45.2536L821.066 50.1873C820.468 50.7841 819.498 50.7841 818.901 50.1873C818.303 49.5905 818.303 48.623 818.901 48.0263L823.843 43.0926C823.644 43.0982 823.439 43.1078 823.229 43.1224C821.068 43.2728 818.569 43.9292 816.682 45.8122C814.808 47.6832 814.253 50.0536 814.199 52.0733C814.172 53.0768 814.271 53.9596 814.377 54.5895C814.383 54.6224 814.388 54.6545 814.394 54.6859ZM827.272 41.8315L827.604 40.3397C828.184 40.4683 828.638 40.9209 828.766 41.5004L827.272 41.8315ZM827.272 41.8315C827.604 40.3397 827.602 40.3394 827.602 40.3394L827.601 40.3392L827.598 40.3385L827.59 40.3367L827.565 40.3315C827.546 40.3274 827.519 40.322 827.486 40.3154C827.42 40.3024 827.327 40.2851 827.211 40.2654C826.978 40.226 826.649 40.1769 826.243 40.1338C825.433 40.0479 824.303 39.9841 823.016 40.0737C820.466 40.2511 817.129 41.0448 814.517 43.6512C811.894 46.2697 811.204 49.5166 811.138 51.9918C811.105 53.2358 811.227 54.3199 811.357 55.095C811.423 55.484 811.491 55.799 811.544 56.0221C811.571 56.1337 811.594 56.2226 811.611 56.2866C811.62 56.3185 811.627 56.3443 811.632 56.3636L811.639 56.3876L811.642 56.3959L811.643 56.3991L811.643 56.4005C811.643 56.4005 811.643 56.4017 813.111 55.9663L811.643 56.4017C811.791 56.8967 812.179 57.2839 812.675 57.4311L813.111 55.9663C812.675 57.4311 812.676 57.4314 812.676 57.4314L812.677 57.4318L812.68 57.4328L812.689 57.4352L812.713 57.4421C812.732 57.4476 812.758 57.4547 812.79 57.4633C812.854 57.4806 812.943 57.5035 813.055 57.5302C813.278 57.5833 813.594 57.6513 813.984 57.7165C814.76 57.8465 815.846 57.9684 817.093 57.9352C819.573 57.8692 822.826 57.1809 825.449 54.5624C828.06 51.956 828.855 48.625 829.033 46.0794C829.123 44.7946 829.059 43.6672 828.973 42.859C828.93 42.4535 828.88 42.1248 828.841 41.8925C828.821 41.7763 828.804 41.6839 828.791 41.6178C828.784 41.5847 828.779 41.5582 828.775 41.5386L828.77 41.5142L828.768 41.506L828.767 41.5029L828.767 41.5016C828.767 41.5016 828.766 41.5004 827.272 41.8315Z" fill="white"/>
<g clip-path="url(#clip4_8612_40346)">
<path fill-rule="evenodd" clip-rule="evenodd" d="M771.585 123.393C771.585 122.549 772.27 121.865 773.116 121.865H780.77C781.616 121.865 782.301 122.549 782.301 123.393C782.301 124.237 781.616 124.921 780.77 124.921H773.116C772.27 124.921 771.585 124.237 771.585 123.393Z" fill="white"/>
<path fill-rule="evenodd" clip-rule="evenodd" d="M783.832 123.393C783.832 122.549 784.517 121.865 785.363 121.865H788.807C789.653 121.865 790.338 122.549 790.338 123.393C790.338 124.237 789.653 124.921 788.807 124.921H785.363C784.517 124.921 783.832 124.237 783.832 123.393Z" fill="white"/>
<path d="M775.412 126.831C774.566 126.831 773.881 127.516 773.881 128.36C773.881 129.203 774.566 129.888 775.412 129.888H776.177C777.023 129.888 777.708 129.203 777.708 128.36C777.708 127.516 777.023 126.831 776.177 126.831H775.412Z" fill="white"/>
<path d="M780.387 126.831C779.542 126.831 778.856 127.516 778.856 128.36C778.856 129.203 779.542 129.888 780.387 129.888H781.153C781.998 129.888 782.684 129.203 782.684 128.36C782.684 127.516 781.998 126.831 781.153 126.831H780.387Z" fill="white"/>
<path d="M783.832 128.36C783.832 127.516 784.517 126.831 785.363 126.831H786.128C786.974 126.831 787.659 127.516 787.659 128.36C787.659 129.203 786.974 129.888 786.128 129.888H785.363C784.517 129.888 783.832 129.203 783.832 128.36Z" fill="white"/>
<path d="M790.338 126.831C789.493 126.831 788.807 127.516 788.807 128.36C788.807 129.203 789.493 129.888 790.338 129.888H791.104C791.949 129.888 792.635 129.203 792.635 128.36C792.635 127.516 791.949 126.831 791.104 126.831H790.338Z" fill="white"/>
</g>
<path d="M939.669 17.2565C940.267 17.8533 941.236 17.8533 941.834 17.2565C942.432 16.6598 942.432 15.6922 941.834 15.0955L941.293 14.5552C940.695 13.9585 939.726 13.9585 939.128 14.5552C938.53 15.152 938.53 16.1195 939.128 16.7163L939.669 17.2565Z" fill="white"/>
<path d="M936.151 13.7448C936.749 14.3416 937.718 14.3416 938.316 13.7448C938.914 13.1481 938.914 12.1805 938.316 11.5838L937.775 11.0435C937.177 10.4468 936.207 10.4468 935.61 11.0435C935.012 11.6403 935.012 12.6078 935.61 13.2046L936.151 13.7448Z" fill="white"/>
<path d="M934.798 10.2331C934.2 10.8299 933.23 10.8299 932.633 10.2331L932.091 9.69286C931.493 9.0961 931.493 8.12857 932.091 7.53181C932.689 6.93505 933.659 6.93505 934.256 7.53181L934.798 8.07207C935.396 8.66883 935.396 9.63636 934.798 10.2331Z" fill="white"/>
<path d="M929.114 6.72142C929.712 7.31817 930.682 7.31817 931.279 6.72142C931.877 6.12466 931.877 5.15713 931.279 4.56037L930.738 4.02011C930.14 3.42336 929.171 3.42336 928.573 4.02011C927.975 4.61687 927.975 5.5844 928.573 6.18116L929.114 6.72142Z" fill="white"/>
<path d="M895.524 48.2004C894.926 48.7971 894.926 49.7647 895.524 50.3614C896.121 50.9582 897.091 50.9582 897.689 50.3614L898.23 49.8211C898.828 49.2244 898.828 48.2569 898.23 47.6601C897.632 47.0633 896.663 47.0633 896.065 47.6601L895.524 48.2004Z" fill="white"/>
<path fill-rule="evenodd" clip-rule="evenodd" d="M858.656 119.191C855.168 119.191 852.341 122.013 852.341 125.494C852.341 128.976 855.168 131.798 858.656 131.798C859.539 131.798 860.375 131.618 861.134 131.294C861.912 130.963 862.812 131.323 863.144 132.099C863.476 132.875 863.115 133.773 862.337 134.105C861.205 134.587 859.96 134.854 858.656 134.854C853.477 134.854 849.279 130.664 849.279 125.494C849.279 120.325 853.477 116.135 858.656 116.135C863.835 116.135 868.033 120.325 868.033 125.494C868.033 126.823 867.755 128.09 867.252 129.239C866.913 130.012 866.011 130.365 865.236 130.027C864.461 129.689 864.108 128.789 864.446 128.015C864.783 127.245 864.971 126.394 864.971 125.494C864.971 122.013 862.144 119.191 858.656 119.191Z" fill="white"/>
</g>
</g>
<defs>
<clipPath id="clip0_8612_40346">
<rect width="21.4329" height="21.3933" fill="white" transform="translate(115.202 114.607)"/>
</clipPath>
<clipPath id="clip1_8612_40346">
<rect width="21.4329" height="21.3933" fill="white" transform="translate(443.202 114.607)"/>
</clipPath>
<clipPath id="clip2_8612_40346">
<rect width="21.4328" height="21.3933" fill="white" transform="translate(962.567 38.2023)"/>
</clipPath>
<clipPath id="clip3_8612_40346">
<rect width="21.4328" height="21.3933" fill="white" transform="translate(962.567 114.607)"/>
</clipPath>
<clipPath id="clip4_8612_40346">
<rect width="21.4329" height="21.3933" fill="white" transform="translate(771.202 114.607)"/>
</clipPath>
</defs>
</svg>
