
<svg width="616" height="64" viewBox="0 0 616 64" fill="none" xmlns="http://www.w3.org/2000/svg">
<g clip-path="url(#clip0_1021_191183)">
<path d="M235.966 5.20323C237.299 5.86196 239.048 5.53089 239.872 4.46376C240.695 3.39663 240.281 1.99754 238.947 1.3388C237.614 0.68007 235.865 1.01114 235.041 2.07827C234.218 3.14541 234.632 4.5445 235.966 5.20323Z" fill="url(#paint0_radial_1021_191183)" fill-opacity="0.5"/>
<path d="M230.483 12.8717L248.9 9.80166L248.252 6.38358L229.835 9.45359L230.483 12.8717Z" fill="url(#paint1_radial_1021_191183)" fill-opacity="0.5"/>
<path d="M243.622 17.1417C242.798 18.2088 241.05 18.5399 239.716 17.8811C238.382 17.2224 237.968 15.8233 238.791 14.7562C239.615 13.689 241.364 13.358 242.697 14.0167C244.031 14.6754 244.445 16.0745 243.622 17.1417Z" fill="url(#paint2_radial_1021_191183)" fill-opacity="0.5"/>
<path d="M128.679 7.99666L128.803 12.0418L138.067 6.18571L147.687 12.0276L147.564 7.98166L137.942 2.14042L128.679 7.99666Z" fill="url(#paint3_radial_1021_191183)" fill-opacity="0.5"/>
<path d="M263.87 9.44029L264.911 13.4L272.689 6.29376L283.477 10.6386L282.436 6.67809L271.647 2.33403L263.87 9.44029Z" fill="url(#paint4_radial_1021_191183)" fill-opacity="0.5"/>
<path fill-rule="evenodd" clip-rule="evenodd" d="M163.491 7.20041C163.619 4.89412 166.056 3.13247 168.981 3.23565L177.464 3.53588C180.406 3.63906 182.569 5.52333 182.439 7.86937L181.83 18.8325L162.884 18.1635L163.491 7.20041ZM177.845 15.3514L178.216 8.66005C178.265 7.77542 177.224 6.86711 176.117 6.82821L169.688 6.60155C168.63 6.56349 167.681 7.33733 167.628 8.28624L167.257 14.9776L177.845 15.3514Z" fill="url(#paint5_radial_1021_191183)" fill-opacity="0.5"/>
<path fill-rule="evenodd" clip-rule="evenodd" d="M457.589 7.20041C457.718 4.89412 460.154 3.13247 463.08 3.23565L471.562 3.53588C474.505 3.63906 476.668 5.52333 476.537 7.86937L475.929 18.8325L456.982 18.1635L457.589 7.20041ZM471.944 15.3514L472.315 8.66005C472.364 7.77542 471.322 6.86711 470.215 6.82821L463.787 6.60155C462.728 6.56349 461.779 7.33733 461.726 8.28624L461.355 14.9776L471.944 15.3514Z" fill="url(#paint6_radial_1021_191183)" fill-opacity="0.5"/>
<path fill-rule="evenodd" clip-rule="evenodd" d="M612.571 13.5885C612.924 15.8797 610.888 17.941 607.982 18.2286L599.555 19.0613C596.632 19.3511 594.107 17.7809 593.748 15.4502L592.069 4.55876L610.891 2.69723L612.571 13.5885ZM596.722 7.46108L597.747 14.1086C597.883 14.9874 599.099 15.7445 600.198 15.6356L606.585 15.0036C607.636 14.9004 608.411 14.011 608.266 13.0683L607.241 6.42074L596.722 7.46108Z" fill="url(#paint7_radial_1021_191183)" fill-opacity="0.5"/>
<path d="M559.009 13.4L557.968 9.44029L565.746 2.33403L576.534 6.67809L577.575 10.6386L566.788 6.29376L559.009 13.4Z" fill="url(#paint8_radial_1021_191183)" fill-opacity="0.5"/>
<path fill-rule="evenodd" clip-rule="evenodd" d="M210.063 11.0259C209.979 11.8487 208.794 12.5981 207.673 12.5366L199.19 12.0728L198.877 15.1714L208.549 15.7C211.522 15.8625 213.98 14.3068 214.201 12.1209L214.839 5.82182L214.835 5.82104L214.917 5.02192L211.095 4.81287L210.699 4.79157L210.694 4.79078L210.626 5.46526L210.611 5.60568L210.063 11.0259ZM211.027 5.49933L211.028 5.48119L211.038 5.50012L211.027 5.49933Z" fill="url(#paint9_radial_1021_191183)" fill-opacity="0.5"/>
<path fill-rule="evenodd" clip-rule="evenodd" d="M501.772 12.5366C502.892 12.5981 504.078 11.8487 504.161 11.0259L504.709 5.60568L504.724 5.46526L504.792 4.79078L504.797 4.79157L505.194 4.81287L509.015 5.02192L508.933 5.82104L508.938 5.82182L508.3 12.1209C508.079 14.3068 505.62 15.8625 502.647 15.7L492.975 15.1714L493.289 12.0728L501.772 12.5366ZM505.126 5.48119L505.125 5.49933L505.136 5.50012L505.126 5.48119Z" fill="url(#paint10_radial_1021_191183)" fill-opacity="0.5"/>
<path d="M422.901 12.0418L422.778 7.99666L432.041 2.14042L441.662 7.98166L441.785 12.0276L432.165 6.18571L422.901 12.0418Z" fill="url(#paint11_radial_1021_191183)" fill-opacity="0.5"/>
<path d="M100.553 7.29266C102.121 7.29266 103.391 6.27603 103.391 5.02196C103.391 3.76788 102.121 2.75126 100.553 2.75126C98.9854 2.75126 97.7146 3.76788 97.7146 5.02196C97.7146 6.27603 98.9854 7.29266 100.553 7.29266Z" fill="url(#paint12_radial_1021_191183)" fill-opacity="0.5"/>
<path d="M100.922 16.1219L114.579 5.77011L111.783 3.13376L98.1268 13.4855L100.922 16.1219Z" fill="url(#paint13_radial_1021_191183)" fill-opacity="0.5"/>
<path d="M114.906 14.2339C114.906 15.488 113.636 16.5046 112.068 16.5046C110.5 16.5046 109.23 15.488 109.23 14.2339C109.23 12.9799 110.5 11.9632 112.068 11.9632C113.636 11.9632 114.906 12.9799 114.906 14.2339Z" fill="url(#paint14_radial_1021_191183)" fill-opacity="0.5"/>
<path d="M397.49 5.02196C397.49 6.27603 396.219 7.29266 394.651 7.29266C393.084 7.29266 391.813 6.27603 391.813 5.02196C391.813 3.76788 393.084 2.75126 394.651 2.75126C396.219 2.75126 397.49 3.76788 397.49 5.02196Z" fill="url(#paint15_radial_1021_191183)" fill-opacity="0.5"/>
<path d="M408.677 5.77011L395.021 16.1219L392.225 13.4855L405.881 3.13376L408.677 5.77011Z" fill="url(#paint16_radial_1021_191183)" fill-opacity="0.5"/>
<path d="M406.166 16.5046C407.734 16.5046 409.005 15.488 409.005 14.2339C409.005 12.9799 407.734 11.9632 406.166 11.9632C404.599 11.9632 403.328 12.9799 403.328 14.2339C403.328 15.488 404.599 16.5046 406.166 16.5046Z" fill="url(#paint17_radial_1021_191183)" fill-opacity="0.5"/>
<path d="M533.97 4.46376C533.147 5.53089 531.398 5.86196 530.064 5.20323C528.73 4.5445 528.316 3.14541 529.14 2.07827C529.963 1.01114 531.712 0.68007 533.046 1.3388C534.38 1.99754 534.793 3.39663 533.97 4.46376Z" fill="url(#paint18_radial_1021_191183)" fill-opacity="0.5"/>
<path d="M542.998 9.80166L524.581 12.8717L523.933 9.45359L542.351 6.38358L542.998 9.80166Z" fill="url(#paint19_radial_1021_191183)" fill-opacity="0.5"/>
<path d="M533.814 17.8811C535.148 18.5399 536.897 18.2088 537.72 17.1417C538.544 16.0745 538.13 14.6754 536.796 14.0167C535.462 13.358 533.713 13.689 532.89 14.7562C532.066 15.8233 532.48 17.2224 533.814 17.8811Z" fill="url(#paint20_radial_1021_191183)" fill-opacity="0.5"/>
<path d="M70.3605 6.57974C71.3184 6.17202 72.3919 5.96959 73.4766 5.99214C74.5613 6.01469 75.6202 6.26146 76.5504 6.70844C77.4805 7.15542 78.2502 7.78738 78.7846 8.54286C79.3189 9.29834 79.5998 10.1516 79.5998 11.0197H83.8573C83.8573 9.56372 83.3863 8.13258 82.49 6.86545C81.5938 5.59832 80.3028 4.53835 78.7427 3.78866C77.1826 3.03896 75.4065 2.62507 73.5872 2.58724C71.7679 2.54941 69.9674 2.88894 68.3607 3.57279C66.754 4.25665 65.396 5.26154 64.4186 6.48971C63.4413 7.71789 62.878 9.12752 62.7834 10.5815C62.6889 12.0354 63.0664 13.4842 63.8792 14.7869C64.6919 16.0896 65.9123 17.2017 67.4217 18.0153L69.8006 15.1905C68.9008 14.7055 68.1731 14.0424 67.6885 13.2657C67.2039 12.4891 66.9789 11.6253 67.0352 10.7584C67.0916 9.89154 67.4275 9.0511 68.0102 8.31884C68.5929 7.58659 69.4026 6.98746 70.3605 6.57974Z" fill="url(#paint21_radial_1021_191183)" fill-opacity="0.5"/>
<path d="M367.575 5.99214C366.49 5.96959 365.417 6.17202 364.459 6.57974C363.501 6.98746 362.691 7.58659 362.108 8.31884C361.526 9.0511 361.19 9.89154 361.134 10.7584C361.077 11.6253 361.302 12.4891 361.787 13.2657C362.271 14.0424 362.999 14.7055 363.899 15.1905L361.52 18.0153C360.011 17.2017 358.79 16.0896 357.977 14.7869C357.165 13.4842 356.787 12.0354 356.882 10.5815C356.976 9.12752 357.54 7.71789 358.517 6.48971C359.494 5.26154 360.852 4.25665 362.459 3.57279C364.066 2.88894 365.866 2.54941 367.685 2.58724C369.505 2.62507 371.281 3.03896 372.841 3.78866C374.401 4.53835 375.692 5.59832 376.588 6.86545C377.485 8.13258 377.956 9.56372 377.956 11.0197H373.698C373.698 10.1516 373.417 9.29834 372.883 8.54286C372.348 7.78738 371.579 7.15542 370.649 6.70844C369.719 6.26146 368.66 6.01469 367.575 5.99214Z" fill="url(#paint22_radial_1021_191183)" fill-opacity="0.5"/>
<path fill-rule="evenodd" clip-rule="evenodd" d="M20.7496 1.0986L0.486379 4.73363V14.5225L20.7496 18.1575V1.0986ZM4.74394 11.7956V7.4605L16.492 5.353V13.9031L4.74394 11.7956Z" fill="url(#paint23_radial_1021_191183)" fill-opacity="0.5"/>
<path d="M48.1926 14.0815L37.5063 11.1834L38.8732 7.95769L49.5595 10.8558L48.1926 14.0815Z" fill="url(#paint24_radial_1021_191183)" fill-opacity="0.5"/>
<path d="M331.605 11.1834L342.291 14.0815L343.658 10.8558L332.972 7.95769L331.605 11.1834Z" fill="url(#paint25_radial_1021_191183)" fill-opacity="0.5"/>
<path fill-rule="evenodd" clip-rule="evenodd" d="M86.0046 28.7021C86.1329 26.3958 88.5695 24.6342 91.4949 24.7374L99.9774 25.0376C102.92 25.1408 105.083 27.0251 104.952 29.3711L104.344 40.3342L85.397 39.6653L86.0046 28.7021ZM100.359 36.8531L100.73 30.1618C100.779 29.2771 99.7374 28.3688 98.6305 28.3299L92.2018 28.1033C91.1436 28.0652 90.1946 28.8391 90.1416 29.788L89.7705 36.4793L100.359 36.8531Z" fill="url(#paint26_radial_1021_191183)" fill-opacity="0.5"/>
<path fill-rule="evenodd" clip-rule="evenodd" d="M536.679 35.0902C537.032 37.3814 534.995 39.4428 532.089 39.7303L523.663 40.563C520.74 40.8528 518.215 39.2826 517.856 36.9519L516.177 26.0605L534.998 24.1989L536.679 35.0902ZM520.83 28.9628L521.855 35.6103C521.991 36.4891 523.207 37.2462 524.306 37.1373L530.693 36.5054C531.744 36.4021 532.519 35.5127 532.374 34.57L531.348 27.9225L520.83 28.9628Z" fill="url(#paint27_radial_1021_191183)" fill-opacity="0.5"/>
<path d="M550.011 34.9018L548.97 30.942L556.747 23.8358L567.536 28.1798L568.577 32.1404L557.789 27.7955L550.011 34.9018Z" fill="url(#paint28_radial_1021_191183)" fill-opacity="0.5"/>
<path fill-rule="evenodd" clip-rule="evenodd" d="M132.577 32.5277C132.493 33.3505 131.307 34.0999 130.187 34.0383L121.704 33.5745L121.39 36.6731L131.062 37.2017C134.035 37.3642 136.494 35.8085 136.715 33.6226L137.353 27.3236L137.349 27.3228L137.43 26.5236L133.609 26.3146L133.212 26.2933L133.207 26.2925L133.139 26.967L133.124 27.1074L132.577 32.5277ZM133.54 27.0011L133.541 26.9829L133.551 27.0018L133.54 27.0011Z" fill="url(#paint29_radial_1021_191183)" fill-opacity="0.5"/>
<path fill-rule="evenodd" clip-rule="evenodd" d="M455.605 34.0383C456.725 34.0999 457.911 33.3505 457.995 32.5277L458.543 27.1074L458.558 26.967L458.625 26.2925L458.631 26.2933L459.027 26.3146L462.849 26.5236L462.767 27.3228L462.771 27.3236L462.133 33.6226C461.912 35.8085 459.454 37.3642 456.481 37.2017L446.809 36.6731L447.122 33.5745L455.605 34.0383ZM458.96 26.9829L458.959 27.0011L458.969 27.0018L458.96 26.9829Z" fill="url(#paint30_radial_1021_191183)" fill-opacity="0.5"/>
<path d="M52.0534 31.9706L52.1768 36.0158L61.441 30.1597L71.061 36.0016L70.9378 31.9556L61.3165 26.1144L52.0534 31.9706Z" fill="url(#paint31_radial_1021_191183)" fill-opacity="0.5"/>
<path d="M23.0664 28.7944C24.634 28.7944 25.9048 27.7778 25.9048 26.5237C25.9048 25.2696 24.634 24.253 23.0664 24.253C21.4988 24.253 20.228 25.2696 20.228 26.5237C20.228 27.7778 21.4988 28.7944 23.0664 28.7944Z" fill="url(#paint32_radial_1021_191183)" fill-opacity="0.5"/>
<path d="M23.4358 37.6236L37.092 27.2718L34.2965 24.6355L20.6402 34.9872L23.4358 37.6236Z" fill="url(#paint33_radial_1021_191183)" fill-opacity="0.5"/>
<path d="M37.4198 35.7357C37.4198 36.9897 36.1491 38.0064 34.5815 38.0064C33.0139 38.0064 31.7431 36.9897 31.7431 35.7357C31.7431 34.4816 33.0139 33.465 34.5815 33.465C36.1491 33.465 37.4198 34.4816 37.4198 35.7357Z" fill="url(#paint34_radial_1021_191183)" fill-opacity="0.5"/>
<path d="M158.479 28.9848C159.813 29.6436 161.562 29.3125 162.385 28.2454C163.209 27.1782 162.795 25.7791 161.461 25.1204C160.127 24.4617 158.378 24.7928 157.555 25.8599C156.731 26.927 157.145 28.3261 158.479 28.9848Z" fill="url(#paint35_radial_1021_191183)" fill-opacity="0.5"/>
<path d="M152.996 36.6533L171.414 33.5833L170.766 30.1652L152.348 33.2352L152.996 36.6533Z" fill="url(#paint36_radial_1021_191183)" fill-opacity="0.5"/>
<path d="M166.135 40.9233C165.312 41.9904 163.563 42.3215 162.229 41.6627C160.895 41.004 160.481 39.6049 161.305 38.5378C162.128 37.4706 163.877 37.1396 165.211 37.7983C166.545 38.457 166.959 39.8561 166.135 40.9233Z" fill="url(#paint37_radial_1021_191183)" fill-opacity="0.5"/>
<path d="M489.804 28.2454C488.98 29.3125 487.231 29.6436 485.897 28.9848C484.563 28.3261 484.15 26.927 484.973 25.8599C485.796 24.7928 487.545 24.4617 488.879 25.1204C490.213 25.7791 490.627 27.1782 489.804 28.2454Z" fill="url(#paint38_radial_1021_191183)" fill-opacity="0.5"/>
<path d="M498.832 33.5833L480.415 36.6533L479.767 33.2352L498.184 30.1652L498.832 33.5833Z" fill="url(#paint39_radial_1021_191183)" fill-opacity="0.5"/>
<path d="M489.647 41.6627C490.981 42.3215 492.73 41.9904 493.554 40.9233C494.377 39.8561 493.963 38.457 492.629 37.7983C491.295 37.1396 489.546 37.4706 488.723 38.5378C487.9 39.6049 488.313 41.004 489.647 41.6627Z" fill="url(#paint40_radial_1021_191183)" fill-opacity="0.5"/>
<path d="M-8.42918 28.8199C-7.54885 28.1721 -6.45579 27.7387 -5.27832 27.5705L-6.02668 24.2174C-8.0016 24.4995 -9.83493 25.2265 -11.3115 26.313C-12.788 27.3995 -13.8464 28.8004 -14.3625 30.3514C-14.8786 31.9023 -14.831 33.5388 -14.2251 35.0687C-13.6193 36.5987 -12.4804 37.9587 -10.9422 38.989C-9.40403 40.0193 -7.53035 40.6772 -5.54115 40.8854C-3.55195 41.0936 -1.52979 40.8434 0.287945 40.1644C2.10568 39.4853 3.64354 38.4055 4.72099 37.0517C5.79843 35.6979 6.37075 34.1263 6.37075 32.5214H2.11319C2.11319 33.4782 1.77196 34.4153 1.12957 35.2224C0.487185 36.0296 -0.429704 36.6734 -1.51346 37.0782C-2.59722 37.4831 -3.80286 37.6322 -4.98884 37.5081C-6.17483 37.384 -7.29194 36.9917 -8.20903 36.3775C-9.12612 35.7632 -9.80512 34.9524 -10.1663 34.0402C-10.5275 33.128 -10.556 32.1522 -10.2483 31.2276C-9.94056 30.3029 -9.3095 29.4677 -8.42918 28.8199Z" fill="url(#paint41_radial_1021_191183)" fill-opacity="0.5"/>
<path d="M587.612 28.8199C588.492 28.1721 589.585 27.7387 590.762 27.5705L590.014 24.2174C588.039 24.4995 586.206 25.2265 584.729 26.313C583.253 27.3995 582.194 28.8004 581.678 30.3514C581.162 31.9023 581.21 33.5388 581.816 35.0687C582.421 36.5987 583.56 37.9587 585.099 38.989C586.637 40.0193 588.51 40.6772 590.5 40.8854C592.489 41.0936 594.511 40.8434 596.329 40.1644C598.147 39.4853 599.684 38.4055 600.762 37.0517C601.839 35.6979 602.412 34.1263 602.412 32.5214H598.154C598.154 33.4782 597.813 34.4153 597.17 35.2224C596.528 36.0296 595.611 36.6734 594.527 37.0782C593.444 37.4831 592.238 37.6322 591.052 37.5081C589.866 37.384 588.749 36.9917 587.832 36.3775C586.915 35.7632 586.236 34.9524 585.874 34.0402C585.513 33.128 585.485 32.1522 585.793 31.2276C586.1 30.3029 586.731 29.4677 587.612 28.8199Z" fill="url(#paint42_radial_1021_191183)" fill-opacity="0.5"/>
<path d="M626.596 28.8578L616.703 33.1985L618.75 36.1849L628.644 31.8442L626.596 28.8578Z" fill="url(#paint43_radial_1021_191183)" fill-opacity="0.5"/>
<path fill-rule="evenodd" clip-rule="evenodd" d="M151.907 62.3402C150.134 64.1615 146.872 64.4698 144.561 63.031L137.861 58.8583C135.537 57.4116 135.136 54.8735 136.94 53.0208L145.368 44.3627L160.335 53.6817L151.907 62.3402ZM146.099 49.0466L140.955 54.3313C140.275 55.0301 140.467 56.2529 141.342 56.7972L146.42 59.9589C147.255 60.4799 148.589 60.2884 149.319 59.5391L154.463 54.2545L146.099 49.0466Z" fill="url(#paint44_radial_1021_191183)" fill-opacity="0.5"/>
<path fill-rule="evenodd" clip-rule="evenodd" d="M447.697 62.3402C445.924 64.1615 442.663 64.4698 440.352 63.031L433.652 58.8583C431.327 57.4116 430.927 54.8735 432.73 53.0208L441.159 44.3627L456.125 53.6817L447.697 62.3402ZM441.89 49.0466L436.746 54.3313C436.066 55.0301 436.258 56.2529 437.132 56.7972L442.211 59.9589C443.046 60.48 444.38 60.2884 445.11 59.5391L450.254 54.2545L441.89 49.0466Z" fill="url(#paint45_radial_1021_191183)" fill-opacity="0.5"/>
<path d="M55.9933 56.5597L54.9524 52.6L47.1739 59.7062L36.3863 55.3614L37.4272 59.3219L48.2159 63.666L55.9933 56.5597Z" fill="url(#paint46_radial_1021_191183)" fill-opacity="0.5"/>
<path d="M350.743 52.6L351.784 56.5597L344.006 63.666L333.218 59.3219L332.177 55.3614L342.964 59.7062L350.743 52.6Z" fill="url(#paint47_radial_1021_191183)" fill-opacity="0.5"/>
<path fill-rule="evenodd" clip-rule="evenodd" d="M109.8 54.9741C109.884 54.1513 111.07 53.4019 112.19 53.4634L120.673 53.9272L120.986 50.8286L111.314 50.3001C108.341 50.1375 105.883 51.6932 105.662 53.8791L105.024 60.1782L105.028 60.179L104.946 60.9781L108.768 61.1871L109.164 61.2084L109.17 61.2092L109.237 60.5347L109.252 60.3943L109.8 54.9741ZM108.836 60.5007L108.835 60.5188L108.826 60.4999L108.836 60.5007Z" fill="url(#paint48_radial_1021_191183)" fill-opacity="0.5"/>
<path fill-rule="evenodd" clip-rule="evenodd" d="M407.98 53.4634C406.86 53.4019 405.674 54.1513 405.591 54.9741L405.043 60.3943L405.028 60.5347L404.96 61.2092L404.955 61.2084L404.558 61.1871L400.737 60.9781L400.819 60.179L400.814 60.1782L401.452 53.8791C401.673 51.6932 404.132 50.1376 407.105 50.3001L416.777 50.8286L416.463 53.9272L407.98 53.4634ZM404.626 60.5188L404.627 60.5007L404.616 60.4999L404.626 60.5188Z" fill="url(#paint49_radial_1021_191183)" fill-opacity="0.5"/>
<path d="M191.184 58.0033L191.06 53.9582L181.796 59.8143L172.176 53.9724L172.299 58.0183L181.921 63.8596L191.184 58.0033Z" fill="url(#paint50_radial_1021_191183)" fill-opacity="0.5"/>
<path d="M486.851 53.9582L486.974 58.0033L477.711 63.8596L468.09 58.0183L467.967 53.9724L477.587 59.8143L486.851 53.9582Z" fill="url(#paint51_radial_1021_191183)" fill-opacity="0.5"/>
<path d="M219.31 58.7073C217.743 58.7073 216.472 59.724 216.472 60.978C216.472 62.2321 217.743 63.2487 219.31 63.2487C220.878 63.2487 222.149 62.2321 222.149 60.978C222.149 59.724 220.878 58.7073 219.31 58.7073Z" fill="url(#paint52_radial_1021_191183)" fill-opacity="0.5"/>
<path d="M218.941 49.8781L205.285 60.2299L208.08 62.8662L221.736 52.5145L218.941 49.8781Z" fill="url(#paint53_radial_1021_191183)" fill-opacity="0.5"/>
<path d="M204.957 51.7661C204.957 50.512 206.228 49.4954 207.795 49.4954C209.363 49.4954 210.634 50.512 210.634 51.7661C210.634 53.0201 209.363 54.0368 207.795 54.0368C206.228 54.0368 204.957 53.0201 204.957 51.7661Z" fill="url(#paint54_radial_1021_191183)" fill-opacity="0.5"/>
<path d="M512.262 60.978C512.262 59.724 513.533 58.7074 515.101 58.7074C516.668 58.7074 517.939 59.724 517.939 60.978C517.939 62.2321 516.668 63.2487 515.101 63.2487C513.533 63.2487 512.262 62.2321 512.262 60.978Z" fill="url(#paint55_radial_1021_191183)" fill-opacity="0.5"/>
<path d="M501.075 60.2299L514.731 49.8782L517.527 52.5145L503.871 62.8662L501.075 60.2299Z" fill="url(#paint56_radial_1021_191183)" fill-opacity="0.5"/>
<path d="M503.586 49.4954C502.018 49.4954 500.747 50.512 500.747 51.7661C500.747 53.0202 502.018 54.0368 503.586 54.0368C505.153 54.0368 506.424 53.0202 506.424 51.7661C506.424 50.512 505.153 49.4954 503.586 49.4954Z" fill="url(#paint57_radial_1021_191183)" fill-opacity="0.5"/>
<path d="M83.8976 60.7968C82.5637 60.138 80.8148 60.4691 79.9914 61.5362C79.168 62.6034 79.5818 64.0025 80.9158 64.6612C82.2497 65.3199 83.9985 64.9889 84.822 63.9217C85.6454 62.8546 85.2315 61.4555 83.8976 60.7968Z" fill="url(#paint58_radial_1021_191183)" fill-opacity="0.5"/>
<path d="M89.3805 53.1283L70.9631 56.1983L71.6108 59.6164L90.0283 56.5464L89.3805 53.1283Z" fill="url(#paint59_radial_1021_191183)" fill-opacity="0.5"/>
<path d="M76.2414 48.8584C77.0648 47.7912 78.8137 47.4601 80.1476 48.1189C81.4815 48.7776 81.8954 50.1767 81.0719 51.2438C80.2485 52.311 78.4997 52.642 77.1657 51.9833C75.8318 51.3246 75.418 49.9255 76.2414 48.8584Z" fill="url(#paint60_radial_1021_191183)" fill-opacity="0.5"/>
<path d="M375.782 61.5363C376.605 60.4691 378.354 60.138 379.688 60.7968C381.022 61.4555 381.436 62.8546 380.612 63.9217C379.789 64.9889 378.04 65.3199 376.706 64.6612C375.372 64.0025 374.958 62.6034 375.782 61.5363Z" fill="url(#paint61_radial_1021_191183)" fill-opacity="0.5"/>
<path d="M366.754 56.1983L385.171 53.1283L385.819 56.5464L367.401 59.6164L366.754 56.1983Z" fill="url(#paint62_radial_1021_191183)" fill-opacity="0.5"/>
<path d="M375.938 48.1189C374.604 47.4601 372.855 47.7912 372.032 48.8584C371.208 49.9255 371.622 51.3246 372.956 51.9833C374.29 52.642 376.039 52.311 376.862 51.2438C377.686 50.1767 377.272 48.7776 375.938 48.1189Z" fill="url(#paint63_radial_1021_191183)" fill-opacity="0.5"/>
<path d="M243.89 50.4235C244.974 50.0186 246.179 49.8695 247.365 49.9936C248.551 50.1178 249.668 50.51 250.586 51.1243C251.503 51.7385 252.182 52.5494 252.543 53.4616C252.904 54.3738 252.932 55.3495 252.625 56.2741C252.317 57.1988 251.686 58.0341 250.806 58.6819C249.925 59.3296 248.832 59.7631 247.655 59.9313L248.403 63.2843C250.378 63.0022 252.211 62.2752 253.688 61.1887C255.164 60.1022 256.223 58.7013 256.739 57.1504C257.255 55.5995 257.207 53.963 256.602 52.433C255.996 50.903 254.857 49.543 253.319 48.5127C251.781 47.4824 249.907 46.8246 247.918 46.6164C245.928 46.4082 243.906 46.6583 242.089 47.3373C240.271 48.0164 238.733 49.0962 237.656 50.45C236.578 51.8038 236.006 53.3754 236.006 54.9803H240.263C240.263 54.0235 240.605 53.0865 241.247 52.2793C241.889 51.4721 242.806 50.8283 243.89 50.4235Z" fill="url(#paint64_radial_1021_191183)" fill-opacity="0.5"/>
<path d="M543.156 49.9936C541.97 49.8695 540.764 50.0186 539.68 50.4235C538.597 50.8284 537.68 51.4721 537.037 52.2793C536.395 53.0865 536.054 54.0235 536.054 54.9804H531.796C531.796 53.3754 532.369 51.8038 533.446 50.45C534.523 49.0962 536.061 48.0164 537.879 47.3373C539.697 46.6583 541.719 46.4082 543.708 46.6164C545.697 46.8246 547.571 47.4824 549.109 48.5127C550.647 49.543 551.786 50.903 552.392 52.433C552.998 53.963 553.046 55.5995 552.529 57.1504C552.013 58.7013 550.955 60.1022 549.478 61.1887C548.002 62.2752 546.169 63.0022 544.194 63.2843L543.445 59.9313C544.623 59.7631 545.716 59.3296 546.596 58.6819C547.477 58.0341 548.108 57.1988 548.415 56.2741C548.723 55.3495 548.695 54.3738 548.333 53.4616C547.972 52.5494 547.293 51.7386 546.376 51.1243C545.459 50.51 544.342 50.1178 543.156 49.9936Z" fill="url(#paint65_radial_1021_191183)" fill-opacity="0.5"/>
<path fill-rule="evenodd" clip-rule="evenodd" d="M300.848 46.7124L297.615 63.5741L318.332 62.439L320.188 52.7634L300.848 46.7124ZM302.629 59.8853L304.25 51.434L315.463 54.9422L314.641 59.2272L302.629 59.8853Z" fill="url(#paint66_radial_1021_191183)" fill-opacity="0.5"/>
<path fill-rule="evenodd" clip-rule="evenodd" d="M596.638 46.7124L615.978 52.7634L614.123 62.439L593.405 63.5741L596.638 46.7124ZM600.04 51.4341L598.42 59.8853L610.431 59.2272L611.253 54.9422L600.04 51.4341Z" fill="url(#paint67_radial_1021_191183)" fill-opacity="0.5"/>
<path d="M282.357 54.8166L271.671 51.9185L270.304 55.1442L280.99 58.0423L282.357 54.8166Z" fill="url(#paint68_radial_1021_191183)" fill-opacity="0.5"/>
<path d="M567.461 51.9185L578.147 54.8166L576.78 58.0423L566.094 55.1442L567.461 51.9185Z" fill="url(#paint69_radial_1021_191183)" fill-opacity="0.5"/>
<path d="M15.5137 54.8166L4.82748 51.9185L3.46058 55.1442L14.1468 58.0423L15.5137 54.8166Z" fill="url(#paint70_radial_1021_191183)" fill-opacity="0.5"/>
<path fill-rule="evenodd" clip-rule="evenodd" d="M307.397 11.2817C308.518 11.3432 309.704 10.5938 309.787 9.77105L310.335 4.35078L310.35 4.21036L310.418 3.53588L310.423 3.53667L310.819 3.55797L314.641 3.76702L314.559 4.56614L314.564 4.56692L313.926 10.866C313.704 13.0519 311.246 14.6076 308.273 14.4451L298.601 13.9165L298.915 10.8179L307.397 11.2817ZM310.752 4.22629L310.751 4.24443L310.762 4.24522L310.752 4.22629Z" fill="url(#paint71_radial_1021_191183)" fill-opacity="0.5"/>
<path d="M295.251 16.3143C295.39 16.116 295.604 16 295.83 16H296.563C296.716 16 296.801 16.1948 296.708 16.3285L292.025 23.0139C291.886 23.2122 291.672 23.3282 291.446 23.3282H290.712C290.56 23.3282 290.474 23.1334 290.568 22.9997L295.251 16.3143Z" fill="#FAFAFA"/>
<path d="M285.57 16.8142C285.967 16.8142 286.259 17.1061 286.299 17.5258L286.303 17.6248V20.0564C286.303 20.4948 286.039 20.8179 285.66 20.8618L285.57 20.8669H283.004C282.607 20.8669 282.315 20.5752 282.275 20.1554L282.271 20.0564V17.6248C282.271 17.1865 282.535 16.8633 282.914 16.8194L283.004 16.8142H285.57Z" fill="#FAFAFA"/>
<path d="M319 22.6361C318.591 22.6361 318.253 22.2931 318.21 21.853L318.205 21.7573L318.205 17.693C318.205 17.24 318.516 16.8671 318.914 16.8194L319.001 16.8143H321.228C321.638 16.8143 321.976 17.157 322.019 17.5973L322.024 17.693L322.024 18.8401L324.586 18.8399C324.996 18.8399 325.333 19.1826 325.376 19.6229L325.381 19.7187V21.7573C325.381 22.21 325.071 22.5832 324.673 22.6309L324.586 22.6361H319Z" fill="#FAFAFA"/>
<path d="M429.601 41.9339C430.011 41.9339 430.349 42.2769 430.392 42.717L430.396 42.8127L430.396 46.877C430.396 47.33 430.086 47.7029 429.688 47.7506L429.601 47.7557H427.374C426.963 47.7557 426.626 47.413 426.583 46.9727L426.578 46.877L426.577 45.7299L424.016 45.7301C423.606 45.7301 423.268 45.3874 423.225 44.9471L423.221 44.8513V42.8127C423.221 42.36 423.531 41.9868 423.929 41.9391L424.016 41.9339H429.601Z" fill="#FAFAFA"/>
<path d="M401.08 22.6672C401.123 23.1073 401.461 23.4503 401.87 23.4503H407.456L407.543 23.4451C407.941 23.3974 408.251 23.0242 408.251 22.5715V20.5329L408.246 20.4372C408.203 19.9969 407.866 19.6542 407.456 19.6542L404.894 19.6544L404.894 18.5073L404.889 18.4115C404.846 17.9712 404.508 17.6285 404.098 17.6285H401.871L401.784 17.6337C401.386 17.6814 401.075 18.0543 401.075 18.5073L401.075 22.5715L401.08 22.6672Z" fill="#FAFAFA"/>
<path d="M263.935 23.3282C264.332 23.3282 264.624 23.6201 264.664 24.0398L264.669 24.1388V26.5704C264.669 27.0088 264.405 27.3319 264.025 27.3758L263.935 27.3809H258.07C257.673 27.3809 257.381 27.0892 257.341 26.6694L257.336 26.5704V24.1388C257.336 23.7005 257.6 23.3773 257.98 23.3334L258.07 23.3282H263.935Z" fill="#FAFAFA"/>
<path d="M419.403 42.6671C419.364 42.2475 419.071 41.9556 418.675 41.9556H412.809L412.719 41.9607C412.34 42.0046 412.076 42.3278 412.076 42.7661V45.1977L412.08 45.2968C412.12 45.7165 412.412 46.0083 412.809 46.0083H418.675L418.764 46.0032C419.144 45.9593 419.408 45.6362 419.408 45.1977V42.7661L419.403 42.6671Z" fill="#FAFAFA"/>
<path d="M205.266 41.9556C205.663 41.9556 205.955 42.2475 205.995 42.6671L206 42.7661V45.1977C206 45.6362 205.736 45.9593 205.356 46.0032L205.266 46.0083H199.401C199.004 46.0083 198.712 45.7165 198.672 45.2968L198.667 45.1977V42.7661C198.667 42.3278 198.931 42.0046 199.311 41.9607L199.401 41.9556H205.266Z" fill="#FAFAFA"/>
<path d="M384.569 19.9685C384.53 19.5489 384.237 19.257 383.841 19.257H381.274L381.185 19.2621C380.805 19.306 380.541 19.6292 380.541 20.0675V22.4991L380.546 22.5982C380.586 23.0179 380.878 23.3097 381.274 23.3097H383.841L383.93 23.3046C384.31 23.2606 384.574 22.9376 384.574 22.4991V20.0675L384.569 19.9685Z" fill="#FAFAFA"/>
<path d="M194.267 19.257C194.664 19.257 194.956 19.5489 194.996 19.9685L195 20.0675V22.4991C195 22.9376 194.736 23.2606 194.357 23.3046L194.267 23.3097H192.067C191.67 23.3097 191.378 23.0179 191.338 22.5982L191.334 22.4991V20.0675C191.334 19.6292 191.598 19.306 191.977 19.2621L192.067 19.257H194.267Z" fill="#FAFAFA"/>
<path d="M234.23 19.9685C234.19 19.5489 233.898 19.257 233.501 19.257H230.935L230.846 19.2621C230.466 19.306 230.202 19.6292 230.202 20.0675V22.4991L230.207 22.5982C230.246 23.0179 230.539 23.3097 230.935 23.3097H233.501L233.591 23.3046C233.971 23.2606 234.235 22.9376 234.235 22.4991V20.0675L234.23 19.9685Z" fill="#FAFAFA"/>
<path d="M349.735 28.7741C349.653 25.4619 347.646 23.3134 344.605 23.3134H338.006L337.917 23.3185C337.537 23.3625 337.273 23.6859 337.273 24.1239V26.5555L337.277 26.6545C337.317 27.0738 337.61 27.3661 338.006 27.3661H344.605L344.732 27.369C345.644 27.4121 346.071 27.9304 346.071 28.9871V33.8503L346.069 33.9911C346.03 34.9989 345.561 35.4714 344.605 35.4714H338.006L337.917 35.4765C337.537 35.5204 337.273 35.8438 337.273 36.2819V38.7135L337.277 38.8125C337.317 39.2319 337.61 39.524 338.006 39.524H344.605L344.798 39.5211C347.794 39.4302 349.738 37.2116 349.738 33.8503V28.9871L349.735 28.7741Z" fill="#FAFAFA"/>
<path d="M215.893 16C215.667 16 215.453 16.116 215.314 16.3143L210.631 22.9997C210.538 23.1334 210.623 23.3282 210.776 23.3282H211.509C211.735 23.3282 211.949 23.2122 212.088 23.0139L216.771 16.3285C216.865 16.1948 216.779 16 216.626 16H215.893Z" fill="#FAFAFA"/>
<path fill-rule="evenodd" clip-rule="evenodd" d="M359.274 30.6565V35.542H357.807C356.592 35.542 355.607 34.4483 355.607 33.0992V19.257C355.607 18.8073 355.279 18.4427 354.874 18.4427H352.673C352.268 18.4427 351.94 18.8073 351.94 19.257V33.0992C351.94 36.6968 354.567 39.6132 357.807 39.6132H373.574C374.904 39.6132 376.124 39.089 377.075 38.2165L377.728 39.2625C377.865 39.4822 378.09 39.6132 378.331 39.6132H382.713C384.382 39.6132 385.888 38.8395 386.957 37.5976L387.995 39.2625C388.132 39.4822 388.357 39.6132 388.598 39.6132H392.98C394.43 39.6132 395.756 39.0296 396.78 38.0625L397.528 39.2625C397.665 39.4822 397.891 39.6132 398.131 39.6132H401.037C402.492 39.6132 403.824 39.0245 404.85 38.0498L405.606 39.2625C405.743 39.4822 405.968 39.6132 406.209 39.6132H406.914C408.443 39.6132 409.835 38.9643 410.879 37.901L411.501 39.185C411.629 39.4488 411.877 39.6132 412.147 39.6132H417.209C418.656 39.6132 419.963 38.949 420.896 37.8802L421.758 39.2625C421.895 39.4822 422.12 39.6132 422.361 39.6132H426.743C429.983 39.6132 432.61 36.6968 432.61 33.0992V28.2137C432.61 27.764 432.282 27.3995 431.877 27.3995H429.677C429.272 27.3995 428.943 27.7641 428.943 28.2137V33.0992C428.943 34.4483 427.958 35.542 426.743 35.542H422.13C422.269 35.026 422.343 34.4794 422.343 33.9135V28.2137C422.343 27.764 422.015 27.3995 421.61 27.3995H419.409C419.004 27.3995 418.676 27.764 418.676 28.2137V33.9135C418.676 34.8129 418.019 35.542 417.209 35.542H412.809V28.2137C412.809 27.764 412.481 27.3995 412.076 27.3995H409.848C409.443 27.3995 409.114 27.7641 409.114 28.2137V33.0992C409.114 34.4483 408.129 35.542 406.914 35.542H406.477C406.752 34.7877 406.904 33.9631 406.904 33.0992V28.2137C406.904 27.764 406.575 27.3995 406.17 27.3995H403.97C403.565 27.3995 403.237 27.7641 403.237 28.2137V33.0992C403.237 34.4483 402.252 35.542 401.037 35.542H398.421C398.696 34.7877 398.847 33.9631 398.847 33.0992V28.2137C398.847 27.764 398.519 27.3995 398.114 27.3995H395.914C395.509 27.3995 395.18 27.7641 395.18 28.2137V33.0992C395.18 34.4483 394.195 35.542 392.98 35.542H388.154C388.429 34.7877 388.58 33.9631 388.58 33.0992V28.2137C388.58 27.764 388.252 27.3995 387.847 27.3995H385.647C385.242 27.3995 384.913 27.7641 384.913 28.2137V33.0992C384.913 34.4483 383.928 35.542 382.713 35.542H378.762C378.964 34.9053 379.075 34.2201 379.075 33.5064C379.075 30.1336 376.612 27.3995 373.574 27.3995L370.223 27.3995C369.208 25.4525 367.312 24.1425 365.141 24.1425C361.9 24.1425 359.274 27.0589 359.274 30.6565ZM365.141 28.2137C363.926 28.2137 362.941 29.3074 362.941 30.6565V35.542H367.341V30.6565C367.341 29.3074 366.356 28.2137 365.141 28.2137ZM371.008 35.542L371.008 31.4707H373.574C374.587 31.4707 375.408 32.3821 375.408 33.5064C375.408 34.6306 374.587 35.542 373.574 35.542H371.008Z" fill="#FAFAFA"/>
<path fill-rule="evenodd" clip-rule="evenodd" d="M290.338 33.0992C290.338 33.9631 290.186 34.7877 289.911 35.542H300.602C302.7 35.542 304.268 33.801 304.268 31.4707V30.6565C304.268 28.3262 302.7 26.5852 300.602 26.5852H292.17C291.51 26.5852 291.382 25.9286 291.803 25.3639L297.978 16.6063C298.264 16.2224 298.689 16 299.138 16H301.955C302.521 16 302.832 16.7328 302.471 17.2177L298.769 22.514H300.602C304.806 22.514 307.934 25.9873 307.934 30.6565V31.4707C307.934 32.978 307.608 34.3606 307.025 35.542H310.844C312.059 35.542 313.044 34.4483 313.044 33.0992V28.2137C313.044 27.7641 313.372 27.3995 313.777 27.3995H315.977C316.382 27.3995 316.71 27.764 316.71 28.2137V33.0992C316.71 33.9631 316.559 34.7877 316.284 35.542H318.9C320.115 35.542 321.1 34.4483 321.1 33.0992V28.2137C321.1 27.7641 321.428 27.3995 321.833 27.3995H324.034C324.439 27.3995 324.767 27.764 324.767 28.2137V33.0992C324.767 33.9631 324.615 34.7877 324.34 35.542H324.778C325.993 35.542 326.978 34.4483 326.978 33.0992V28.2137C326.978 27.7641 327.306 27.3995 327.711 27.3995H329.911C330.316 27.3995 330.645 27.764 330.645 28.2137V33.0992C330.645 36.6968 328.018 39.6132 324.778 39.6132H324.072C323.832 39.6132 323.606 39.4822 323.469 39.2625L322.713 38.0498C321.688 39.0245 320.356 39.6132 318.9 39.6132H315.995C315.754 39.6132 315.529 39.4822 315.392 39.2625L314.643 38.0625C313.62 39.0296 312.293 39.6132 310.844 39.6132H306.461C306.22 39.6132 305.995 39.4822 305.858 39.2625L305.085 38.022C303.865 39.0307 302.323 39.6132 300.602 39.6132H273.46C273.219 39.6132 272.994 39.4822 272.857 39.2625L272.108 38.0624C271.085 39.0296 269.758 39.6132 268.308 39.6132H253.67C250.429 39.6132 247.803 36.6968 247.803 33.0992V28.2137C247.803 27.764 248.131 27.3995 248.536 27.3995H250.736C251.141 27.3995 251.469 27.7641 251.469 28.2137V33.0992C251.469 34.4483 252.455 35.542 253.67 35.542H268.308C269.524 35.542 270.509 34.4483 270.509 33.0992V28.2137C270.509 27.7641 270.837 27.3995 271.242 27.3995H273.442C273.847 27.3995 274.175 27.764 274.175 28.2137V33.0992C274.175 33.9631 274.024 34.7877 273.749 35.542H279.03C278.755 34.7877 278.604 33.9631 278.604 33.0992V30.6565C278.604 27.0589 281.231 24.1425 284.471 24.1425C287.711 24.1425 290.338 27.0589 290.338 30.6565V33.0992ZM286.671 30.6565V33.0992C286.671 34.4483 285.686 35.542 284.471 35.542C283.256 35.542 282.271 34.4483 282.271 33.0992V30.6565C282.271 29.3074 283.256 28.2137 284.471 28.2137C285.686 28.2137 286.671 29.3074 286.671 30.6565Z" fill="#FAFAFA"/>
<path d="M227.997 31.4707C227.997 32.978 227.671 34.3606 227.088 35.542H233.107C234.322 35.542 235.307 34.4483 235.307 33.0992V28.2137C235.307 27.7641 235.636 27.3995 236.041 27.3995H238.241C238.646 27.3995 238.974 27.764 238.974 28.2137V33.0992C238.974 36.6968 236.347 39.6132 233.107 39.6132H227.991C227.751 39.6132 227.525 39.4822 227.388 39.2625L226.055 37.1244C224.74 38.6775 222.847 39.6132 220.665 39.6132H208.009L206.885 38.0189C205.855 39.0121 204.51 39.6132 203.039 39.6132H196.457C196.216 39.6132 195.991 39.4822 195.854 39.2625L195.048 37.9709V37.9847C195.048 42.6539 191.92 46.1272 187.716 46.1272H186.967C186.516 46.1272 186.09 45.8969 185.812 45.5026L184.243 43.2774C183.823 42.7127 183.95 42.056 184.61 42.056H187.716C189.814 42.056 191.382 40.315 191.382 37.9847L191.381 28.2137C191.381 27.764 191.71 27.3995 192.115 27.3995H194.315C194.72 27.3995 195.048 27.7641 195.048 28.2137V35.542H203.039C204.254 35.542 205.239 34.4483 205.239 33.0992V28.2137C205.239 27.7641 205.568 27.3995 205.973 27.3995H208.173C208.578 27.3995 208.906 27.764 208.906 28.2137V33.0992C208.906 33.9631 208.755 34.7877 208.48 35.542H220.665C222.763 35.542 224.331 33.801 224.331 31.4707V30.6565C224.331 28.3262 222.763 26.5852 220.665 26.5852H212.233C211.573 26.5852 211.446 25.9286 211.866 25.3639L218.041 16.6063C218.327 16.2224 218.753 16 219.201 16H222.018C222.585 16 222.895 16.7328 222.534 17.2177L218.832 22.514H220.665C224.869 22.514 227.997 25.9873 227.997 30.6565V31.4707Z" fill="#FAFAFA"/>
<path d="M241.202 19.257C241.202 18.8073 241.531 18.4427 241.936 18.4427H244.136C244.541 18.4427 244.869 18.8073 244.869 19.257V38.799C244.869 39.2487 244.541 39.6132 244.136 39.6132H241.936C241.531 39.6132 241.202 39.2487 241.202 38.799V19.257Z" fill="#FAFAFA"/>
</g>
<defs>
<radialGradient id="paint0_radial_1021_191183" cx="0" cy="0" r="1" gradientUnits="userSpaceOnUse" gradientTransform="translate(308.232 0.999997) rotate(90) scale(64 331.999)">
<stop stop-color="white" stop-opacity="0.6"/>
<stop offset="1" stop-color="white" stop-opacity="0"/>
</radialGradient>
<radialGradient id="paint1_radial_1021_191183" cx="0" cy="0" r="1" gradientUnits="userSpaceOnUse" gradientTransform="translate(308.232 0.999997) rotate(90) scale(64 331.999)">
<stop stop-color="white" stop-opacity="0.6"/>
<stop offset="1" stop-color="white" stop-opacity="0"/>
</radialGradient>
<radialGradient id="paint2_radial_1021_191183" cx="0" cy="0" r="1" gradientUnits="userSpaceOnUse" gradientTransform="translate(308.232 0.999997) rotate(90) scale(64 331.999)">
<stop stop-color="white" stop-opacity="0.6"/>
<stop offset="1" stop-color="white" stop-opacity="0"/>
</radialGradient>
<radialGradient id="paint3_radial_1021_191183" cx="0" cy="0" r="1" gradientUnits="userSpaceOnUse" gradientTransform="translate(308.232 0.999997) rotate(90) scale(64 331.999)">
<stop stop-color="white" stop-opacity="0.6"/>
<stop offset="1" stop-color="white" stop-opacity="0"/>
</radialGradient>
<radialGradient id="paint4_radial_1021_191183" cx="0" cy="0" r="1" gradientUnits="userSpaceOnUse" gradientTransform="translate(308.232 0.999997) rotate(90) scale(64 331.999)">
<stop stop-color="white" stop-opacity="0.6"/>
<stop offset="1" stop-color="white" stop-opacity="0"/>
</radialGradient>
<radialGradient id="paint5_radial_1021_191183" cx="0" cy="0" r="1" gradientUnits="userSpaceOnUse" gradientTransform="translate(308.232 0.999997) rotate(90) scale(64 331.999)">
<stop stop-color="white" stop-opacity="0.6"/>
<stop offset="1" stop-color="white" stop-opacity="0"/>
</radialGradient>
<radialGradient id="paint6_radial_1021_191183" cx="0" cy="0" r="1" gradientUnits="userSpaceOnUse" gradientTransform="translate(308.232 0.999997) rotate(90) scale(64 331.999)">
<stop stop-color="white" stop-opacity="0.6"/>
<stop offset="1" stop-color="white" stop-opacity="0"/>
</radialGradient>
<radialGradient id="paint7_radial_1021_191183" cx="0" cy="0" r="1" gradientUnits="userSpaceOnUse" gradientTransform="translate(308.232 0.999997) rotate(90) scale(64 331.999)">
<stop stop-color="white" stop-opacity="0.6"/>
<stop offset="1" stop-color="white" stop-opacity="0"/>
</radialGradient>
<radialGradient id="paint8_radial_1021_191183" cx="0" cy="0" r="1" gradientUnits="userSpaceOnUse" gradientTransform="translate(308.232 0.999997) rotate(90) scale(64 331.999)">
<stop stop-color="white" stop-opacity="0.6"/>
<stop offset="1" stop-color="white" stop-opacity="0"/>
</radialGradient>
<radialGradient id="paint9_radial_1021_191183" cx="0" cy="0" r="1" gradientUnits="userSpaceOnUse" gradientTransform="translate(308.232 0.999997) rotate(90) scale(64 331.999)">
<stop stop-color="white" stop-opacity="0.6"/>
<stop offset="1" stop-color="white" stop-opacity="0"/>
</radialGradient>
<radialGradient id="paint10_radial_1021_191183" cx="0" cy="0" r="1" gradientUnits="userSpaceOnUse" gradientTransform="translate(308.232 0.999997) rotate(90) scale(64 331.999)">
<stop stop-color="white" stop-opacity="0.6"/>
<stop offset="1" stop-color="white" stop-opacity="0"/>
</radialGradient>
<radialGradient id="paint11_radial_1021_191183" cx="0" cy="0" r="1" gradientUnits="userSpaceOnUse" gradientTransform="translate(308.232 0.999997) rotate(90) scale(64 331.999)">
<stop stop-color="white" stop-opacity="0.6"/>
<stop offset="1" stop-color="white" stop-opacity="0"/>
</radialGradient>
<radialGradient id="paint12_radial_1021_191183" cx="0" cy="0" r="1" gradientUnits="userSpaceOnUse" gradientTransform="translate(308.232 0.999997) rotate(90) scale(64 331.999)">
<stop stop-color="white" stop-opacity="0.6"/>
<stop offset="1" stop-color="white" stop-opacity="0"/>
</radialGradient>
<radialGradient id="paint13_radial_1021_191183" cx="0" cy="0" r="1" gradientUnits="userSpaceOnUse" gradientTransform="translate(308.232 0.999997) rotate(90) scale(64 331.999)">
<stop stop-color="white" stop-opacity="0.6"/>
<stop offset="1" stop-color="white" stop-opacity="0"/>
</radialGradient>
<radialGradient id="paint14_radial_1021_191183" cx="0" cy="0" r="1" gradientUnits="userSpaceOnUse" gradientTransform="translate(308.232 0.999997) rotate(90) scale(64 331.999)">
<stop stop-color="white" stop-opacity="0.6"/>
<stop offset="1" stop-color="white" stop-opacity="0"/>
</radialGradient>
<radialGradient id="paint15_radial_1021_191183" cx="0" cy="0" r="1" gradientUnits="userSpaceOnUse" gradientTransform="translate(308.232 0.999997) rotate(90) scale(64 331.999)">
<stop stop-color="white" stop-opacity="0.6"/>
<stop offset="1" stop-color="white" stop-opacity="0"/>
</radialGradient>
<radialGradient id="paint16_radial_1021_191183" cx="0" cy="0" r="1" gradientUnits="userSpaceOnUse" gradientTransform="translate(308.232 0.999997) rotate(90) scale(64 331.999)">
<stop stop-color="white" stop-opacity="0.6"/>
<stop offset="1" stop-color="white" stop-opacity="0"/>
</radialGradient>
<radialGradient id="paint17_radial_1021_191183" cx="0" cy="0" r="1" gradientUnits="userSpaceOnUse" gradientTransform="translate(308.232 0.999997) rotate(90) scale(64 331.999)">
<stop stop-color="white" stop-opacity="0.6"/>
<stop offset="1" stop-color="white" stop-opacity="0"/>
</radialGradient>
<radialGradient id="paint18_radial_1021_191183" cx="0" cy="0" r="1" gradientUnits="userSpaceOnUse" gradientTransform="translate(308.232 0.999997) rotate(90) scale(64 331.999)">
<stop stop-color="white" stop-opacity="0.6"/>
<stop offset="1" stop-color="white" stop-opacity="0"/>
</radialGradient>
<radialGradient id="paint19_radial_1021_191183" cx="0" cy="0" r="1" gradientUnits="userSpaceOnUse" gradientTransform="translate(308.232 0.999997) rotate(90) scale(64 331.999)">
<stop stop-color="white" stop-opacity="0.6"/>
<stop offset="1" stop-color="white" stop-opacity="0"/>
</radialGradient>
<radialGradient id="paint20_radial_1021_191183" cx="0" cy="0" r="1" gradientUnits="userSpaceOnUse" gradientTransform="translate(308.232 0.999997) rotate(90) scale(64 331.999)">
<stop stop-color="white" stop-opacity="0.6"/>
<stop offset="1" stop-color="white" stop-opacity="0"/>
</radialGradient>
<radialGradient id="paint21_radial_1021_191183" cx="0" cy="0" r="1" gradientUnits="userSpaceOnUse" gradientTransform="translate(308.232 0.999997) rotate(90) scale(64 331.999)">
<stop stop-color="white" stop-opacity="0.6"/>
<stop offset="1" stop-color="white" stop-opacity="0"/>
</radialGradient>
<radialGradient id="paint22_radial_1021_191183" cx="0" cy="0" r="1" gradientUnits="userSpaceOnUse" gradientTransform="translate(308.232 0.999997) rotate(90) scale(64 331.999)">
<stop stop-color="white" stop-opacity="0.6"/>
<stop offset="1" stop-color="white" stop-opacity="0"/>
</radialGradient>
<radialGradient id="paint23_radial_1021_191183" cx="0" cy="0" r="1" gradientUnits="userSpaceOnUse" gradientTransform="translate(308.232 0.999997) rotate(90) scale(64 331.999)">
<stop stop-color="white" stop-opacity="0.6"/>
<stop offset="1" stop-color="white" stop-opacity="0"/>
</radialGradient>
<radialGradient id="paint24_radial_1021_191183" cx="0" cy="0" r="1" gradientUnits="userSpaceOnUse" gradientTransform="translate(308.232 0.999997) rotate(90) scale(64 331.999)">
<stop stop-color="white" stop-opacity="0.6"/>
<stop offset="1" stop-color="white" stop-opacity="0"/>
</radialGradient>
<radialGradient id="paint25_radial_1021_191183" cx="0" cy="0" r="1" gradientUnits="userSpaceOnUse" gradientTransform="translate(308.232 0.999997) rotate(90) scale(64 331.999)">
<stop stop-color="white" stop-opacity="0.6"/>
<stop offset="1" stop-color="white" stop-opacity="0"/>
</radialGradient>
<radialGradient id="paint26_radial_1021_191183" cx="0" cy="0" r="1" gradientUnits="userSpaceOnUse" gradientTransform="translate(308.232 0.999997) rotate(90) scale(64 331.999)">
<stop stop-color="white" stop-opacity="0.6"/>
<stop offset="1" stop-color="white" stop-opacity="0"/>
</radialGradient>
<radialGradient id="paint27_radial_1021_191183" cx="0" cy="0" r="1" gradientUnits="userSpaceOnUse" gradientTransform="translate(308.232 0.999997) rotate(90) scale(64 331.999)">
<stop stop-color="white" stop-opacity="0.6"/>
<stop offset="1" stop-color="white" stop-opacity="0"/>
</radialGradient>
<radialGradient id="paint28_radial_1021_191183" cx="0" cy="0" r="1" gradientUnits="userSpaceOnUse" gradientTransform="translate(308.232 0.999997) rotate(90) scale(64 331.999)">
<stop stop-color="white" stop-opacity="0.6"/>
<stop offset="1" stop-color="white" stop-opacity="0"/>
</radialGradient>
<radialGradient id="paint29_radial_1021_191183" cx="0" cy="0" r="1" gradientUnits="userSpaceOnUse" gradientTransform="translate(308.232 0.999997) rotate(90) scale(64 331.999)">
<stop stop-color="white" stop-opacity="0.6"/>
<stop offset="1" stop-color="white" stop-opacity="0"/>
</radialGradient>
<radialGradient id="paint30_radial_1021_191183" cx="0" cy="0" r="1" gradientUnits="userSpaceOnUse" gradientTransform="translate(308.232 0.999997) rotate(90) scale(64 331.999)">
<stop stop-color="white" stop-opacity="0.6"/>
<stop offset="1" stop-color="white" stop-opacity="0"/>
</radialGradient>
<radialGradient id="paint31_radial_1021_191183" cx="0" cy="0" r="1" gradientUnits="userSpaceOnUse" gradientTransform="translate(308.232 0.999997) rotate(90) scale(64 331.999)">
<stop stop-color="white" stop-opacity="0.6"/>
<stop offset="1" stop-color="white" stop-opacity="0"/>
</radialGradient>
<radialGradient id="paint32_radial_1021_191183" cx="0" cy="0" r="1" gradientUnits="userSpaceOnUse" gradientTransform="translate(308.232 0.999997) rotate(90) scale(64 331.999)">
<stop stop-color="white" stop-opacity="0.6"/>
<stop offset="1" stop-color="white" stop-opacity="0"/>
</radialGradient>
<radialGradient id="paint33_radial_1021_191183" cx="0" cy="0" r="1" gradientUnits="userSpaceOnUse" gradientTransform="translate(308.232 0.999997) rotate(90) scale(64 331.999)">
<stop stop-color="white" stop-opacity="0.6"/>
<stop offset="1" stop-color="white" stop-opacity="0"/>
</radialGradient>
<radialGradient id="paint34_radial_1021_191183" cx="0" cy="0" r="1" gradientUnits="userSpaceOnUse" gradientTransform="translate(308.232 0.999997) rotate(90) scale(64 331.999)">
<stop stop-color="white" stop-opacity="0.6"/>
<stop offset="1" stop-color="white" stop-opacity="0"/>
</radialGradient>
<radialGradient id="paint35_radial_1021_191183" cx="0" cy="0" r="1" gradientUnits="userSpaceOnUse" gradientTransform="translate(308.232 0.999997) rotate(90) scale(64 331.999)">
<stop stop-color="white" stop-opacity="0.6"/>
<stop offset="1" stop-color="white" stop-opacity="0"/>
</radialGradient>
<radialGradient id="paint36_radial_1021_191183" cx="0" cy="0" r="1" gradientUnits="userSpaceOnUse" gradientTransform="translate(308.232 0.999997) rotate(90) scale(64 331.999)">
<stop stop-color="white" stop-opacity="0.6"/>
<stop offset="1" stop-color="white" stop-opacity="0"/>
</radialGradient>
<radialGradient id="paint37_radial_1021_191183" cx="0" cy="0" r="1" gradientUnits="userSpaceOnUse" gradientTransform="translate(308.232 0.999997) rotate(90) scale(64 331.999)">
<stop stop-color="white" stop-opacity="0.6"/>
<stop offset="1" stop-color="white" stop-opacity="0"/>
</radialGradient>
<radialGradient id="paint38_radial_1021_191183" cx="0" cy="0" r="1" gradientUnits="userSpaceOnUse" gradientTransform="translate(308.232 0.999997) rotate(90) scale(64 331.999)">
<stop stop-color="white" stop-opacity="0.6"/>
<stop offset="1" stop-color="white" stop-opacity="0"/>
</radialGradient>
<radialGradient id="paint39_radial_1021_191183" cx="0" cy="0" r="1" gradientUnits="userSpaceOnUse" gradientTransform="translate(308.232 0.999997) rotate(90) scale(64 331.999)">
<stop stop-color="white" stop-opacity="0.6"/>
<stop offset="1" stop-color="white" stop-opacity="0"/>
</radialGradient>
<radialGradient id="paint40_radial_1021_191183" cx="0" cy="0" r="1" gradientUnits="userSpaceOnUse" gradientTransform="translate(308.232 0.999997) rotate(90) scale(64 331.999)">
<stop stop-color="white" stop-opacity="0.6"/>
<stop offset="1" stop-color="white" stop-opacity="0"/>
</radialGradient>
<radialGradient id="paint41_radial_1021_191183" cx="0" cy="0" r="1" gradientUnits="userSpaceOnUse" gradientTransform="translate(308.232 0.999997) rotate(90) scale(64 331.999)">
<stop stop-color="white" stop-opacity="0.6"/>
<stop offset="1" stop-color="white" stop-opacity="0"/>
</radialGradient>
<radialGradient id="paint42_radial_1021_191183" cx="0" cy="0" r="1" gradientUnits="userSpaceOnUse" gradientTransform="translate(308.232 0.999997) rotate(90) scale(64 331.999)">
<stop stop-color="white" stop-opacity="0.6"/>
<stop offset="1" stop-color="white" stop-opacity="0"/>
</radialGradient>
<radialGradient id="paint43_radial_1021_191183" cx="0" cy="0" r="1" gradientUnits="userSpaceOnUse" gradientTransform="translate(308.232 0.999997) rotate(90) scale(64 331.999)">
<stop stop-color="white" stop-opacity="0.6"/>
<stop offset="1" stop-color="white" stop-opacity="0"/>
</radialGradient>
<radialGradient id="paint44_radial_1021_191183" cx="0" cy="0" r="1" gradientUnits="userSpaceOnUse" gradientTransform="translate(308.232 0.999997) rotate(90) scale(64 331.999)">
<stop stop-color="white" stop-opacity="0.6"/>
<stop offset="1" stop-color="white" stop-opacity="0"/>
</radialGradient>
<radialGradient id="paint45_radial_1021_191183" cx="0" cy="0" r="1" gradientUnits="userSpaceOnUse" gradientTransform="translate(308.232 0.999997) rotate(90) scale(64 331.999)">
<stop stop-color="white" stop-opacity="0.6"/>
<stop offset="1" stop-color="white" stop-opacity="0"/>
</radialGradient>
<radialGradient id="paint46_radial_1021_191183" cx="0" cy="0" r="1" gradientUnits="userSpaceOnUse" gradientTransform="translate(308.232 0.999997) rotate(90) scale(64 331.999)">
<stop stop-color="white" stop-opacity="0.6"/>
<stop offset="1" stop-color="white" stop-opacity="0"/>
</radialGradient>
<radialGradient id="paint47_radial_1021_191183" cx="0" cy="0" r="1" gradientUnits="userSpaceOnUse" gradientTransform="translate(308.232 0.999997) rotate(90) scale(64 331.999)">
<stop stop-color="white" stop-opacity="0.6"/>
<stop offset="1" stop-color="white" stop-opacity="0"/>
</radialGradient>
<radialGradient id="paint48_radial_1021_191183" cx="0" cy="0" r="1" gradientUnits="userSpaceOnUse" gradientTransform="translate(308.232 0.999997) rotate(90) scale(64 331.999)">
<stop stop-color="white" stop-opacity="0.6"/>
<stop offset="1" stop-color="white" stop-opacity="0"/>
</radialGradient>
<radialGradient id="paint49_radial_1021_191183" cx="0" cy="0" r="1" gradientUnits="userSpaceOnUse" gradientTransform="translate(308.232 0.999997) rotate(90) scale(64 331.999)">
<stop stop-color="white" stop-opacity="0.6"/>
<stop offset="1" stop-color="white" stop-opacity="0"/>
</radialGradient>
<radialGradient id="paint50_radial_1021_191183" cx="0" cy="0" r="1" gradientUnits="userSpaceOnUse" gradientTransform="translate(308.232 0.999997) rotate(90) scale(64 331.999)">
<stop stop-color="white" stop-opacity="0.6"/>
<stop offset="1" stop-color="white" stop-opacity="0"/>
</radialGradient>
<radialGradient id="paint51_radial_1021_191183" cx="0" cy="0" r="1" gradientUnits="userSpaceOnUse" gradientTransform="translate(308.232 0.999997) rotate(90) scale(64 331.999)">
<stop stop-color="white" stop-opacity="0.6"/>
<stop offset="1" stop-color="white" stop-opacity="0"/>
</radialGradient>
<radialGradient id="paint52_radial_1021_191183" cx="0" cy="0" r="1" gradientUnits="userSpaceOnUse" gradientTransform="translate(308.232 0.999997) rotate(90) scale(64 331.999)">
<stop stop-color="white" stop-opacity="0.6"/>
<stop offset="1" stop-color="white" stop-opacity="0"/>
</radialGradient>
<radialGradient id="paint53_radial_1021_191183" cx="0" cy="0" r="1" gradientUnits="userSpaceOnUse" gradientTransform="translate(308.232 0.999997) rotate(90) scale(64 331.999)">
<stop stop-color="white" stop-opacity="0.6"/>
<stop offset="1" stop-color="white" stop-opacity="0"/>
</radialGradient>
<radialGradient id="paint54_radial_1021_191183" cx="0" cy="0" r="1" gradientUnits="userSpaceOnUse" gradientTransform="translate(308.232 0.999997) rotate(90) scale(64 331.999)">
<stop stop-color="white" stop-opacity="0.6"/>
<stop offset="1" stop-color="white" stop-opacity="0"/>
</radialGradient>
<radialGradient id="paint55_radial_1021_191183" cx="0" cy="0" r="1" gradientUnits="userSpaceOnUse" gradientTransform="translate(308.232 0.999997) rotate(90) scale(64 331.999)">
<stop stop-color="white" stop-opacity="0.6"/>
<stop offset="1" stop-color="white" stop-opacity="0"/>
</radialGradient>
<radialGradient id="paint56_radial_1021_191183" cx="0" cy="0" r="1" gradientUnits="userSpaceOnUse" gradientTransform="translate(308.232 0.999997) rotate(90) scale(64 331.999)">
<stop stop-color="white" stop-opacity="0.6"/>
<stop offset="1" stop-color="white" stop-opacity="0"/>
</radialGradient>
<radialGradient id="paint57_radial_1021_191183" cx="0" cy="0" r="1" gradientUnits="userSpaceOnUse" gradientTransform="translate(308.232 0.999997) rotate(90) scale(64 331.999)">
<stop stop-color="white" stop-opacity="0.6"/>
<stop offset="1" stop-color="white" stop-opacity="0"/>
</radialGradient>
<radialGradient id="paint58_radial_1021_191183" cx="0" cy="0" r="1" gradientUnits="userSpaceOnUse" gradientTransform="translate(308.232 0.999997) rotate(90) scale(64 331.999)">
<stop stop-color="white" stop-opacity="0.6"/>
<stop offset="1" stop-color="white" stop-opacity="0"/>
</radialGradient>
<radialGradient id="paint59_radial_1021_191183" cx="0" cy="0" r="1" gradientUnits="userSpaceOnUse" gradientTransform="translate(308.232 0.999997) rotate(90) scale(64 331.999)">
<stop stop-color="white" stop-opacity="0.6"/>
<stop offset="1" stop-color="white" stop-opacity="0"/>
</radialGradient>
<radialGradient id="paint60_radial_1021_191183" cx="0" cy="0" r="1" gradientUnits="userSpaceOnUse" gradientTransform="translate(308.232 0.999997) rotate(90) scale(64 331.999)">
<stop stop-color="white" stop-opacity="0.6"/>
<stop offset="1" stop-color="white" stop-opacity="0"/>
</radialGradient>
<radialGradient id="paint61_radial_1021_191183" cx="0" cy="0" r="1" gradientUnits="userSpaceOnUse" gradientTransform="translate(308.232 0.999997) rotate(90) scale(64 331.999)">
<stop stop-color="white" stop-opacity="0.6"/>
<stop offset="1" stop-color="white" stop-opacity="0"/>
</radialGradient>
<radialGradient id="paint62_radial_1021_191183" cx="0" cy="0" r="1" gradientUnits="userSpaceOnUse" gradientTransform="translate(308.232 0.999997) rotate(90) scale(64 331.999)">
<stop stop-color="white" stop-opacity="0.6"/>
<stop offset="1" stop-color="white" stop-opacity="0"/>
</radialGradient>
<radialGradient id="paint63_radial_1021_191183" cx="0" cy="0" r="1" gradientUnits="userSpaceOnUse" gradientTransform="translate(308.232 0.999997) rotate(90) scale(64 331.999)">
<stop stop-color="white" stop-opacity="0.6"/>
<stop offset="1" stop-color="white" stop-opacity="0"/>
</radialGradient>
<radialGradient id="paint64_radial_1021_191183" cx="0" cy="0" r="1" gradientUnits="userSpaceOnUse" gradientTransform="translate(308.232 0.999997) rotate(90) scale(64 331.999)">
<stop stop-color="white" stop-opacity="0.6"/>
<stop offset="1" stop-color="white" stop-opacity="0"/>
</radialGradient>
<radialGradient id="paint65_radial_1021_191183" cx="0" cy="0" r="1" gradientUnits="userSpaceOnUse" gradientTransform="translate(308.232 0.999997) rotate(90) scale(64 331.999)">
<stop stop-color="white" stop-opacity="0.6"/>
<stop offset="1" stop-color="white" stop-opacity="0"/>
</radialGradient>
<radialGradient id="paint66_radial_1021_191183" cx="0" cy="0" r="1" gradientUnits="userSpaceOnUse" gradientTransform="translate(308.232 0.999997) rotate(90) scale(64 331.999)">
<stop stop-color="white" stop-opacity="0.6"/>
<stop offset="1" stop-color="white" stop-opacity="0"/>
</radialGradient>
<radialGradient id="paint67_radial_1021_191183" cx="0" cy="0" r="1" gradientUnits="userSpaceOnUse" gradientTransform="translate(308.232 0.999997) rotate(90) scale(64 331.999)">
<stop stop-color="white" stop-opacity="0.6"/>
<stop offset="1" stop-color="white" stop-opacity="0"/>
</radialGradient>
<radialGradient id="paint68_radial_1021_191183" cx="0" cy="0" r="1" gradientUnits="userSpaceOnUse" gradientTransform="translate(308.232 0.999997) rotate(90) scale(64 331.999)">
<stop stop-color="white" stop-opacity="0.6"/>
<stop offset="1" stop-color="white" stop-opacity="0"/>
</radialGradient>
<radialGradient id="paint69_radial_1021_191183" cx="0" cy="0" r="1" gradientUnits="userSpaceOnUse" gradientTransform="translate(308.232 0.999997) rotate(90) scale(64 331.999)">
<stop stop-color="white" stop-opacity="0.6"/>
<stop offset="1" stop-color="white" stop-opacity="0"/>
</radialGradient>
<radialGradient id="paint70_radial_1021_191183" cx="0" cy="0" r="1" gradientUnits="userSpaceOnUse" gradientTransform="translate(308.232 0.999997) rotate(90) scale(64 331.999)">
<stop stop-color="white" stop-opacity="0.6"/>
<stop offset="1" stop-color="white" stop-opacity="0"/>
</radialGradient>
<radialGradient id="paint71_radial_1021_191183" cx="0" cy="0" r="1" gradientUnits="userSpaceOnUse" gradientTransform="translate(308.232 0.999997) rotate(90) scale(64 331.999)">
<stop stop-color="white" stop-opacity="0.6"/>
<stop offset="1" stop-color="white" stop-opacity="0"/>
</radialGradient>
<clipPath id="clip0_1021_191183">
<rect width="616" height="64" fill="white"/>
</clipPath>
</defs>
</svg>
