<svg xmlns:xlink="http://www.w3.org/1999/xlink" xmlns="http://www.w3.org/2000/svg" style="width: 48px; height: 48px; fill: var(--color-icon-white);" width="48" height="48" viewBox="0 0 15 14"><defs><symbol id="lock" xmlns="http://www.w3.org/2000/svg" viewBox="0 0 14 14"><path d="M10.5 4.667h-.583V3.5a2.918 2.918 0 00-5.834 0v1.167H3.5a1.17 1.17 0 00-1.167 1.166v5.834A1.17 1.17 0 003.5 12.833h7a1.17 1.17 0 001.167-1.166V5.833A1.17 1.17 0 0010.5 4.667zM5.25 3.5c0-.968.782-1.75 1.75-1.75s1.75.782 1.75 1.75v1.167h-3.5V3.5zm5.25 8.167h-7V5.833h7v5.834zM7 9.917A1.17 1.17 0 008.167 8.75 1.17 1.17 0 007 7.583 1.17 1.17 0 005.833 8.75 1.17 1.17 0 007 9.917z"></path></symbol></defs><g fill="#FFFFFF"><path d="M10.5 4.667h-.583V3.5a2.918 2.918 0 00-5.834 0v1.167H3.5a1.17 1.17 0 00-1.167 1.166v5.834A1.17 1.17 0 003.5 12.833h7a1.17 1.17 0 001.167-1.166V5.833A1.17 1.17 0 0010.5 4.667zM5.25 3.5c0-.968.782-1.75 1.75-1.75s1.75.782 1.75 1.75v1.167h-3.5V3.5zm5.25 8.167h-7V5.833h7v5.834zM7 9.917A1.17 1.17 0 008.167 8.75 1.17 1.17 0 007 7.583 1.17 1.17 0 005.833 8.75 1.17 1.17 0 007 9.917z"></path></g></svg>