<svg xmlns:xlink="http://www.w3.org/1999/xlink" xmlns="http://www.w3.org/2000/svg" style="width: 18px; height: 18px; fill: var(--color-delivery-ship-by-seller);" width="24" height="24"><defs><symbol id="deliveryShipBySeller" xmlns="http://www.w3.org/2000/svg" viewBox="0 0 24 24"><path fill-rule="evenodd" d="M17 3a1 1 0 00-1-1H8a1 1 0 00-1 1v5a5 5 0 0010 0h3V6h-3V3zm-5 11c6.095 0 9.572 2.318 9.996 6.908A1 1 0 0121 22H3a1 1 0 01-.996-1.092C2.428 16.318 5.904 14 12 14zm0 2c-4.58 0-7.084 1.323-7.812 4h15.624c-.728-2.677-3.231-4-7.812-4zM9 8a3 3 0 006 0H9zm0-4h6v2H9V4z" clip-rule="evenodd"></path></symbol></defs><g fill="#D86B00"><path fill-rule="evenodd" d="M17 3a1 1 0 00-1-1H8a1 1 0 00-1 1v5a5 5 0 0010 0h3V6h-3V3zm-5 11c6.095 0 9.572 2.318 9.996 6.908A1 1 0 0121 22H3a1 1 0 01-.996-1.092C2.428 16.318 5.904 14 12 14zm0 2c-4.58 0-7.084 1.323-7.812 4h15.624c-.728-2.677-3.231-4-7.812-4zM9 8a3 3 0 006 0H9zm0-4h6v2H9V4z" clip-rule="evenodd"></path></g></svg>