<svg xmlns:xlink="http://www.w3.org/1999/xlink" xmlns="http://www.w3.org/2000/svg" style="width: 24px; height: 24px; fill: var(--color-icon-white);" width="40" height="41"><defs><symbol id="newSeller" xmlns="http://www.w3.org/2000/svg" viewBox="0 0 40 41"><path fill-rule="evenodd" d="M21.448 9.191a.641.641 0 01.589-.406.64.64 0 01.587.406l2.188 5.202a10 10 0 004.892 5.138l4.726 2.267c.232.112.38.357.38.627a.692.692 0 01-.38.628l-4.726 2.267a10 10 0 00-4.892 5.138l-2.189 5.202a.64.64 0 01-.586.406.641.641 0 01-.588-.406l-2.19-5.202a10 10 0 00-4.891-5.137l-4.726-2.268a.695.695 0 01-.38-.628c0-.27.15-.515.38-.627l4.726-2.267a10 10 0 004.892-5.138l2.188-5.202zM11.092 27.515a.194.194 0 01.353 0 7.081 7.081 0 003.548 3.56.195.195 0 010 .355 7.08 7.08 0 00-3.548 3.558.194.194 0 01-.353 0 7.08 7.08 0 00-3.549-3.558.197.197 0 01-.113-.179c0-.076.045-.145.114-.176a7.081 7.081 0 003.548-3.56zM32.652 9.86c.03-.068.1-.113.176-.113.075 0 .145.045.177.113a7.074 7.074 0 003.547 3.56.195.195 0 010 .355 7.074 7.074 0 00-3.547 3.56.195.195 0 01-.177.115.192.192 0 01-.176-.115 7.082 7.082 0 00-3.549-3.56.195.195 0 010-.355 7.081 7.081 0 003.549-3.56zM9.298 5.115a.318.318 0 01.575 0l.203.44a10 10 0 005.066 4.973l.51.223a.305.305 0 01.187.28.305.305 0 01-.187.28l-.51.224a10 10 0 00-5.066 4.973l-.203.44a.318.318 0 01-.574 0l-.203-.44a10 10 0 00-5.066-4.973l-.51-.224a.305.305 0 01-.187-.28c0-.121.074-.231.187-.28l.51-.223a10 10 0 005.066-4.973l.203-.44z" clip-rule="evenodd"></path><defs><radialGradient id="paint0_radial_923_91739" cx="0" cy="0" r="1" gradientTransform="matrix(9.96503 23.8888 -25.10096 10.47068 15.38 14.727)" gradientUnits="userSpaceOnUse"><stop stop-color="#FF000F"></stop><stop offset="1" stop-color="#FF8D94"></stop></radialGradient></defs></symbol></defs><g fill="#FFFFFF"><path fill-rule="evenodd" d="M21.448 9.191a.641.641 0 01.589-.406.64.64 0 01.587.406l2.188 5.202a10 10 0 004.892 5.138l4.726 2.267c.232.112.38.357.38.627a.692.692 0 01-.38.628l-4.726 2.267a10 10 0 00-4.892 5.138l-2.189 5.202a.64.64 0 01-.586.406.641.641 0 01-.588-.406l-2.19-5.202a10 10 0 00-4.891-5.137l-4.726-2.268a.695.695 0 01-.38-.628c0-.27.15-.515.38-.627l4.726-2.267a10 10 0 004.892-5.138l2.188-5.202zM11.092 27.515a.194.194 0 01.353 0 7.081 7.081 0 003.548 3.56.195.195 0 010 .355 7.08 7.08 0 00-3.548 3.558.194.194 0 01-.353 0 7.08 7.08 0 00-3.549-3.558.197.197 0 01-.113-.179c0-.076.045-.145.114-.176a7.081 7.081 0 003.548-3.56zM32.652 9.86c.03-.068.1-.113.176-.113.075 0 .145.045.177.113a7.074 7.074 0 003.547 3.56.195.195 0 010 .355 7.074 7.074 0 00-3.547 3.56.195.195 0 01-.177.115.192.192 0 01-.176-.115 7.082 7.082 0 00-3.549-3.56.195.195 0 010-.355 7.081 7.081 0 003.549-3.56zM9.298 5.115a.318.318 0 01.575 0l.203.44a10 10 0 005.066 4.973l.51.223a.305.305 0 01.187.28.305.305 0 01-.187.28l-.51.224a10 10 0 00-5.066 4.973l-.203.44a.318.318 0 01-.574 0l-.203-.44a10 10 0 00-5.066-4.973l-.51-.224a.305.305 0 01-.187-.28c0-.121.074-.231.187-.28l.51-.223a10 10 0 005.066-4.973l.203-.44z" clip-rule="evenodd"></path><defs><radialgradient id="paint0_radial_923_91739" cx="0" cy="0" r="1" gradienttransform="matrix(9.96503 23.8888 -25.10096 10.47068 15.38 14.727)" gradientunits="userSpaceOnUse"><stop stop-color="#FF000F"></stop><stop offset="1" stop-color="#FF8D94"></stop></radialgradient></defs></g></svg>