<svg xmlns:xlink="http://www.w3.org/1999/xlink" xmlns="http://www.w3.org/2000/svg" width="24" height="24" viewBox="0 0 24 24" fill="none">
<path fill-rule="evenodd" clip-rule="evenodd" d="M13.1707 19C13.5825 20.1652 14.6938 21 16 21C17.3062 21 18.4175 20.1652 18.8293 19H21C21.5523 19 22 18.5523 22 18V15H23V13H18V15H20V17H18.8293C18.4175 15.8348 17.3062 15 16 15C14.6938 15 13.5825 15.8348 13.1707 17H10V6H22V5C22 4.44772 21.5523 4 21 4H9C8.44771 4 8 4.44772 8 5V6H4.55556C2.03259 6 0 8.09611 0 10.6667V18C0 18.5523 0.447715 19 1 19H2.17071C2.58254 20.1652 3.69378 21 5 21C6.30622 21 7.41746 20.1652 7.82929 19H13.1707ZM8 17V8H4.55556C3.15116 8 2 9.18714 2 10.6667V12H7V14H2V17H2.17071C2.58254 15.8348 3.69378 15 5 15C6.30622 15 7.41746 15.8348 7.82929 17H8ZM6 18C6 18.5523 5.55228 19 5 19C4.44772 19 4 18.5523 4 18C4 17.4477 4.44772 17 5 17C5.55228 17 6 17.4477 6 18ZM16 19C16.5523 19 17 18.5523 17 18C17 17.4477 16.5523 17 16 17C15.4477 17 15 17.4477 15 18C15 18.5523 15.4477 19 16 19Z" fill="#029A49"></path>
<path d="M16 7V9H24V7H16Z" fill="#029A49"></path>
<path d="M17 12V10H22V12H17Z" fill="#029A49"></path>
</svg>