<svg xmlns:xlink="http://www.w3.org/1999/xlink" xmlns="http://www.w3.org/2000/svg" width="207" height="28" viewBox="0 0 207 28" fill="none">
    <path fill-rule="evenodd" clip-rule="evenodd" d="M112.843 16.9884H102.524C102.789 16.3326 102.936 15.6158 102.936 14.8648V12.7413C102.936 9.61378 100.4 7.07848 97.2729 7.07848C94.1456 7.07848 91.6101 9.61378 91.6101 12.7413V14.8648C91.6101 15.6158 91.7566 16.3326 92.0221 16.9884H86.9242C87.1896 16.3326 87.3361 15.6158 87.3361 14.8648V10.6177C87.3361 10.2268 87.019 9.90988 86.6283 9.90988H84.5047C84.1133 9.90988 83.7969 10.2268 83.7969 10.6177V14.8648C83.7969 16.0376 82.8455 16.9884 81.6733 16.9884H67.5433C66.3704 16.9884 65.4197 16.0376 65.4197 14.8648V10.6177C65.4197 10.2268 65.1026 9.90988 64.7119 9.90988H62.5883C62.1976 9.90988 61.8805 10.2268 61.8805 10.6177V14.8648C61.8805 17.9923 64.416 20.5276 67.5433 20.5276H81.6733C83.0721 20.5276 84.3526 20.0202 85.3407 19.1795L86.0627 20.2227C86.1951 20.4136 86.4124 20.5276 86.6446 20.5276H112.843C114.505 20.5276 115.992 20.0212 117.17 19.1443L117.916 20.2227C118.048 20.4136 118.266 20.5276 118.498 20.5276H122.729C124.127 20.5276 125.408 20.0202 126.396 19.1795L127.118 20.2227C127.25 20.4136 127.468 20.5276 127.7 20.5276H130.504C131.909 20.5276 133.195 20.0158 134.185 19.1685L134.915 20.2227C135.047 20.4136 135.265 20.5276 135.497 20.5276H136.178C139.305 20.5276 141.84 17.9923 141.84 14.8648V10.6177C141.84 10.2268 141.523 9.90988 141.133 9.90988H139.009C138.618 9.90988 138.301 10.2268 138.301 10.6177V14.8648C138.301 16.0376 137.351 16.9884 136.178 16.9884H135.756C136.021 16.3325 136.167 15.6158 136.167 14.8648V10.6177C136.167 10.2268 135.85 9.90988 135.459 9.90988H133.336C132.945 9.90988 132.628 10.2268 132.628 10.6177V14.8648C132.628 16.0376 131.677 16.9884 130.504 16.9884H127.979C128.245 16.3325 128.391 15.6158 128.391 14.8648V10.6177C128.391 10.2268 128.074 9.90988 127.683 9.90988H125.56C125.168 9.90988 124.852 10.2268 124.852 10.6177V14.8648C124.852 16.0376 123.901 16.9884 122.729 16.9884H119.043C119.605 15.9613 119.92 14.7594 119.92 13.4491V12.7413C119.92 8.68225 116.901 5.66279 112.843 5.66279H111.073L114.647 1.05858C114.995 0.637063 114.696 0 114.149 0H111.43C110.997 0 110.586 0.193301 110.31 0.527108L104.35 8.14026C103.944 8.63115 104.067 9.20203 104.704 9.20203H112.843C114.868 9.20203 116.381 10.7155 116.381 12.7413V13.4491C116.381 15.4749 114.868 16.9884 112.843 16.9884ZM99.3964 14.8648V12.7413C99.3964 11.5684 98.4458 10.6177 97.2729 10.6177C96.1 10.6177 95.1494 11.5684 95.1494 12.7413V14.8648C95.1494 16.0376 96.1 16.9884 97.2729 16.9884C98.4458 16.9884 99.3964 16.0376 99.3964 14.8648Z" fill="#EB3559"></path>
    <path d="M108.237 0C108.018 0 107.812 0.100849 107.678 0.273272L103.158 6.08503C103.067 6.20127 103.15 6.37064 103.297 6.37064H104.005C104.224 6.37064 104.43 6.26979 104.564 6.09736L109.084 0.285606C109.175 0.169367 109.092 0 108.945 0H108.237Z" fill="#EB3559"></path>
    <path d="M98.334 0.707825C98.7169 0.707825 98.9986 0.96156 99.0376 1.32635L99.0418 1.41244V3.52629C99.0418 3.90745 98.787 4.18829 98.4203 4.22647L98.334 4.23091H95.8572C95.4743 4.23091 95.1918 3.97729 95.1536 3.61241L95.1494 3.52629V1.41244C95.1494 1.0314 95.4042 0.750451 95.7708 0.712263L95.8572 0.707825H98.334Z" fill="#EB3559"></path>
    <path d="M78.1553 6.98907C78.1171 6.62428 77.8347 6.37054 77.4517 6.37054H71.7904L71.704 6.37498C71.3373 6.41317 71.0825 6.69412 71.0825 7.07514V9.18898L71.0868 9.27513C71.125 9.64002 71.4074 9.89365 71.7904 9.89365H77.4517L77.5381 9.88919C77.9048 9.85103 78.1596 9.57016 78.1596 9.18898V7.07514L78.1553 6.98907Z" fill="#EB3559"></path>
    <path d="M130.601 5.76885C130.206 5.76885 129.88 5.47069 129.838 5.08812L129.834 5.00492V1.47175C129.834 1.07794 130.133 0.753778 130.518 0.712305L130.601 0.707825H132.752C133.147 0.707825 133.473 1.00573 133.515 1.38851L133.519 1.47175L133.52 2.46895L135.993 2.46878C136.388 2.46878 136.714 2.76669 136.755 3.14946L136.76 3.23271V5.00492C136.76 5.39846 136.461 5.72287 136.077 5.76437L135.993 5.76885H130.601Z" fill="#EB3559"></path>
    <path d="M42.1762 20.2227L40.8893 18.364C39.6201 19.7141 37.7939 20.5276 35.6873 20.5276H23.4713L22.3861 19.1416C21.3923 20.005 20.0948 20.5276 18.6749 20.5276H12.3205C12.0884 20.5276 11.871 20.4136 11.7387 20.2227L10.9615 19.0999V19.1119C10.9615 23.1709 7.94249 26.1904 3.8844 26.1904H3.16169C2.72636 26.1904 2.31509 25.9901 2.04682 25.6474L0.532028 23.7129C0.126431 23.222 0.248889 22.6511 0.885952 22.6511H3.8844C5.90955 22.6511 7.42293 21.1377 7.42293 19.1119L7.42222 10.6177C7.42222 10.2268 7.73934 9.90988 8.13007 9.90988H10.2536C10.6443 9.90988 10.9615 10.2268 10.9615 10.6177V16.9884H18.6749C19.8471 16.9884 20.7984 16.0376 20.7984 14.8648V10.6177C20.7984 10.2268 21.1148 9.90988 21.5063 9.90988H23.6298C24.0206 9.90988 24.3377 10.2268 24.3377 10.6177V14.8648C24.3377 15.6158 24.1912 16.3326 23.9257 16.9884H35.6873C37.7125 16.9884 39.2258 15.4749 39.2258 13.4491V12.7413C39.2258 10.7155 37.7125 9.20203 35.6873 9.20203H27.5485C26.9114 9.20203 26.7889 8.63115 27.1945 8.14026L33.1546 0.527108C33.4307 0.193301 33.8412 0 34.2744 0H36.9933C37.5405 0 37.8399 0.637063 37.4916 1.05858L33.9177 5.66279H35.6873C39.7454 5.66279 42.7644 8.68225 42.7644 12.7413V13.4491C42.7644 14.7594 42.4494 15.9613 41.8874 16.9884H47.6967C48.8689 16.9884 49.8202 16.0376 49.8202 14.8648V10.6177C49.8202 10.2268 50.1366 9.90988 50.5281 9.90988H52.6516C53.0423 9.90988 53.3595 10.2268 53.3595 10.6177V14.8648C53.3595 17.9923 50.8239 20.5276 47.6967 20.5276H42.758C42.5258 20.5276 42.3085 20.4136 42.1762 20.2227Z" fill="#EB3559"></path>
    <path d="M31.0813 0C30.8625 0 30.6566 0.100849 30.5228 0.273272L26.0025 6.08503C25.9118 6.20127 25.9947 6.37064 26.1419 6.37064H26.8498C27.0678 6.37064 27.2745 6.26979 27.4082 6.09736L31.9286 0.285606C32.0192 0.169367 31.9363 0 31.7891 0H31.0813Z" fill="#EB3559"></path>
    <path d="M10.9112 3.44982C10.8722 3.08503 10.5905 2.8313 10.2076 2.8313H8.08401L7.99765 2.83574C7.63099 2.87393 7.37616 3.15488 7.37616 3.53591V5.64977L7.3804 5.73588C7.41863 6.10076 7.70106 6.35438 8.08401 6.35438H10.2076L10.2939 6.34994C10.6606 6.31177 10.9154 6.03093 10.9154 5.64977V3.53591L10.9112 3.44982Z" fill="#EB3559"></path>
    <path d="M20.8239 22.5638C21.2068 22.5638 21.4893 22.8175 21.5275 23.1823L21.5317 23.2684V25.3822C21.5317 25.7634 21.2769 26.0443 20.9102 26.0824L20.8239 26.0869H15.1625C14.7796 26.0869 14.4971 25.8333 14.4589 25.4684L14.4547 25.3822V23.2684C14.4547 22.8873 14.7095 22.6064 15.0761 22.5682L15.1625 22.5638H20.8239Z" fill="#EB3559"></path>
    <path d="M48.0768 2.8313C48.4597 2.8313 48.7414 3.08503 48.7804 3.44982L48.7846 3.53591V5.64977C48.7846 6.03093 48.5298 6.31177 48.1631 6.34994L48.0768 6.35438H45.6C45.2171 6.35438 44.9346 6.10076 44.8964 5.73588L44.8922 5.64977V3.53591C44.8922 3.15488 45.147 2.87393 45.5136 2.83574L45.6 2.8313H48.0768Z" fill="#EB3559"></path>
    <path d="M55.5099 2.83138C55.5099 2.44045 55.827 2.12354 56.2177 2.12354H58.3413C58.732 2.12354 59.0491 2.44045 59.0491 2.83138V19.8197C59.0491 20.2107 58.732 20.5276 58.3413 20.5276H56.2177C55.827 20.5276 55.5099 20.2107 55.5099 19.8197V2.83138Z" fill="#EB3559"></path>
    <path d="M151.778 19.6492C151.818 20.0128 152.1 20.2669 152.481 20.2669H158.848H158.851H160.277V22.6912C160.277 23.656 159.472 24.4608 158.508 24.4608H152.485C152.445 24.4608 152.406 24.4664 152.37 24.4769H150.353L150.229 24.4733C149.114 24.4088 148.23 23.4842 148.23 22.351L148.237 16.0215L148.233 15.9355C148.194 15.571 147.912 15.3169 147.53 15.3169H145.406L145.32 15.3214C144.954 15.3596 144.699 15.6409 144.699 16.0215V22.3631L144.701 22.5418C144.782 25.626 147.226 28 150.352 28H158.508C161.425 28 163.692 25.8106 163.811 22.9294V17.3453C163.77 16.9817 163.488 16.7276 163.108 16.7276H156.74H156.737H155.311V14.197C155.311 13.2322 156.116 12.4274 157.081 12.4274H163.103C163.555 12.4274 163.73 11.726 163.457 11.3656L162.042 9.24205C161.783 8.89994 161.055 8.88812 160.626 8.88812H157.081C154.163 8.88812 151.897 11.0775 151.778 13.9588V19.6492Z" fill="#EB3559"></path>
    <path d="M202.398 0.766174C202.781 0.766174 203.063 1.01991 203.102 1.38471L203.106 1.47079V3.58464C203.106 3.9658 202.851 4.24665 202.485 4.28482L202.398 4.28926H199.921C199.539 4.28926 199.256 4.03565 199.218 3.67076L199.214 3.58464V1.47079C199.214 1.08976 199.468 0.808808 199.835 0.770612L199.921 0.766174H202.398Z" fill="#EB3559"></path>
    <path fill-rule="evenodd" clip-rule="evenodd" d="M190.766 17.0468H196.086C195.821 16.391 195.674 15.6742 195.674 14.9232V12.7997C195.674 9.6722 198.21 7.1369 201.337 7.1369C204.465 7.1369 207 9.6722 207 12.7997V14.9232C207 18.0506 204.465 20.586 201.337 20.586H192.125C191.893 20.586 191.675 20.4721 191.543 20.2811L190.766 19.1583V19.1703C190.766 23.2293 187.747 26.2488 183.689 26.2488H183.673C183.238 26.2488 182.827 26.0486 182.559 25.7058L181.044 23.7713C180.638 23.2804 180.761 22.7096 181.398 22.7096H183.689C185.714 22.7096 187.227 21.1961 187.227 19.1703L187.226 10.6761C187.226 10.2852 187.543 9.96829 187.934 9.96829H190.058C190.449 9.96829 190.766 10.2852 190.766 10.6761V17.0468ZM203.461 14.9232V12.7997C203.461 11.6269 202.51 10.6761 201.337 10.6761C200.164 10.6761 199.214 11.6269 199.214 12.7997V14.9232C199.214 16.096 200.164 17.0468 201.337 17.0468C202.51 17.0468 203.461 16.096 203.461 14.9232Z" fill="#EB3559"></path>
    <path d="M179.412 6.49365C182.347 6.49365 184.284 8.36139 184.363 11.2408L184.366 11.426V15.6536C184.366 18.5757 182.49 20.5044 179.598 20.5835L179.412 20.586H173.042C172.66 20.586 172.377 20.332 172.339 19.9674L172.334 19.8813V17.7675C172.334 17.3866 172.59 17.1056 172.956 17.0674L173.042 17.0629H179.412C180.334 17.0629 180.787 16.6521 180.824 15.776L180.827 15.6536V11.426C180.827 10.5073 180.415 10.0568 179.535 10.0193L179.412 10.0168H173.042C172.66 10.0168 172.377 9.76265 172.339 9.39811L172.334 9.31211V7.19826C172.334 6.81749 172.59 6.53632 172.956 6.4981L173.042 6.49365H179.412Z" fill="#EB3559"></path>
    <path d="M166.642 2.18188C166.251 2.18188 165.934 2.4988 165.934 2.88973V19.8781C165.934 20.2691 166.251 20.586 166.642 20.586H168.765C169.156 20.586 169.473 20.2691 169.473 19.8781V2.88973C169.473 2.4988 169.156 2.18188 168.765 2.18188H166.642Z" fill="#EB3559"></path>
</svg>